<?xml version="1.0" encoding="UTF-8"?>
<svg version="1.1" xmlns="http://www.w3.org/2000/svg" width="100" height="100">
<path d="M0 0 C0.86454803 -0.00960754 1.72909607 -0.01921509 2.61984253 -0.02911377 C3.55111969 -0.03336365 4.48239685 -0.03761353 5.44189453 -0.04199219 C6.88267868 -0.0505423 6.88267868 -0.0505423 8.35256958 -0.05926514 C10.38510029 -0.06871176 12.4176463 -0.07524778 14.45019531 -0.07910156 C17.5557736 -0.08880801 20.66069029 -0.11983505 23.76611328 -0.15136719 C25.74136977 -0.15789736 27.71663099 -0.16314777 29.69189453 -0.16699219 C30.61912323 -0.17933899 31.54635193 -0.19168579 32.50167847 -0.20440674 C37.33189541 -0.18776103 40.86371653 -0.14012042 44.69970703 3.16113281 C45.83051255 6.55354938 45.8267208 9.1352377 45.82910156 12.7121582 C45.83085388 13.3726265 45.8326062 14.03309479 45.83441162 14.71357727 C45.83881072 16.89534131 45.83589932 19.07702421 45.83251953 21.25878906 C45.83319305 22.77428706 45.83416347 24.28978496 45.8354187 25.80528259 C45.83689297 28.98030629 45.83474949 32.15530184 45.83007812 35.33032227 C45.82437613 39.40490739 45.82766452 43.47942672 45.83365059 47.55400944 C45.83725934 50.68261717 45.83611625 53.81120923 45.8335228 56.93981743 C45.83285465 58.44256027 45.83367804 59.94530453 45.83600235 61.44804573 C45.83853454 63.54523633 45.8346805 65.64231939 45.82910156 67.73950195 C45.82830597 68.93402481 45.82751038 70.12854767 45.82669067 71.35926819 C45.69970703 74.16113281 45.69970703 74.16113281 44.69970703 76.16113281 C40.24831903 76.88993149 37.90313486 75.89715895 34.35205078 73.38769531 C32.769747 72.2012985 31.19836298 71.00022292 29.63720703 69.78613281 C28.06660856 68.58606737 26.49248921 67.39059312 24.91455078 66.20019531 C24.22482178 65.66604004 23.53509277 65.13188477 22.82446289 64.58154297 C20.42468579 62.97727971 18.51705837 61.8485437 15.69970703 61.16113281 C13.2534382 62.26294188 13.2534382 62.26294188 11.01220703 64.24707031 C10.14853516 64.93027344 9.28486328 65.61347656 8.39501953 66.31738281 C7.50556641 67.04957031 6.61611328 67.78175781 5.69970703 68.53613281 C3.93758223 69.97137069 2.16702923 71.39633836 0.38720703 72.80957031 C-0.39267578 73.45071777 -1.17255859 74.09186523 -1.97607422 74.75244141 C-4.67351214 76.38733813 -6.19916899 76.53276062 -9.30029297 76.16113281 C-11.17728403 74.28414175 -10.44776902 71.07785121 -10.46142578 68.57763672 C-10.46639069 67.88980606 -10.47135559 67.2019754 -10.47647095 66.49330139 C-10.49112718 64.20808934 -10.49790047 61.92294672 -10.50341797 59.63769531 C-10.50916684 58.05447385 -10.51492461 56.47125241 -10.52069092 54.88803101 C-10.53121095 51.56402257 -10.53704695 48.24003838 -10.54052734 44.91601562 C-10.54601238 40.65302596 -10.57003613 36.39035567 -10.5984993 32.1274662 C-10.61710805 28.85555073 -10.62233034 25.58371243 -10.62386322 22.3117485 C-10.62689459 20.74003733 -10.63493941 19.16832767 -10.6480484 17.59666824 C-10.66507178 15.39867007 -10.66323818 13.20145501 -10.65673828 11.00341797 C-10.66038391 9.75178864 -10.66402954 8.5001593 -10.66778564 7.21060181 C-10.30029297 4.16113281 -10.30029297 4.16113281 -8.96551514 2.29598999 C-6.03898042 0.30154205 -3.43285874 0.03084509 0 0 Z " fill="#FD3C4F" transform="translate(33.30029296875,9.8388671875)"/>
<path d="M0 0 C-0.72265625 1.92285156 -0.72265625 1.92285156 -2 4 C-10.09903394 7.43186337 -20.80144969 6.30430772 -29.4609375 6.26074219 C-31.99503504 6.25002101 -34.52842391 6.26068867 -37.0625 6.2734375 C-56.58286255 6.29544359 -56.58286255 6.29544359 -62 4 C-63.27734375 1.92285156 -63.27734375 1.92285156 -64 0 C-50.51089302 -7.94655312 -13.48910698 -7.94655312 0 0 Z " fill="#000000" transform="translate(82,94)"/>
<path d="M0 0 C0.02468857 4.5206665 0.04285449 9.0412939 0.05493164 13.56201172 C0.05996552 15.10043013 0.06679308 16.63884375 0.07543945 18.17724609 C0.08754639 20.38640526 0.09323769 22.59550126 0.09765625 24.8046875 C0.10281754 25.49432587 0.10797882 26.18396423 0.11329651 26.89450073 C0.11387171 31.77225659 0.11387171 31.77225659 -1 34 C-6.50548818 34.84429212 -9.29848798 32.82776517 -13.5703125 29.734375 C-14.33085938 29.16203125 -15.09140625 28.5896875 -15.875 28 C-16.65875 27.42765625 -17.4425 26.8553125 -18.25 26.265625 C-20.17632859 24.85611628 -22.09208199 23.43427625 -24 22 C-22.125 18.125 -22.125 18.125 -21 17 C-16.41118939 17.37613202 -13.05590304 17.76697473 -9 20 C-9.04640625 18.97519531 -9.0928125 17.95039062 -9.140625 16.89453125 C-9.17816011 15.53388344 -9.21455841 14.17320395 -9.25 12.8125 C-9.30027344 11.80219727 -9.30027344 11.80219727 -9.3515625 10.77148438 C-9.4208909 7.21840411 -9.06689985 5.11738161 -7.296875 2.01171875 C-4.54350374 -0.3998224 -3.52527962 -0.1880977 0 0 Z " fill="#D83343" transform="translate(79,52)"/>
<path d="M0 0 C1.8871875 0.0309375 1.8871875 0.0309375 3.8125 0.0625 C4.17875971 4.57970311 4.17875971 4.57970311 2.4375 6.875 C0.8125 8.0625 0.8125 8.0625 -1.1875 8.0625 C-1.17589844 8.88492187 -1.16429687 9.70734375 -1.15234375 10.5546875 C-1.00047229 29.34335642 -1.00047229 29.34335642 -4 33.6875 C-6.1875 35.0625 -6.1875 35.0625 -10.1875 35.0625 C-10.26168046 30.70259127 -10.31611544 26.34301721 -10.35229492 21.98266602 C-10.36737768 20.49952801 -10.38784689 19.01643456 -10.41381836 17.53344727 C-10.45022616 15.40109255 -10.46723073 13.26932765 -10.48046875 11.13671875 C-10.4961792 9.85369873 -10.51188965 8.57067871 -10.52807617 7.2487793 C-10.1875 4.0625 -10.1875 4.0625 -8.85668945 2.18286133 C-5.93633243 0.2227153 -3.41026977 -0.05590606 0 0 Z " fill="#FD7784" transform="translate(33.1875,9.9375)"/>
<path d="M0 0 C0.99 0.33 1.98 0.66 3 1 C3 5.62 3 10.24 3 15 C1.68 15 0.36 15 -1 15 C-1.02685412 12.68756208 -1.04632841 10.3750373 -1.0625 8.0625 C-1.07410156 6.77472656 -1.08570312 5.48695312 -1.09765625 4.16015625 C-1 1 -1 1 0 0 Z " fill="#FFFCFC" transform="translate(28,17)"/>
</svg>
