<?xml version="1.0" encoding="UTF-8"?>
<svg version="1.1" xmlns="http://www.w3.org/2000/svg" width="100" height="100">
<path d="M0 0 C8.44938663 6.61417 14.38072895 15.72576623 16.125 26.375 C16.87883522 38.2479047 15.60352876 49.66344575 8.125 59.375 C5.125 61.1875 5.125 61.1875 2.125 61.375 C0.43324337 60.07364875 -1.23204805 58.73744796 -2.875 57.375 C-6.6647565 57.04829685 -9.26927296 57.17309099 -12.875 58.375 C-12.875 59.035 -12.875 59.695 -12.875 60.375 C-13.535 60.375 -14.195 60.375 -14.875 60.375 C-15.11734375 59.82070312 -15.3596875 59.26640625 -15.609375 58.6953125 C-15.94453125 57.97085938 -16.2796875 57.24640625 -16.625 56.5 C-16.94984375 55.78070313 -17.2746875 55.06140625 -17.609375 54.3203125 C-19.12499458 51.99074907 -20.27970201 51.30613745 -22.875 50.375 C-26.42340508 50.52285021 -28.30755282 50.93365219 -31.125 53.125 C-32.94649658 55.46692418 -33.94029889 57.57089668 -34.875 60.375 C-35.535 60.375 -36.195 60.375 -36.875 60.375 C-36.875 59.715 -36.875 59.055 -36.875 58.375 C-40.49430698 57.16856434 -43.06731005 57.05231441 -46.875 57.375 C-47.90625 58.07625 -48.9375 58.7775 -50 59.5 C-52.875 61.375 -52.875 61.375 -55.3203125 60.91796875 C-58.7684435 58.83538198 -60.00475447 56.10451656 -61.625 52.5625 C-61.92792969 51.94568359 -62.23085938 51.32886719 -62.54296875 50.69335938 C-66.87370117 41.6373167 -67.34913728 30.89830775 -64.8125 21.1875 C-60.87463159 10.08489879 -53.78167652 1.32833826 -43.1875 -3.96875 C-28.56740401 -10.06045666 -13.25924142 -8.96041759 0 0 Z " fill="#444A49" transform="translate(74.875,8.625)"/>
<path d="M0 0 C1.9375 2.3125 1.9375 2.3125 3 5 C2.6875 7.8125 2.6875 7.8125 2 10 C3.32 10.99 4.64 11.98 6 13 C6.474375 11.865625 6.94875 10.73125 7.4375 9.5625 C9 6 9 6 10 5 C16.12145749 4.5465587 16.12145749 4.5465587 18.9375 6 C20.67278693 9.26642246 20.17982715 12.34351452 20 16 C20.66 16.33 21.32 16.66 22 17 C21.9071875 15.6078125 21.9071875 15.6078125 21.8125 14.1875 C22 11 22 11 23.125 9.125 C25.91106042 7.45336375 27.81988862 7.53623376 31 8 C32.875 9.625 32.875 9.625 34 12 C34.039992 13.99960012 34.04346799 16.00047242 34 18 C34.99 18.99 34.99 18.99 36 20 C36.23046875 23.00390625 36.23046875 23.00390625 36.1875 26.5625 C36.18105469 27.73941406 36.17460938 28.91632813 36.16796875 30.12890625 C36 33 36 33 35 34 C33.01524108 34.21668331 31.02366446 34.37153113 29.03125 34.5 C27.82082031 34.5825 26.61039062 34.665 25.36328125 34.75 C21.5 35 21.5 35 17.63671875 35.25 C16.42628906 35.3325 15.21585938 35.415 13.96875 35.5 C12.28942383 35.60828125 12.28942383 35.60828125 10.57617188 35.71875 C8.07109868 35.72017175 8.07109868 35.72017175 7 37 C5.23140807 37.09946453 3.45888549 37.13080217 1.6875 37.1328125 C0.61242188 37.13410156 -0.46265625 37.13539062 -1.5703125 37.13671875 C-2.70210937 37.13285156 -3.83390625 37.12898438 -5 37.125 C-6.13179687 37.12886719 -7.26359375 37.13273437 -8.4296875 37.13671875 C-9.50476562 37.13542969 -10.57984375 37.13414063 -11.6875 37.1328125 C-12.68136719 37.13168457 -13.67523438 37.13055664 -14.69921875 37.12939453 C-17 37 -17 37 -18 36 C-19.98475892 35.78331669 -21.97633554 35.62846887 -23.96875 35.5 C-25.17917969 35.4175 -26.38960937 35.335 -27.63671875 35.25 C-28.91160156 35.1675 -30.18648437 35.085 -31.5 35 C-34.01069167 34.83752855 -36.52113049 34.67108376 -39.03125 34.5 C-40.15080078 34.4278125 -41.27035156 34.355625 -42.42382812 34.28125 C-45 34 -45 34 -46 33 C-46.12602054 30.89868079 -46.1757922 28.79256212 -46.1875 26.6875 C-46.20167969 25.53636719 -46.21585938 24.38523437 -46.23046875 23.19921875 C-46.00799005 20.11091279 -45.50489115 18.62346924 -44 16 C-43.7525 14.453125 -43.7525 14.453125 -43.5 12.875 C-43 10 -43 10 -41 8 C-37.89652746 7.66984335 -35.84218824 7.49468706 -33.125 9.125 C-31.5317901 11.78034983 -31.79785968 13.96789518 -32 17 C-31.34 16.34 -30.68 15.68 -30 15 C-30.020625 13.865625 -30.04125 12.73125 -30.0625 11.5625 C-30 8 -30 8 -28.9375 6.0625 C-25.84506242 4.36664713 -23.44485259 4.56939343 -20 5 C-17.47677724 7.35500791 -16.60041109 9.63769791 -16 13 C-14.68 12.01 -13.36 11.02 -12 10 C-12.226875 9.278125 -12.45375 8.55625 -12.6875 7.8125 C-13.09305931 4.16246621 -12.23774092 2.85504876 -10 0 C-6.43706227 -2.8257782 -3.9156772 -1.91618246 0 0 Z M-18 14 C-17 16 -17 16 -17 16 Z M7 14 C8 16 8 16 8 16 Z " fill="#464747" transform="translate(55,62)"/>
<path d="M0 0 C5.61 0 11.22 0 17 0 C17.31446193 7.33744508 16.46972941 13.09063796 14 20 C14.99 20 15.98 20 17 20 C17.99 13.4 18.98 6.8 20 0 C24.95 0 29.9 0 35 0 C35 10.40890478 31.60412727 17.11907479 25 25 C24.319375 24.505 23.63875 24.01 22.9375 23.5 C19.36088586 21.67364384 16.97014116 21.70591547 13 22 C12.01 22.33 11.02 22.66 10 23 C10 23.66 10 24.32 10 25 C9.34 25 8.68 25 8 25 C7.75765625 24.44570312 7.5153125 23.89140625 7.265625 23.3203125 C6.93046875 22.59585938 6.5953125 21.87140625 6.25 21.125 C5.92515625 20.40570313 5.6003125 19.68640625 5.265625 18.9453125 C3.93948746 16.54821423 3.93948746 16.54821423 0 15 C0 10.05 0 5.1 0 0 Z " fill="#83C8BA" transform="translate(52,44)"/>
<path d="M0 0 C5.61 0 11.22 0 17 0 C17.103125 2.413125 17.20625 4.82625 17.3125 7.3125 C17.38078003 8.44619019 17.38078003 8.44619019 17.45043945 9.6027832 C17.48828125 11.42578125 17.48828125 11.42578125 17 15 C14.59375 16.75 14.59375 16.75 12 18 C10.80126145 19.76580116 10.80126145 19.76580116 10.1875 21.6875 C9.795625 22.780625 9.40375 23.87375 9 25 C8.34 25 7.68 25 7 25 C7 24.34 7 23.68 7 23 C6.37609375 22.773125 5.7521875 22.54625 5.109375 22.3125 C1.5948329 20.1256738 1.46752012 16.89006883 0.52734375 13.04296875 C-0.24014931 8.61424954 -0.19504974 4.48614398 0 0 Z " fill="#72B1A4" transform="translate(31,44)"/>
<path d="M0 0 C1.8871875 0.00773437 1.8871875 0.00773437 3.8125 0.015625 C5.070625 0.01046875 6.32875 0.0053125 7.625 0 C10.8125 0.265625 10.8125 0.265625 12.8125 2.265625 C12.95801875 5.01883975 12.99872113 7.64325922 12.9375 10.390625 C12.89625 12.989375 12.855 15.588125 12.8125 18.265625 C6.8725 18.265625 0.9325 18.265625 -5.1875 18.265625 C-5.22875 15.666875 -5.27 13.068125 -5.3125 10.390625 C-5.33070801 9.57352051 -5.34891602 8.75641602 -5.36767578 7.91455078 C-5.38227217 6.03067451 -5.28693482 4.14693188 -5.1875 2.265625 C-3.1875 0.265625 -3.1875 0.265625 0 0 Z " fill="#7BB1F7" transform="translate(46.1875,76.734375)"/>
<path d="M0 0 C4.95 0 9.9 0 15 0 C15.9375 7.125 15.9375 7.125 16.22631836 9.33251953 C16.74352008 13.23614848 17.32914429 17.11991564 18 21 C12.375 24 12.375 24 9 24 C7.24609375 21.8046875 7.24609375 21.8046875 5.4375 18.875 C4.83808594 17.92367187 4.23867188 16.97234375 3.62109375 15.9921875 C0.48149214 10.1971638 0 6.79514148 0 0 Z " fill="#62978D" transform="translate(13,44)"/>
<path d="M0 0 C4.95 0 9.9 0 15 0 C15 10.40890478 11.60412727 17.11907479 5 25 C2.5 23.625 2.5 23.625 0 22 C0 21.34 0 20.68 0 20 C-0.66 20 -1.32 20 -2 20 C-1.41339754 13.32271667 -0.76418989 6.65936905 0 0 Z " fill="#93E2D2" transform="translate(72,44)"/>
<path d="M0 0 C3.62696778 2.70485733 4.66524625 7.15202821 5.84375 11.375 C6.12854964 14.15179653 6.05104897 16.57646389 5.84375 19.375 C0.89375 19.375 -4.05625 19.375 -9.15625 19.375 C-9.38411458 16.41276042 -9.61197917 13.45052083 -9.83984375 10.48828125 C-10.12076681 7.72413703 -10.55781852 5.08554259 -11.15625 2.375 C-9.74679634 1.81483252 -8.3282469 1.27751498 -6.90625 0.75 C-6.11734375 0.44835937 -5.3284375 0.14671875 -4.515625 -0.1640625 C-2.15625 -0.625 -2.15625 -0.625 0 0 Z " fill="#91DCCD" transform="translate(81.15625,21.625)"/>
<path d="M0 0 C5.445 1.485 5.445 1.485 11 3 C10.34 8.61 9.68 14.22 9 20 C4.05 20 -0.9 20 -6 20 C-6.50368582 13.20024147 -5.09684674 8.08066988 -2 2 C-1.34 1.34 -0.68 0.68 0 0 Z " fill="#61958B" transform="translate(19,21)"/>
<path d="M0 0 C4.95 0 9.9 0 15 0 C15 4.95 15 9.9 15 15 C9.39 15 3.78 15 -2 15 C-2.25 5.625 -2.25 5.625 0 0 Z " fill="#72AFA3" transform="translate(33,25)"/>
<path d="M0 0 C3.6815625 -0.0309375 3.6815625 -0.0309375 7.4375 -0.0625 C8.21150146 -0.071604 8.98550293 -0.08070801 9.78295898 -0.09008789 C11.52221717 -0.09724913 13.26145304 -0.05024702 15 0 C17.63636902 2.63636902 16.80186028 11.85807014 17 15 C11.39 15 5.78 15 0 15 C0 10.05 0 5.1 0 0 Z " fill="#83C8BB" transform="translate(52,25)"/>
<path d="M0 0 C1.19109375 0.00773437 1.19109375 0.00773437 2.40625 0.015625 C3.2003125 0.01046875 3.994375 0.0053125 4.8125 0 C6.90625 0.265625 6.90625 0.265625 8.90625 2.265625 C9.18254475 5.94587105 8.9921815 9.57057057 8.90625 13.265625 C4.61625 13.265625 0.32625 13.265625 -4.09375 13.265625 C-4.2890625 4.8671875 -4.2890625 4.8671875 -4.09375 2.265625 C-2.09375 0.265625 -2.09375 0.265625 0 0 Z " fill="#6B99D2" transform="translate(66.09375,80.734375)"/>
<path d="M0 0 C1.19109375 0.00773437 1.19109375 0.00773437 2.40625 0.015625 C3.2003125 0.01046875 3.994375 0.0053125 4.8125 0 C6.90625 0.265625 6.90625 0.265625 8.90625 2.265625 C9.18254475 5.94587105 8.9921815 9.57057057 8.90625 13.265625 C4.61625 13.265625 0.32625 13.265625 -4.09375 13.265625 C-4.2890625 4.8671875 -4.2890625 4.8671875 -4.09375 2.265625 C-2.09375 0.265625 -2.09375 0.265625 0 0 Z " fill="#6B99D2" transform="translate(29.09375,80.734375)"/>
<path d="M0 0 C5.81158727 2.32463491 8.47824467 4.94428422 12 10 C13.02113999 12.38713865 13.51814347 14.4300985 14 17 C9.38 17 4.76 17 0 17 C0 11.39 0 5.78 0 0 Z " fill="#83C8BA" transform="translate(52,5)"/>
<path d="M0 0 C0 5.61 0 11.22 0 17 C-4.62 17 -9.24 17 -14 17 C-12.81186714 10.01971943 -9.00812147 5.86205126 -4 1 C-2 0 -2 0 0 0 Z " fill="#72B0A3" transform="translate(48,5)"/>
<path d="M0 0 C0 3.35762885 -0.39462725 3.84515966 -2.375 6.375 C-4.4485389 9.14167655 -5.8973697 11.6921091 -7 15 C-10.3 14.34 -13.6 13.68 -17 13 C-12.62581561 7.27991272 -8.45951718 4.12640632 -2 1 C-1.34 0.67 -0.68 0.34 0 0 Z " fill="#609289" transform="translate(38,6)"/>
<path d="M0 0 C7.56759041 3.34296469 13.12008405 6.22233897 18 13 C14.7 13.66 11.4 14.32 8 15 C7.67386719 14.31292969 7.34773438 13.62585937 7.01171875 12.91796875 C6.57472656 12.01691406 6.13773437 11.11585937 5.6875 10.1875 C5.25824219 9.29417969 4.82898438 8.40085937 4.38671875 7.48046875 C3.11021226 5.19714024 1.8456512 3.80235146 0 2 C0 1.34 0 0.68 0 0 Z " fill="#90DACC" transform="translate(61,6)"/>
<path d="M0 0 C2.05078125 0.03255208 4.1015625 0.06510417 6.15234375 0.09765625 C6.15234375 3.06765625 6.15234375 6.03765625 6.15234375 9.09765625 C3.18234375 9.09765625 0.21234375 9.09765625 -2.84765625 9.09765625 C-2.9453125 2.9453125 -2.9453125 2.9453125 -2.84765625 1.09765625 C-1.84765625 0.09765625 -1.84765625 0.09765625 0 0 Z " fill="#618CC1" transform="translate(80.84765625,82.90234375)"/>
<path d="M0 0 C6.15234375 -0.09765625 6.15234375 -0.09765625 8 0 C9 1 9 1 9.09765625 2.84765625 C9.04882812 5.92382812 9.04882812 5.92382812 9 9 C6.03 9 3.06 9 0 9 C0 6.03 0 3.06 0 0 Z " fill="#618CC1" transform="translate(13,83)"/>
<path d="M0 0 C2.625 0.375 2.625 0.375 5 1 C5.625 3.375 5.625 3.375 6 6 C5.34 6.66 4.68 7.32 4 8 C1.375 7.625 1.375 7.625 -1 7 C-1.625 4.625 -1.625 4.625 -2 2 C-1.34 1.34 -0.68 0.68 0 0 Z " fill="#EBC99B" transform="translate(48,64)"/>
<path d="M0 0 C2.0625 0.4375 2.0625 0.4375 4 1 C4.5625 2.9375 4.5625 2.9375 5 5 C4 6 4 6 1.4375 6.0625 C0.2309375 6.0315625 0.2309375 6.0315625 -1 6 C-1.042721 4.33388095 -1.04063832 2.66617115 -1 1 C-0.67 0.67 -0.34 0.34 0 0 Z " fill="#EAC89A" transform="translate(67,70)"/>
<path d="M0 0 C2.125 0.375 2.125 0.375 4 1 C4 2.65 4 4.3 4 6 C2.35 6 0.7 6 -1 6 C-1.625 4.125 -1.625 4.125 -2 2 C-1.34 1.34 -0.68 0.68 0 0 Z " fill="#EAC89A" transform="translate(30,70)"/>
</svg>
