<?xml version="1.0" encoding="UTF-8"?>
<svg version="1.1" xmlns="http://www.w3.org/2000/svg" width="100" height="100">
<path d="M0 0 C1 1 1 1 1.27734375 3.3046875 C0.93009033 6.6794038 -0.09701599 7.72329608 -2.4375 10.125 C-7.08887467 14.95491228 -7.29233869 18.74193724 -7.21484375 25.27734375 C-6.73195888 31.39681197 -3.51747146 35.11287339 1 39 C6.11634546 42.45055856 11.00903687 42.84132353 17 42 C21.10091003 40.63068929 24.17266411 38.85097406 27.1875 35.75 C29 34 29 34 31.6875 33.6875 C34 34 34 34 35 35 C35.77059302 44.70947203 32.86014077 52.54294085 26.7578125 60.1171875 C19.39264604 68.00609913 12.04673059 71.89929736 1.27197266 72.45141602 C-9.31592477 72.69819414 -17.69103043 70.06407906 -25.9375 63.1875 C-33.35904369 56.03485282 -37.15737613 48.25666603 -37.38110352 37.84790039 C-37.34667553 25.66177054 -34.99954259 18.22437789 -26.37109375 9.19921875 C-18.59939383 1.99087105 -10.59173678 -0.85771127 0 0 Z " fill="#535352" transform="translate(51,11)"/>
<path d="M0 0 C0.95245605 0.00080566 1.90491211 0.00161133 2.88623047 0.00244141 C23.40661076 0.17871552 23.40661076 0.17871552 30.3125 4.1875 C30.3125 5.1775 30.3125 6.1675 30.3125 7.1875 C21.0359298 10.18192229 12.32653859 10.65636321 2.68554688 10.57861328 C0.3158209 10.56252255 -2.05220031 10.57854597 -4.421875 10.59765625 C-13.25298478 10.60803114 -21.20011763 9.9271771 -29.6875 7.1875 C-29.3575 5.8675 -29.0275 4.5475 -28.6875 3.1875 C-19.19569724 0.55088812 -9.82289074 -0.00873456 0 0 Z " fill="#000000" transform="translate(49.6875,89.8125)"/>
<path d="M0 0 C1.134375 0.020625 2.26875 0.04125 3.4375 0.0625 C1.07222759 10.85264746 -4.33385771 18.17004635 -13.26953125 24.62109375 C-21.63245781 29.8781975 -30.94713252 29.91843445 -40.5625 29.0625 C-41.2225 28.4025 -41.8825 27.7425 -42.5625 27.0625 C-41.19266497 23.90134224 -40.5734362 23.0697908 -37.5625 21.0625 C-35.34260408 20.707091 -33.1106546 20.42435854 -30.875 20.1875 C-21.37061701 18.89678132 -16.19622707 16.54205247 -10.1015625 9.09765625 C-8.12691762 6.48651417 -6.31563925 3.82706575 -4.5625 1.0625 C-3.5625 0.0625 -3.5625 0.0625 0 0 Z " fill="#474746" transform="translate(82.5625,53.9375)"/>
<path d="M0 0 C0.3125 2.6875 0.3125 2.6875 0 6 C-2.1875 8.5625 -2.1875 8.5625 -5 11 C-11.52738237 17.36817792 -17.93124105 23.66077028 -18.4375 33.125 C-18.6806272 37.01503518 -18.88899725 37.85394375 -21.375 41.125 C-24 43 -24 43 -27 43 C-27.536613 30.15109972 -27.43471908 20.9171691 -18.75 10.6875 C-13.67823296 5.36465538 -7.71898773 0 0 0 Z " fill="#848484" transform="translate(41,12)"/>
<path d="M0 0 C2 3 2 3 1.8125 5.5625 C1 8 1 8 -2 10 C-5.1875 9.625 -5.1875 9.625 -8 9 C-9.32561852 2.61292897 -9.32561852 2.61292897 -7.9375 0 C-4.99948754 -1.51639353 -3.09843192 -0.92293717 0 0 Z " fill="#C8C5BF" transform="translate(39,51)"/>
<path d="M0 0 C-0.50674211 4.43399343 -2.10511369 6.66649455 -5 10 C-5.99 11.485 -5.99 11.485 -7 13 C-8.32 12.67 -9.64 12.34 -11 12 C-10.71813452 7.34921955 -8.52396815 4.79882021 -5.66796875 1.35546875 C-4 0 -4 0 0 0 Z " fill="#F3F3F3" transform="translate(32,23)"/>
<path d="M0 0 C1.67542976 0.28604898 3.34385343 0.61781233 5 1 C5.625 3.375 5.625 3.375 6 6 C5.34 6.66 4.68 7.32 4 8 C1.06546739 7.63318342 0.13562754 7.13562754 -2 5 C-1.46428571 1.46428571 -1.46428571 1.46428571 0 0 Z " fill="#C4C1BB" transform="translate(50,58)"/>
</svg>
