<?xml version="1.0" encoding="UTF-8"?>
<svg version="1.1" xmlns="http://www.w3.org/2000/svg" width="100" height="100">
<path d="M0 0 C0.90492187 0.02320313 1.80984375 0.04640625 2.7421875 0.0703125 C3.65226562 0.08835937 4.56234375 0.10640625 5.5 0.125 C6.19867188 0.14820313 6.89734375 0.17140625 7.6171875 0.1953125 C10.28610415 5.0621605 9.40777438 8.89838038 8.6171875 14.1953125 C13.5671875 14.1953125 18.5171875 14.1953125 23.6171875 14.1953125 C23.5759375 12.2565625 23.5346875 10.3178125 23.4921875 8.3203125 C23.421875 5.015625 23.421875 5.015625 23.6171875 2.1953125 C25.6171875 0.1953125 25.6171875 0.1953125 27.9296875 -0.0703125 C29.26 -0.06257812 29.26 -0.06257812 30.6171875 -0.0546875 C31.5040625 -0.05984375 32.3909375 -0.065 33.3046875 -0.0703125 C35.6171875 0.1953125 35.6171875 0.1953125 37.6171875 2.1953125 C37.59375 5.015625 37.59375 5.015625 37.2421875 8.3203125 C37.13132813 9.41601562 37.02046875 10.51171875 36.90625 11.640625 C36.81085938 12.48367187 36.71546875 13.32671875 36.6171875 14.1953125 C37.77347656 14.16050781 37.77347656 14.16050781 38.953125 14.125 C39.95601562 14.10695313 40.95890625 14.08890625 41.9921875 14.0703125 C43.48878906 14.03550781 43.48878906 14.03550781 45.015625 14 C47.6171875 14.1953125 47.6171875 14.1953125 49.6171875 16.1953125 C49.95718523 19.79928841 49.76989428 22.64321877 48.8046875 26.1328125 C46.00500489 28.77251324 44.70694796 28.49810232 40.9296875 28.5078125 C39.15761805 28.42736836 37.3859273 28.33044542 35.6171875 28.1953125 C35.62878906 28.78699219 35.64039063 29.37867187 35.65234375 29.98828125 C35.66136719 30.77847656 35.67039063 31.56867187 35.6796875 32.3828125 C35.69128906 33.16011719 35.70289063 33.93742187 35.71484375 34.73828125 C35.61237323 37.31643961 35.18416303 39.68186981 34.6171875 42.1953125 C35.38804688 42.18371094 36.15890625 42.17210937 36.953125 42.16015625 C37.95601562 42.15113281 38.95890625 42.14210937 39.9921875 42.1328125 C40.98992187 42.12121094 41.98765625 42.10960937 43.015625 42.09765625 C45.6171875 42.1953125 45.6171875 42.1953125 47.6171875 43.1953125 C47.67134938 44.79910591 47.71005388 46.40342656 47.7421875 48.0078125 C47.76539062 48.90113281 47.78859375 49.79445312 47.8125 50.71484375 C47.6171875 53.1953125 47.6171875 53.1953125 45.6171875 56.1953125 C42.796875 56.48828125 42.796875 56.48828125 39.4921875 56.3828125 C37.84863281 56.34220703 37.84863281 56.34220703 36.171875 56.30078125 C35.32882813 56.26597656 34.48578125 56.23117188 33.6171875 56.1953125 C33.64039063 56.87078125 33.66359375 57.54625 33.6875 58.2421875 C33.70554688 59.13421875 33.72359375 60.02625 33.7421875 60.9453125 C33.76539063 61.82703125 33.78859375 62.70875 33.8125 63.6171875 C33.60858252 66.3088983 32.98270471 67.89436224 31.6171875 70.1953125 C29.99254908 70.24926728 28.36740209 70.28808445 26.7421875 70.3203125 C25.83726563 70.34351562 24.93234375 70.36671875 24 70.390625 C21.6171875 70.1953125 21.6171875 70.1953125 19.6171875 68.1953125 C19.38671875 65.8828125 19.38671875 65.8828125 19.4296875 63.1953125 C19.43613281 62.3084375 19.44257812 61.4215625 19.44921875 60.5078125 C19.6171875 58.1953125 19.6171875 58.1953125 20.6171875 56.1953125 C15.6671875 56.1953125 10.7171875 56.1953125 5.6171875 56.1953125 C5.6584375 57.3915625 5.6996875 58.5878125 5.7421875 59.8203125 C5.75570458 63.61861203 5.03728503 66.64506868 3.6171875 70.1953125 C1.99227796 70.22229439 0.36724117 70.24170007 -1.2578125 70.2578125 C-2.61519531 70.27521484 -2.61519531 70.27521484 -4 70.29296875 C-6.3828125 70.1953125 -6.3828125 70.1953125 -8.3828125 69.1953125 C-8.3828125 64.9053125 -8.3828125 60.6153125 -8.3828125 56.1953125 C-10.3215625 56.2365625 -12.2603125 56.2778125 -14.2578125 56.3203125 C-17.5625 56.390625 -17.5625 56.390625 -20.3828125 56.1953125 C-22.3828125 54.1953125 -22.3828125 54.1953125 -22.4296875 51.8828125 C-22.33171875 50.9959375 -22.23375 50.1090625 -22.1328125 49.1953125 C-22.04515625 48.3084375 -21.9575 47.4215625 -21.8671875 46.5078125 C-21.3828125 44.1953125 -21.3828125 44.1953125 -19.3828125 42.1953125 C-15.03886179 41.91613829 -10.73930283 42.10989112 -6.3828125 42.1953125 C-6.3828125 37.5753125 -6.3828125 32.9553125 -6.3828125 28.1953125 C-10.97265625 28.24414062 -10.97265625 28.24414062 -15.5625 28.29296875 C-18.3828125 28.1953125 -18.3828125 28.1953125 -20.3828125 27.1953125 C-20.43697438 25.59151909 -20.47567888 23.98719844 -20.5078125 22.3828125 C-20.53101563 21.48949219 -20.55421875 20.59617187 -20.578125 19.67578125 C-20.3828125 17.1953125 -20.3828125 17.1953125 -18.3828125 14.1953125 C-15.34375 13.90234375 -15.34375 13.90234375 -11.7578125 14.0078125 C-10.56929687 14.03488281 -9.38078125 14.06195313 -8.15625 14.08984375 C-7.24101562 14.12464844 -6.32578125 14.15945312 -5.3828125 14.1953125 C-5.33382813 13.35226563 -5.28484375 12.50921875 -5.234375 11.640625 C-5.15960937 10.54492188 -5.08484375 9.44921875 -5.0078125 8.3203125 C-4.93820313 7.22976562 -4.86859375 6.13921875 -4.796875 5.015625 C-4.27860212 1.48550221 -3.65524033 0.29960986 0 0 Z M7.6171875 28.1953125 C7.2871875 32.8153125 6.9571875 37.4353125 6.6171875 42.1953125 C11.5671875 42.1953125 16.5171875 42.1953125 21.6171875 42.1953125 C21.9471875 37.5753125 22.2771875 32.9553125 22.6171875 28.1953125 C17.6671875 28.1953125 12.7171875 28.1953125 7.6171875 28.1953125 Z " fill="#1A0E81" transform="translate(36.3828125,14.8046875)"/>
<path d="M0 0 C1.04712158 0.00080566 2.09424316 0.00161133 3.1730957 0.00244141 C12.99633397 0.0795932 23.19350479 0.16093068 32.3125 4.1875 C31.3125 7.1875 31.3125 7.1875 29.1875 8.3125 C23.08975494 10.16833545 16.98367989 10.34626588 10.66796875 10.35546875 C9.85814041 10.35879715 9.04831207 10.36212555 8.21394348 10.36555481 C6.50876427 10.37059198 4.80357531 10.37296413 3.09838867 10.37280273 C0.51789747 10.37498487 -2.06216258 10.39316287 -4.64257812 10.41210938 C-25.24259745 10.4841017 -25.24259745 10.4841017 -31.6875 6.1875 C-31.6875 5.5275 -31.6875 4.8675 -31.6875 4.1875 C-30.23341674 3.69558673 -28.77385172 3.21988078 -27.3125 2.75 C-26.50039063 2.48316406 -25.68828125 2.21632813 -24.8515625 1.94140625 C-16.71057874 0.00164098 -8.33002879 -0.00670209 0 0 Z " fill="#000000" transform="translate(49.6875,89.8125)"/>
<path d="M0 0 C0.90492187 0.02320313 1.80984375 0.04640625 2.7421875 0.0703125 C3.65226562 0.08835937 4.56234375 0.10640625 5.5 0.125 C6.19867188 0.14820313 6.89734375 0.17140625 7.6171875 0.1953125 C8.2771875 1.8453125 8.9371875 3.4953125 9.6171875 5.1953125 C8.2421875 6.6953125 8.2421875 6.6953125 6.6171875 8.1953125 C5.9571875 8.1953125 5.2971875 8.1953125 4.6171875 8.1953125 C4.59140625 8.78699219 4.565625 9.37867188 4.5390625 9.98828125 C4.16173557 15.24513149 3.55915757 18.37279607 -0.3828125 22.1953125 C-3.42333397 23.71557323 -6.60805689 23.47739216 -9.97265625 23.62109375 C-12.55164559 23.99230733 -12.55164559 23.99230733 -14.19921875 26.23828125 C-14.58980469 26.88410156 -14.98039062 27.52992187 -15.3828125 28.1953125 C-17.0328125 27.8653125 -18.6828125 27.5353125 -20.3828125 27.1953125 C-20.43697438 25.59151909 -20.47567888 23.98719844 -20.5078125 22.3828125 C-20.53101563 21.48949219 -20.55421875 20.59617187 -20.578125 19.67578125 C-20.3828125 17.1953125 -20.3828125 17.1953125 -18.3828125 14.1953125 C-15.34375 13.90234375 -15.34375 13.90234375 -11.7578125 14.0078125 C-10.56929687 14.03488281 -9.38078125 14.06195313 -8.15625 14.08984375 C-7.24101562 14.12464844 -6.32578125 14.15945312 -5.3828125 14.1953125 C-5.33382813 13.35226563 -5.28484375 12.50921875 -5.234375 11.640625 C-5.15960938 10.54492188 -5.08484375 9.44921875 -5.0078125 8.3203125 C-4.90339844 6.68449219 -4.90339844 6.68449219 -4.796875 5.015625 C-4.27860212 1.48550221 -3.65524033 0.29960986 0 0 Z " fill="#5C53A5" transform="translate(36.3828125,14.8046875)"/>
<path d="M0 0 C1.67542976 0.28604898 3.34385343 0.61781233 5 1 C5.05416188 2.60379341 5.09286638 4.20811406 5.125 5.8125 C5.14820312 6.70582031 5.17140625 7.59914063 5.1953125 8.51953125 C5 11 5 11 3 14 C0.1796875 14.29296875 0.1796875 14.29296875 -3.125 14.1875 C-4.76855469 14.14689453 -4.76855469 14.14689453 -6.4453125 14.10546875 C-7.28835937 14.07066406 -8.13140625 14.03585938 -9 14 C-8.97679688 14.67546875 -8.95359375 15.3509375 -8.9296875 16.046875 C-8.90261719 17.38492188 -8.90261719 17.38492188 -8.875 18.75 C-8.85179688 19.63171875 -8.82859375 20.5134375 -8.8046875 21.421875 C-9.00860498 24.1135858 -9.63448279 25.69904974 -11 28 C-12.62463842 28.05395478 -14.24978541 28.09277195 -15.875 28.125 C-16.77992187 28.14820312 -17.68484375 28.17140625 -18.6171875 28.1953125 C-21 28 -21 28 -23 26 C-22.625 23.375 -22.625 23.375 -22 21 C-20.35 20.67 -18.7 20.34 -17 20 C-17.04640625 19.32453125 -17.0928125 18.6490625 -17.140625 17.953125 C-17.42926829 10.8195122 -17.42926829 10.8195122 -15.625 7.375 C-11.54427097 5.23747527 -7.51359846 5.68990545 -3 6 C-2.690625 5.195625 -2.38125 4.39125 -2.0625 3.5625 C-1 1 -1 1 0 0 Z " fill="#160B6E" transform="translate(79,57)"/>
<path d="M0 0 C0.99 0 1.98 0 3 0 C3 3.3 3 6.6 3 10 C1.35 10.33 -0.3 10.66 -2 11 C-2.25 3.375 -2.25 3.375 0 0 Z " fill="#F0EFF6" transform="translate(37,22)"/>
</svg>
