<?xml version="1.0" encoding="UTF-8"?>
<svg version="1.1" xmlns="http://www.w3.org/2000/svg" width="100" height="100">
<path d="M0 0 C2.32421875 0.0859375 2.32421875 0.0859375 5 1 C6.89453125 3.5390625 6.89453125 3.5390625 8.8125 6.625 C11.66151248 10.53307667 11.66151248 10.53307667 15.94238281 12.38623047 C19.57411967 12.46706536 23.04367084 11.98925562 26.62109375 11.41015625 C28.29365234 11.20712891 28.29365234 11.20712891 30 11 C32 13 32 13 32.1875 16.625 C32.17920999 18.92547661 32.06638178 20.78614984 31.3828125 22.98828125 C30.69504302 25.33894543 30.42138748 26.59584257 31 29 C34.32292421 32.49432296 38.06468059 35.23316774 42 38 C43 39 43 39 43.296875 41.37109375 C43 44 43 44 41.390625 45.66015625 C40.68421875 46.12292969 39.9778125 46.58570313 39.25 47.0625 C34.68247281 50.05044207 34.68247281 50.05044207 31 54 C30.95015298 56.86766951 31.06801822 59.31492767 31.4375 62.125 C31.77065414 64.79495874 31.9494946 67.29647562 32 70 C28.51263963 72.32490691 27.41211108 71.9001761 23.45263672 71.26147461 C19.76218348 70.70281257 16.74831058 70.58639332 13 71 C10.09503893 73.6322151 8.5569147 76.08298819 6.7734375 79.55859375 C5 82 5 82 2.03125 82.69140625 C-1 82 -1 82 -3.0546875 79.59375 C-3.65539063 78.5728125 -4.25609375 77.551875 -4.875 76.5 C-7.29430274 72.59436311 -7.29430274 72.59436311 -11.0078125 70.234375 C-13.11700133 70.25091766 -14.944591 70.53087377 -17 71 C-24.71355685 72.1909621 -24.71355685 72.1909621 -28 70 C-28.29645628 65.70138394 -28.00987796 62.02020081 -27.1875 57.8125 C-26.590147 53.93672265 -26.590147 53.93672265 -29.0625 51.25 C-31.96693309 49.02532785 -34.91375174 46.96397617 -38 45 C-39 44 -39 44 -39.4375 41.75 C-38.79137566 37.68864703 -36.10950619 36.30333792 -33 34 C-31.93523438 33.29230469 -30.87046875 32.58460937 -29.7734375 31.85546875 C-26.59386324 29.1917879 -26.59386324 29.1917879 -26.703125 25.08203125 C-26.85360202 23.65513955 -27.03684654 22.23138296 -27.25 20.8125 C-27.58051846 18.19861103 -27.82466179 15.63299546 -28 13 C-27.34 12.34 -26.68 11.68 -26 11 C-24.19322206 11.21931987 -22.3867631 11.44807055 -20.59008789 11.73876953 C-17.00101924 12.27853419 -13.58936032 12.70732038 -10 12 C-6.0030843 8.90677971 -3.55845695 5.31947277 -1 1 C-0.67 0.67 -0.34 0.34 0 0 Z " fill="#FECD28" transform="translate(48,4)"/>
<path d="M0 0 C4.28364261 0.47596029 6.26023924 2.83873758 9 6 C12.19122906 10.84186478 13.02502061 15.33843754 12 21 C9.19124367 27.55376478 4.56549413 32.18280616 -2 35 C-8.79673348 35.97909394 -13.51693808 35.08541868 -19 31 C-20.8444682 29.08062954 -22.39702439 27.13730081 -24 25 C-22.824375 23.7625 -22.824375 23.7625 -21.625 22.5 C-19.45643329 19.95587145 -18.60986896 18.0265509 -18 14.75 C-17 11 -17 11 -14.8125 9.6875 C-13.884375 9.460625 -12.95625 9.23375 -12 9 C-6.18011275 6.92146884 -3.56541129 4.86192449 0 0 Z " fill="#FEA501" transform="translate(57,29)"/>
<path d="M0 0 C2.3671875 2.078125 2.3671875 2.078125 4 4 C-1.30811116 9.30811116 -11.19307156 8.24307632 -18.25048828 8.27575684 C-19.7441482 8.2742006 -21.23780826 8.26915158 -22.73144531 8.26074219 C-24.99571508 8.25002029 -27.25919173 8.26068947 -29.5234375 8.2734375 C-46.3285256 8.29278971 -46.3285256 8.29278971 -52 6 C-52.66 5.01 -53.32 4.02 -54 3 C-43.30467413 -6.33921996 -12.91070066 -3.98989583 0 0 Z " fill="#000000" transform="translate(75,92)"/>
<path d="M0 0 C0.66 0.33 1.32 0.66 2 1 C1.52436589 5.28070699 -0.80311533 7.3004085 -4 10 C-7.60714833 11.50297847 -11.17973967 12.25143548 -15 13 C-15.08636719 13.68707031 -15.17273437 14.37414063 -15.26171875 15.08203125 C-16.42367067 22.53344768 -16.42367067 22.53344768 -19.625 25.125 C-20.40875 25.41375 -21.1925 25.7025 -22 26 C-24.72824982 21.90762527 -24.6000563 18.80045038 -24 14 C-22.36478634 7.94202724 -18.87131357 4.29830101 -13.5859375 1.05859375 C-9.12902923 -0.76591099 -4.72088513 -0.63752124 0 0 Z " fill="#FFC04A" transform="translate(55,27)"/>
<path d="M0 0 C1.58935702 4.76807106 2.05509789 9.50454026 0.05859375 14.2265625 C-3.16611076 19.6246572 -7.14360961 23.54137124 -13 26 C-15.5078125 26.23046875 -15.5078125 26.23046875 -18.125 26.1875 C-18.99382813 26.18105469 -19.86265625 26.17460938 -20.7578125 26.16796875 C-23 26 -23 26 -25 25 C-24.43173786 21.70407957 -23.5921075 20.11922303 -21 18 C-18.87890625 17.4453125 -18.87890625 17.4453125 -16.5625 17.125 C-13.24372954 16.46124591 -12.13008879 16.11382769 -9.5 13.8125 C-7.79168739 10.99706182 -7.79168739 10.99706182 -7.5 7.4375 C-7 4 -7 4 -5.125 1.5625 C-3 0 -3 0 0 0 Z " fill="#DA8E01" transform="translate(68,38)"/>
<path d="M0 0 C0.33 1.32 0.66 2.64 1 4 C-6.42857143 7.28571429 -6.42857143 7.28571429 -10 8 C-10.33 6.68 -10.66 5.36 -11 4 C-7.20307814 1.17438373 -4.81430721 -0.56638908 0 0 Z " fill="#FFF9EE" transform="translate(51,32)"/>
</svg>
