<?xml version="1.0" encoding="UTF-8"?>
<svg version="1.1" xmlns="http://www.w3.org/2000/svg" width="100" height="100">
<path d="M0 0 C1.1240625 0.01289063 2.248125 0.02578125 3.40625 0.0390625 C5.09234375 0.01972656 5.09234375 0.01972656 6.8125 0 C10.7894808 0.85364487 11.62840676 2.40080447 13.90625 5.6640625 C17.02287908 7.47385391 17.02287908 7.47385391 19.90625 8.6640625 C19.90625 9.6540625 19.90625 10.6440625 19.90625 11.6640625 C20.63585937 11.55578125 21.36546875 11.4475 22.1171875 11.3359375 C24.90625 11.6640625 24.90625 11.6640625 27.2578125 13.9296875 C28.00804688 14.91453125 28.75828125 15.899375 29.53125 16.9140625 C30.28664063 17.88859375 31.04203125 18.863125 31.8203125 19.8671875 C32.50867188 20.79015625 33.19703125 21.713125 33.90625 22.6640625 C34.43677979 23.17662598 34.96730957 23.68918945 35.51391602 24.21728516 C37.7541176 28.15403778 37.31332973 32.16032117 37.26953125 36.609375 C37.27027901 38.05870926 37.27027901 38.05870926 37.27104187 39.537323 C37.26870405 41.57649801 37.25899277 43.61567605 37.24243164 45.65478516 C37.21878492 48.78444032 37.22187965 51.91324664 37.22851562 55.04296875 C37.22294063 57.0234426 37.21583188 59.00391286 37.20703125 60.984375 C37.20794266 61.9239505 37.20885406 62.863526 37.20979309 63.83157349 C37.20026108 64.69942474 37.19072906 65.567276 37.1809082 66.46142578 C37.17399712 67.60914963 37.17399712 67.60914963 37.16694641 68.78005981 C36.90625 70.6640625 36.90625 70.6640625 34.90625 72.6640625 C32.35736876 72.86237766 29.91714779 72.93684512 27.3671875 72.92285156 C26.58982239 72.9263562 25.81245728 72.92986084 25.01153564 72.93347168 C22.43468368 72.94229456 19.8581049 72.93643795 17.28125 72.9296875 C15.49527941 72.93103399 13.70930918 72.93297439 11.92333984 72.93548584 C8.17737341 72.93843785 4.43150225 72.93413699 0.68554688 72.92480469 C-4.12337833 72.91341009 -8.93208031 72.91996916 -13.74099731 72.93194962 C-17.42978608 72.93916614 -21.11852167 72.93688125 -24.80731201 72.93169403 C-26.58079047 72.93035696 -28.35427371 72.93200726 -30.12774658 72.93665314 C-32.60352425 72.94171499 -35.0789371 72.93401313 -37.5546875 72.92285156 C-38.29241394 72.92690002 -39.03014038 72.93094849 -39.79022217 72.93511963 C-44.86522122 72.89259128 -44.86522122 72.89259128 -47.09375 70.6640625 C-47.40827942 68.84735107 -47.40827942 68.84735107 -47.49536133 66.62011719 C-47.53071487 65.78454285 -47.56606842 64.94896851 -47.60249329 64.08807373 C-47.70549935 60.2199527 -47.79525924 56.35255215 -47.84887695 52.48339844 C-47.88673491 50.45807814 -47.94777681 48.43304136 -48.03344727 46.40917969 C-48.53777416 34.3961328 -48.33096872 25.81524239 -40.05342102 16.57147217 C-38.76961983 15.23341656 -37.43575953 13.94372994 -36.09375 12.6640625 C-35.76375 12.3340625 -35.43375 12.0040625 -35.09375 11.6640625 C-33.42757885 11.62342418 -31.75986905 11.6213415 -30.09375 11.6640625 C-29.97 11.0246875 -29.84625 10.3853125 -29.71875 9.7265625 C-29.5125 9.0459375 -29.30625 8.3653125 -29.09375 7.6640625 C-26.73781443 6.48609471 -25.28880608 6.53925874 -22.6640625 6.5234375 C-21.78621094 6.50410156 -20.90835938 6.48476563 -20.00390625 6.46484375 C-18.15516532 6.43113599 -16.30607759 6.41277159 -14.45703125 6.41015625 C-11.9107638 6.33932304 -9.57898421 6.22858023 -7.09375 5.6640625 C-2.55107863 0.54758001 -2.55107863 0.54758001 0 0 Z " fill="#5B5B5B" transform="translate(55.09375,13.3359375)"/>
<path d="M0 0 C1.1240625 0.01289063 2.248125 0.02578125 3.40625 0.0390625 C5.09234375 0.01972656 5.09234375 0.01972656 6.8125 0 C10.7894808 0.85364487 11.62840676 2.40080447 13.90625 5.6640625 C17.02287908 7.47385391 17.02287908 7.47385391 19.90625 8.6640625 C19.90625 9.6540625 19.90625 10.6440625 19.90625 11.6640625 C20.63585937 11.55578125 21.36546875 11.4475 22.1171875 11.3359375 C24.90625 11.6640625 24.90625 11.6640625 27.2578125 13.9296875 C28.00804688 14.91453125 28.75828125 15.899375 29.53125 16.9140625 C30.28664063 17.88859375 31.04203125 18.863125 31.8203125 19.8671875 C32.50867188 20.79015625 33.19703125 21.713125 33.90625 22.6640625 C34.49148437 23.38078125 35.07671875 24.0975 35.6796875 24.8359375 C36.90625 26.6640625 36.90625 26.6640625 36.90625 29.6640625 C20.1055098 30.88826825 3.30333882 30.78382617 -13.52990723 30.73272705 C-17.32527093 30.72233471 -21.12064168 30.71789601 -24.91601562 30.71289062 C-32.30861249 30.70229672 -39.70117528 30.68532312 -47.09375 30.6640625 C-46.32126349 25.73316356 -44.17888347 22.72763026 -41.09375 18.9140625 C-40.6296875 18.32496094 -40.165625 17.73585938 -39.6875 17.12890625 C-36.39457418 12.96488668 -36.39457418 12.96488668 -35.09375 11.6640625 C-33.42757885 11.62342418 -31.75986905 11.6213415 -30.09375 11.6640625 C-29.97 11.0246875 -29.84625 10.3853125 -29.71875 9.7265625 C-29.5125 9.0459375 -29.30625 8.3653125 -29.09375 7.6640625 C-26.73781443 6.48609471 -25.28880608 6.53925874 -22.6640625 6.5234375 C-21.78621094 6.50410156 -20.90835938 6.48476563 -20.00390625 6.46484375 C-18.15516532 6.43113599 -16.30607759 6.41277159 -14.45703125 6.41015625 C-11.9107638 6.33932304 -9.57898421 6.22858023 -7.09375 5.6640625 C-2.55107863 0.54758001 -2.55107863 0.54758001 0 0 Z " fill="#FDE77E" transform="translate(55.09375,13.3359375)"/>
<path d="M0 0 C0.495 2.475 0.495 2.475 1 5 C1.72574219 5.03222656 2.45148438 5.06445312 3.19921875 5.09765625 C7.1626864 6.37458934 8.65742374 9.08476073 10.8125 12.4375 C11.42254883 13.3356543 11.42254883 13.3356543 12.04492188 14.25195312 C15 18.68705357 15 18.68705357 15 21 C13.02 21 11.04 21 9 21 C8.87625 19.865625 8.7525 18.73125 8.625 17.5625 C8.41875 16.386875 8.2125 15.21125 8 14 C5.46813122 12.73406561 3.65025209 12.84081806 0.81591797 12.79467773 C-0.26505157 12.77473251 -1.34602112 12.75478729 -2.45974731 12.73423767 C-3.63060883 12.71752518 -4.80147034 12.70081268 -6.0078125 12.68359375 C-7.20356903 12.66281265 -8.39932556 12.64203156 -9.63131714 12.62062073 C-13.46248464 12.55507711 -17.29372238 12.49621782 -21.125 12.4375 C-23.71745527 12.39431937 -26.30990336 12.35070523 -28.90234375 12.30664062 C-35.26815427 12.19939081 -41.63403513 12.0976334 -48 12 C-46.25 7.125 -46.25 7.125 -44 6 C-41.9692523 5.84588894 -39.93393579 5.75017547 -37.8984375 5.68359375 C-36.08085938 5.62075195 -36.08085938 5.62075195 -34.2265625 5.55664062 C-32.32003906 5.49766602 -32.32003906 5.49766602 -30.375 5.4375 C-28.456875 5.37272461 -28.456875 5.37272461 -26.5 5.30664062 C-23.33344652 5.20030114 -20.16681247 5.09827167 -17 5 C-17.99 3.35 -18.98 1.7 -20 0 C-17.60458732 -0.19585135 -15.20907226 -0.38192107 -12.8125 -0.5625 C-11.80219727 -0.64661133 -11.80219727 -0.64661133 -10.77148438 -0.73242188 C-6.982869 -1.00963763 -3.68172206 -0.96511161 0 0 Z " fill="#EFC34D" transform="translate(74,21)"/>
<path d="M0 0 C9.24 0 18.48 0 28 0 C28 8 28 8 26 15 C18.08 15 10.16 15 2 15 C0 8 0 8 0 0 Z " fill="#C9C9C9" transform="translate(36,56)"/>
<path d="M0 0 C1.2065625 0.0309375 1.2065625 0.0309375 2.4375 0.0625 C2.4375 0.7225 2.4375 1.3825 2.4375 2.0625 C1.4475 2.7225 0.4575 3.3825 -0.5625 4.0625 C-0.7275 4.7225 -0.8925 5.3825 -1.0625 6.0625 C-1.5625 8.0625 -1.5625 8.0625 -4.5625 10.0625 C-5.29593428 13.12806598 -5.29593428 13.12806598 -5.5625 16.0625 C-4.34220596 16.05916908 -4.34220596 16.05916908 -3.09725952 16.05577087 C4.58269852 16.03570451 12.26264378 16.02049353 19.94262123 16.01068783 C23.8906326 16.00547711 27.83862223 15.99841242 31.78662109 15.98706055 C35.59915759 15.97616721 39.41167323 15.97020952 43.22422409 15.96762276 C44.67621565 15.96578011 46.12820611 15.96218192 47.58018875 15.95676994 C49.61940191 15.94947389 51.65852972 15.94851266 53.69775391 15.94897461 C54.85691315 15.946754 56.01607239 15.94453339 57.21035767 15.94224548 C60.36947262 16.05996506 63.33553596 16.46959137 66.4375 17.0625 C64.86538582 14.59632088 63.28072152 12.13998706 61.6875 9.6875 C61.2440625 8.98882812 60.800625 8.29015625 60.34375 7.5703125 C59.90546875 6.9 59.4671875 6.2296875 59.015625 5.5390625 C58.61762695 4.92111816 58.21962891 4.30317383 57.80957031 3.66650391 C56.21098403 1.79769396 54.68249944 1.01808526 52.4375 0.0625 C54.6484375 -0.265625 54.6484375 -0.265625 57.4375 0.0625 C59.7890625 2.328125 59.7890625 2.328125 62.0625 5.3125 C62.81789063 6.28703125 63.57328125 7.2615625 64.3515625 8.265625 C65.03992188 9.18859375 65.72828125 10.1115625 66.4375 11.0625 C67.31535156 12.13757813 67.31535156 12.13757813 68.2109375 13.234375 C69.4375 15.0625 69.4375 15.0625 69.4375 18.0625 C52.6367598 19.28670575 35.83458882 19.18226367 19.00134277 19.13116455 C15.20597907 19.12077221 11.41060832 19.11633351 7.61523438 19.11132812 C0.22263751 19.10073422 -7.16992528 19.08376062 -14.5625 19.0625 C-13.79001349 14.13160106 -11.64763347 11.12606776 -8.5625 7.3125 C-7.86640625 6.42884766 -7.86640625 6.42884766 -7.15625 5.52734375 C-2.83997842 0.06926777 -2.83997842 0.06926777 0 0 Z " fill="#B3B0A2" transform="translate(22.5625,24.9375)"/>
<path d="M0 0 C1.1240625 0.01289063 2.248125 0.02578125 3.40625 0.0390625 C5.09234375 0.01972656 5.09234375 0.01972656 6.8125 0 C9.90625 0.6640625 9.90625 0.6640625 12.3125 3.078125 C13.90625 5.6640625 13.90625 5.6640625 13.90625 7.6640625 C9.28625 7.9940625 4.66625 8.3240625 -0.09375 8.6640625 C0.89625 10.3140625 1.88625 11.9640625 2.90625 13.6640625 C-3.69375 13.6640625 -10.29375 13.6640625 -17.09375 13.6640625 C-14.09375 8.6640625 -14.09375 8.6640625 -12.09375 6.6640625 C-11.31 6.5609375 -10.52625 6.4578125 -9.71875 6.3515625 C-6.86035491 5.90502746 -6.86035491 5.90502746 -5.3359375 3.16015625 C-3.09375 0.6640625 -3.09375 0.6640625 0 0 Z " fill="#76D128" transform="translate(55.09375,13.3359375)"/>
<path d="M0 0 C2.19921875 0.09765625 2.19921875 0.09765625 5 1 C6.82901435 3.13724253 8.307344 5.09586795 9.8125 7.4375 C10.42254883 8.3356543 10.42254883 8.3356543 11.04492188 9.25195312 C14 13.68705357 14 13.68705357 14 16 C12.02 16 10.04 16 8 16 C7.87625 14.865625 7.7525 13.73125 7.625 12.5625 C7.41875 11.386875 7.2125 10.21125 7 9 C4.46813122 7.73406561 2.65025209 7.84081806 -0.18408203 7.79467773 C-1.26505157 7.77473251 -2.34602112 7.75478729 -3.45974731 7.73423767 C-4.63060883 7.71752518 -5.80147034 7.70081268 -7.0078125 7.68359375 C-8.20356903 7.66281265 -9.39932556 7.64203156 -10.63131714 7.62062073 C-14.46248464 7.55507711 -18.29372238 7.49621782 -22.125 7.4375 C-24.71745527 7.39431937 -27.30990336 7.35070523 -29.90234375 7.30664062 C-36.26815427 7.19939081 -42.63403513 7.0976334 -49 7 C-47.25 2.125 -47.25 2.125 -45 1 C-43.19156337 0.85283458 -41.37668434 0.7789113 -39.5625 0.75 C-38.11037109 0.71132813 -38.11037109 0.71132813 -36.62890625 0.671875 C-34 1 -34 1 -32.81884766 2.48852539 C-29.97558645 4.85129454 -26.80927849 4.48065867 -23.26953125 4.51171875 C-22.51911057 4.52966995 -21.76868988 4.54762115 -20.99552917 4.56611633 C-18.6012431 4.62025187 -16.20715669 4.65412416 -13.8125 4.6875 C-12.18812323 4.72067036 -10.56377283 4.75515976 -8.93945312 4.79101562 C-4.95977944 4.8759797 -0.9801653 4.94277465 3 5 C2.2236068 1.9254644 2.2236068 1.9254644 0 0 Z " fill="#E7AE39" transform="translate(75,26)"/>
<path d="M0 0 C0.70189453 0.00902344 1.40378906 0.01804687 2.12695312 0.02734375 C3.85561525 0.05086296 5.58410145 0.08673287 7.3125 0.125 C4.67001295 4.96955959 4.67001295 4.96955959 2.3125 7.125 C-1.03267639 8.02385656 -4.23401386 8.17194059 -7.6875 8.125 C-8.3475 9.775 -9.0075 11.425 -9.6875 13.125 C-3.0875 13.125 3.5125 13.125 10.3125 13.125 C10.3125 13.455 10.3125 13.785 10.3125 14.125 C1.4025 14.125 -7.5075 14.125 -16.6875 14.125 C-16.0275 13.795 -15.3675 13.465 -14.6875 13.125 C-14.03194881 10.59766765 -14.03194881 10.59766765 -13.6875 8.125 C-12.6975 7.795 -11.7075 7.465 -10.6875 7.125 C-10.7803125 5.949375 -10.7803125 5.949375 -10.875 4.75 C-10.813125 3.88375 -10.75125 3.0175 -10.6875 2.125 C-7.00662647 -0.32891569 -4.24394412 -0.10302759 0 0 Z " fill="#EBB842" transform="translate(35.6875,19.875)"/>
<path d="M0 0 C1.20398438 0.00193359 2.40796875 0.00386719 3.6484375 0.00585938 C5.535625 0.02422852 5.535625 0.02422852 7.4609375 0.04296875 C8.72679688 0.04361328 9.99265625 0.04425781 11.296875 0.04492188 C20.69577156 0.09030281 20.69577156 0.09030281 21.8359375 1.23046875 C21.93562422 3.33268568 21.96561953 5.43839479 21.9609375 7.54296875 C21.96480469 9.26966797 21.96480469 9.26966797 21.96875 11.03125 C21.8359375 14.23046875 21.8359375 14.23046875 20.8359375 18.23046875 C11.5959375 18.23046875 2.3559375 18.23046875 -7.1640625 18.23046875 C-7.8240625 12.95046875 -8.4840625 7.67046875 -9.1640625 2.23046875 C-5.63960859 -0.11916719 -4.16895856 -0.01544507 0 0 Z M-7.1640625 2.23046875 C-7.53035734 10.16178847 -7.53035734 10.16178847 -5.1640625 17.23046875 C2.7559375 17.23046875 10.6759375 17.23046875 18.8359375 17.23046875 C21.20223234 10.16178847 21.20223234 10.16178847 20.8359375 2.23046875 C11.5959375 2.23046875 2.3559375 2.23046875 -7.1640625 2.23046875 Z " fill="#7B7B7B" transform="translate(43.1640625,53.76953125)"/>
<path d="M0 0 C7.92 0 15.84 0 24 0 C24 1.65 24 3.3 24 5 C16.08 5 8.16 5 0 5 C0 3.35 0 1.7 0 0 Z " fill="#E1E1E1" transform="translate(38,58)"/>
<path d="M0 0 C1 1 1 1 1.0625 3.5625 C1.041875 4.366875 1.02125 5.17125 1 6 C-1.75236274 6.16225719 -4.49517476 6.2809328 -7.25 6.375 C-8.41595703 6.45041016 -8.41595703 6.45041016 -9.60546875 6.52734375 C-11.88548296 6.58580565 -13.78864035 6.56911642 -16 6 C-18.546875 2.9765625 -18.546875 2.9765625 -20 0 C-17.60458732 -0.19585135 -15.20907226 -0.38192107 -12.8125 -0.5625 C-11.80219727 -0.64661133 -11.80219727 -0.64661133 -10.77148438 -0.73242188 C-6.99205217 -1.00896569 -3.65929 -1.04058906 0 0 Z " fill="#E5AA36" transform="translate(74,21)"/>
<path d="M0 0 C1.2065625 0.0309375 1.2065625 0.0309375 2.4375 0.0625 C2.4375 0.7225 2.4375 1.3825 2.4375 2.0625 C1.4475 2.7225 0.4575 3.3825 -0.5625 4.0625 C-0.7275 4.7225 -0.8925 5.3825 -1.0625 6.0625 C-1.5625 8.0625 -1.5625 8.0625 -4.5625 10.0625 C-5.29856499 13.63019552 -5.29856499 13.63019552 -5.5625 17.0625 C-8.5325 17.0625 -11.5025 17.0625 -14.5625 17.0625 C-12.69122786 13.31995572 -10.52093555 10.17650959 -8 6.875 C-7.58814453 6.32908203 -7.17628906 5.78316406 -6.75195312 5.22070312 C-2.85189183 0.06955834 -2.85189183 0.06955834 0 0 Z " fill="#858480" transform="translate(22.5625,24.9375)"/>
<path d="M0 0 C7.92868943 0.58455485 7.92868943 0.58455485 11.2265625 3.65234375 C12.5390625 6.15234375 12.5390625 6.15234375 12.5390625 7.15234375 C5.9390625 7.15234375 -0.6609375 7.15234375 -7.4609375 7.15234375 C-3.29179803 0.20377797 -3.29179803 0.20377797 0 0 Z " fill="#4680EA" transform="translate(45.4609375,19.84765625)"/>
<path d="M0 0 C7.92 0 15.84 0 24 0 C24 1.32 24 2.64 24 4 C16.08 4 8.16 4 0 4 C0 2.68 0 1.36 0 0 Z " fill="#AEAEAE" transform="translate(38,67)"/>
<path d="M0 0 C2.6875 1.875 2.6875 1.875 4 4 C4 4.66 4 5.32 4 6 C-2.27 6 -8.54 6 -15 6 C-11.97095799 -1.57260502 -7.57311018 -0.83897085 0 0 Z " fill="#E14A1E" transform="translate(41,27)"/>
<path d="M0 0 C9.24 0 18.48 0 28 0 C28 8 28 8 26 11 C26 8.03 26 5.06 26 2 C18.08 2 10.16 2 2 2 C2 4.97 2 7.94 2 11 C0 8 0 8 0 0 Z " fill="#B3B3B3" transform="translate(36,56)"/>
<path d="M0 0 C1.4540625 0.0309375 1.4540625 0.0309375 2.9375 0.0625 C1.9475 2.0425 0.9575 4.0225 -0.0625 6.0625 C6.5375 6.0625 13.1375 6.0625 19.9375 6.0625 C19.9375 6.3925 19.9375 6.7225 19.9375 7.0625 C11.0275 7.0625 2.1175 7.0625 -7.0625 7.0625 C-6.4025 6.7325 -5.7425 6.4025 -5.0625 6.0625 C-4.68940101 4.40428227 -4.35549023 2.73672986 -4.0625 1.0625 C-3.0625 0.0625 -3.0625 0.0625 0 0 Z " fill="#E0A448" transform="translate(26.0625,26.9375)"/>
<path d="M0 0 C2.19921875 0.09765625 2.19921875 0.09765625 5 1 C6.82901435 3.13724253 8.307344 5.09586795 9.8125 7.4375 C10.42254883 8.3356543 10.42254883 8.3356543 11.04492188 9.25195312 C14 13.68705357 14 13.68705357 14 16 C12.02 16 10.04 16 8 16 C7.896875 14.88625 7.79375 13.7725 7.6875 12.625 C7.460625 11.42875 7.23375 10.2325 7 9 C6.01 8.34 5.02 7.68 4 7 C3.29788106 5.34795544 2.63028587 3.68076231 2 2 C1.34 1.34 0.68 0.68 0 0 Z " fill="#41403A" transform="translate(75,26)"/>
<path d="M0 0 C2.62890625 -0.27734375 2.62890625 -0.27734375 5.5625 0.0625 C6.53316406 0.15660156 7.50382812 0.25070313 8.50390625 0.34765625 C11 1 11 1 13 4 C7.72 4 2.44 4 -3 4 C-2.01 2.68 -1.02 1.36 0 0 Z " fill="#5DABF1" transform="translate(43,20)"/>
<path d="M0 0 C0.70189453 0.01353516 1.40378906 0.02707031 2.12695312 0.04101562 C3.85579829 0.07629818 5.58424765 0.13010417 7.3125 0.1875 C6.3225 1.6725 6.3225 1.6725 5.3125 3.1875 C2.5239711 3.40857787 -0.03403181 3.46857535 -2.8125 3.375 C-3.56660156 3.36146484 -4.32070313 3.34792969 -5.09765625 3.33398438 C-6.96124127 3.29859985 -8.82445978 3.24479167 -10.6875 3.1875 C-7.97885416 -0.76650025 -4.33266512 -0.15777212 0 0 Z " fill="#F0CA54" transform="translate(35.6875,19.8125)"/>
<path d="M0 0 C2.2109375 -0.328125 2.2109375 -0.328125 5 0 C7.3515625 2.265625 7.3515625 2.265625 9.625 5.25 C10.38039063 6.22453125 11.13578125 7.1990625 11.9140625 8.203125 C12.60242188 9.12609375 13.29078125 10.0490625 14 11 C14.58523437 11.73734375 15.17046875 12.4746875 15.7734375 13.234375 C17 15 17 15 17 17 C16.01 17 15.02 17 14 17 C12.23060012 14.57187529 10.63028146 12.17817754 9.0625 9.625 C8.20820827 8.23661584 7.34519226 6.85355409 6.47265625 5.4765625 C6.09375244 4.85861816 5.71484863 4.24067383 5.32446289 3.60400391 C3.75796598 1.70688231 2.24551588 0.95239104 0 0 Z " fill="#919191" transform="translate(75,25)"/>
<path d="M0 0 C1.32 0.33 2.64 0.66 4 1 C3.01 1.66 2.02 2.32 1 3 C0.7834375 3.928125 0.7834375 3.928125 0.5625 4.875 C-0.1956096 7.7389696 -1.93038792 8.93038792 -4 11 C-4.7872678 13.1381966 -4.7872678 13.1381966 -5 15 C-6.32 15 -7.64 15 -9 15 C-7.61219205 11.10993227 -5.7847773 8.03441292 -3.375 4.6875 C-2.74335938 3.80449219 -2.11171875 2.92148437 -1.4609375 2.01171875 C-0.97882812 1.34785156 -0.49671875 0.68398438 0 0 Z " fill="#353431" transform="translate(21,26)"/>
<path d="M0 0 C6.27 0 12.54 0 19 0 C19.33 0.99 19.66 1.98 20 3 C13.07 3 6.14 3 -1 3 C-0.67 2.01 -0.34 1.02 0 0 Z " fill="#78C422" transform="translate(49,18)"/>
<path d="M0 0 C0.33 0.66 0.66 1.32 1 2 C-5.6 2 -12.2 2 -19 2 C-19.33 1.34 -19.66 0.68 -20 0 C-17.60458732 -0.19585135 -15.20907226 -0.38192107 -12.8125 -0.5625 C-11.80219727 -0.64661133 -11.80219727 -0.64661133 -10.77148438 -0.73242188 C-7.00814637 -1.00778807 -3.62384135 -1.13970152 0 0 Z " fill="#F1CA52" transform="translate(74,21)"/>
<path d="M0 0 C1.4540625 0.0309375 1.4540625 0.0309375 2.9375 0.0625 C1.75 2.5625 1.75 2.5625 -0.0625 5.0625 C-2.75 5.375 -2.75 5.375 -5.0625 5.0625 C-3.9375 0.08035714 -3.9375 0.08035714 0 0 Z " fill="#EABC48" transform="translate(26.0625,26.9375)"/>
<path d="M0 0 C4.62 0 9.24 0 14 0 C13.67 0.66 13.34 1.32 13 2 C11.07421875 2.44921875 11.07421875 2.44921875 8.6875 2.6875 C7.51767578 2.81705078 7.51767578 2.81705078 6.32421875 2.94921875 C4.00712895 2.99984424 2.20712606 2.67173402 0 2 C0 1.34 0 0.68 0 0 Z " fill="#DE9A2E" transform="translate(25,25)"/>
<path d="M0 0 C0.721875 0.12375 1.44375 0.2475 2.1875 0.375 C1.56875 0.4575 0.95 0.54 0.3125 0.625 C-1.9429373 1.16071015 -1.9429373 1.16071015 -2.8125 3.125 C-3.1425 3.8675 -3.4725 4.61 -3.8125 5.375 C-5.1175581 7.06389872 -6.44610658 8.7353279 -7.8125 10.375 C-7.8125 6.375 -7.8125 6.375 -5.625 3.125 C-2.8125 0.375 -2.8125 0.375 0 0 Z " fill="#909090" transform="translate(22.8125,24.625)"/>
</svg>
