<?xml version="1.0" encoding="UTF-8"?>
<svg version="1.1" xmlns="http://www.w3.org/2000/svg" width="100" height="100">
<path d="M0 0 C1.703125 0.8125 1.703125 0.8125 3.703125 2.875 C8.40068466 5.90884061 13.25892912 5.12508541 18.703125 4.8125 C19.0125 4.173125 19.321875 3.53375 19.640625 2.875 C20.703125 0.8125 20.703125 0.8125 21.703125 -0.1875 C27.62181414 0.12957263 33.96868064 0.97035668 38.703125 4.8125 C39.31529103 7.12904194 39.32809157 9.16720627 39.33203125 11.55859375 C39.82228227 14.53622362 40.94814411 15.38224807 43.265625 17.25 C43.90628906 17.70246094 44.54695313 18.15492187 45.20703125 18.62109375 C45.94759766 19.21083984 45.94759766 19.21083984 46.703125 19.8125 C46.703125 20.4725 46.703125 21.1325 46.703125 21.8125 C49.673125 21.4825 52.643125 21.1525 55.703125 20.8125 C56.73825747 22.8887657 57.75578711 24.97381479 58.765625 27.0625 C59.33410156 28.22265625 59.90257813 29.3828125 60.48828125 30.578125 C61.703125 33.8125 61.703125 33.8125 61.515625 36.109375 C60.703125 37.8125 60.703125 37.8125 58.640625 39.8125 C55.60678439 44.51005966 56.39053959 49.36830412 56.703125 54.8125 C57.3425 55.121875 57.981875 55.43125 58.640625 55.75 C60.703125 56.8125 60.703125 56.8125 61.703125 57.8125 C61.38605237 63.73118914 60.54526832 70.07805564 56.703125 74.8125 C54.38658306 75.42466603 52.34841873 75.43746657 49.95703125 75.44140625 C46.97940138 75.93165727 46.13337693 77.05751911 44.265625 79.375 C43.81316406 80.01566406 43.36070313 80.65632813 42.89453125 81.31640625 C42.50136719 81.81011719 42.10820313 82.30382812 41.703125 82.8125 C41.043125 82.8125 40.383125 82.8125 39.703125 82.8125 C40.198125 87.2675 40.198125 87.2675 40.703125 91.8125 C38.6268593 92.84763247 36.54181021 93.86516211 34.453125 94.875 C33.29296875 95.44347656 32.1328125 96.01195313 30.9375 96.59765625 C27.703125 97.8125 27.703125 97.8125 25.40625 97.625 C23.703125 96.8125 23.703125 96.8125 21.703125 94.75 C17.00556534 91.71615939 12.14732088 92.49991459 6.703125 92.8125 C6.39375 93.451875 6.084375 94.09125 5.765625 94.75 C4.703125 96.8125 4.703125 96.8125 3.703125 97.8125 C-2.21556414 97.49542737 -8.56243064 96.65464332 -13.296875 92.8125 C-13.90904103 90.49595806 -13.92184157 88.45779373 -13.92578125 86.06640625 C-14.41603227 83.08877638 -15.54189411 82.24275193 -17.859375 80.375 C-18.50003906 79.92253906 -19.14070313 79.47007813 -19.80078125 79.00390625 C-20.29449219 78.61074219 -20.78820313 78.21757813 -21.296875 77.8125 C-21.296875 77.1525 -21.296875 76.4925 -21.296875 75.8125 C-25.751875 76.3075 -25.751875 76.3075 -30.296875 76.8125 C-31.33200747 74.7362343 -32.34953711 72.65118521 -33.359375 70.5625 C-33.92785156 69.40234375 -34.49632812 68.2421875 -35.08203125 67.046875 C-36.296875 63.8125 -36.296875 63.8125 -36.109375 61.515625 C-35.296875 59.8125 -35.296875 59.8125 -33.234375 57.8125 C-30.20053439 53.11494034 -30.98428959 48.25669588 -31.296875 42.8125 C-31.93625 42.503125 -32.575625 42.19375 -33.234375 41.875 C-35.296875 40.8125 -35.296875 40.8125 -36.296875 39.8125 C-35.97980237 33.89381086 -35.13901832 27.54694436 -31.296875 22.8125 C-28.98033306 22.20033397 -26.94216873 22.18753343 -24.55078125 22.18359375 C-21.57315138 21.69334273 -20.72712693 20.56748089 -18.859375 18.25 C-18.40691406 17.60933594 -17.95445313 16.96867187 -17.48828125 16.30859375 C-17.09511719 15.81488281 -16.70195312 15.32117187 -16.296875 14.8125 C-15.636875 14.8125 -14.976875 14.8125 -14.296875 14.8125 C-14.626875 11.8425 -14.956875 8.8725 -15.296875 5.8125 C-13.2206093 4.77736753 -11.13556021 3.75983789 -9.046875 2.75 C-7.88671875 2.18152344 -6.7265625 1.61304688 -5.53125 1.02734375 C-2.296875 -0.1875 -2.296875 -0.1875 0 0 Z M-13.015625 27.8828125 C-18.64501906 35.80259727 -21.58494817 44.04949086 -20.296875 53.8125 C-17.9252668 63.79301786 -13.04430226 71.74629956 -4.296875 77.25 C3.71852475 81.60777004 11.50969472 83.27131926 20.47265625 81.16015625 C30.525668 77.88413983 37.48500126 72.53641735 42.55078125 63.21875 C46.50398718 54.96391999 46.96562245 46.91898358 44.140625 38.25 C40.1616257 28.43421079 34.22570897 22.37282836 24.703125 17.8125 C11.33232944 12.55968746 -3.87649813 16.87431877 -13.015625 27.8828125 Z " fill="#5DC8A1" transform="translate(37.296875,1.1875)"/>
<path d="M0 0 C3.77433843 0.66348238 6.18472309 1.28899261 9 4 C9 4.99 9 5.98 9 7 C10.134375 6.484375 11.26875 5.96875 12.4375 5.4375 C18.47393718 3.15373247 23.92459204 4.41273125 30 6 C30.33 4.35 30.66 2.7 31 1 C33.64 0.67 36.28 0.34 39 0 C40.66711778 2.98863008 42.30457701 5.99257021 43.9375 9 C44.64036133 10.25876953 44.64036133 10.25876953 45.35742188 11.54296875 C48.20082512 16.82065248 49.67363715 21.00047869 50 27 C47.36 27.99 44.72 28.98 42 30 C42.061875 30.94875 42.12375 31.8975 42.1875 32.875 C42.0946875 34.421875 42.0946875 34.421875 42 36 C39 38 39 38 36 38 C36 38.66 36 39.32 36 40 C35.195625 40.28875 34.39125 40.5775 33.5625 40.875 C30.8673532 41.73262568 30.8673532 41.73262568 30 44 C29.38125 44.144375 28.7625 44.28875 28.125 44.4375 C25.89368383 44.81110749 25.89368383 44.81110749 24.625 46.625 C24.08875 47.07875 23.5525 47.5325 23 48 C19.875 47.625 19.875 47.625 17 47 C16.67 47.33 16.34 47.66 16 48 C14.00041636 48.04080783 11.99954746 48.04254356 10 48 C9.67 47.01 9.34 46.02 9 45 C7.67851173 44.62243192 6.34164079 44.2981424 5 44 C2.25 42.5625 2.25 42.5625 0 41 C0 40.34 0 39.68 0 39 C-1.65 38.34 -3.3 37.68 -5 37 C-4.67 34.69 -4.34 32.38 -4 30 C-4.763125 29.87625 -5.52625 29.7525 -6.3125 29.625 C-9 29 -9 29 -12 27 C-11.63701711 20.21501221 -8.78845919 15.37333935 -5.4375 9.5625 C-4.91736328 8.64017578 -4.39722656 7.71785156 -3.86132812 6.76757812 C-2.58401304 4.50591012 -1.29680323 2.25053176 0 0 Z " fill="#2F466A" transform="translate(31,26)"/>
<path d="M0 0 C1.703125 0.8125 1.703125 0.8125 3.703125 2.875 C8.40068466 5.90884061 13.25892912 5.12508541 18.703125 4.8125 C19.0125 4.173125 19.321875 3.53375 19.640625 2.875 C20.703125 0.8125 20.703125 0.8125 21.703125 -0.1875 C27.62181414 0.12957263 33.96868064 0.97035668 38.703125 4.8125 C39.31529103 7.12904194 39.32809157 9.16720627 39.33203125 11.55859375 C39.82228227 14.53622362 40.94814411 15.38224807 43.265625 17.25 C43.90628906 17.70246094 44.54695313 18.15492187 45.20703125 18.62109375 C45.94759766 19.21083984 45.94759766 19.21083984 46.703125 19.8125 C46.703125 20.4725 46.703125 21.1325 46.703125 21.8125 C49.673125 21.4825 52.643125 21.1525 55.703125 20.8125 C56.73825747 22.8887657 57.75578711 24.97381479 58.765625 27.0625 C59.33410156 28.22265625 59.90257813 29.3828125 60.48828125 30.578125 C61.703125 33.8125 61.703125 33.8125 61.515625 36.109375 C60.703125 37.8125 60.703125 37.8125 58.640625 39.8125 C55.60678439 44.51005966 56.39053959 49.36830412 56.703125 54.8125 C57.3425 55.121875 57.981875 55.43125 58.640625 55.75 C60.703125 56.8125 60.703125 56.8125 61.703125 57.8125 C61.38605237 63.73118914 60.54526832 70.07805564 56.703125 74.8125 C54.38658306 75.42466603 52.34841873 75.43746657 49.95703125 75.44140625 C46.97940138 75.93165727 46.13337693 77.05751911 44.265625 79.375 C43.81316406 80.01566406 43.36070313 80.65632813 42.89453125 81.31640625 C42.50136719 81.81011719 42.10820313 82.30382812 41.703125 82.8125 C41.043125 82.8125 40.383125 82.8125 39.703125 82.8125 C40.198125 87.2675 40.198125 87.2675 40.703125 91.8125 C38.6268593 92.84763247 36.54181021 93.86516211 34.453125 94.875 C33.29296875 95.44347656 32.1328125 96.01195313 30.9375 96.59765625 C27.703125 97.8125 27.703125 97.8125 25.40625 97.625 C23.703125 96.8125 23.703125 96.8125 21.703125 94.75 C17.00556534 91.71615939 12.14732088 92.49991459 6.703125 92.8125 C6.39375 93.451875 6.084375 94.09125 5.765625 94.75 C4.703125 96.8125 4.703125 96.8125 3.703125 97.8125 C-2.21556414 97.49542737 -8.56243064 96.65464332 -13.296875 92.8125 C-13.90904103 90.49595806 -13.92184157 88.45779373 -13.92578125 86.06640625 C-14.41603227 83.08877638 -15.54189411 82.24275193 -17.859375 80.375 C-18.50003906 79.92253906 -19.14070313 79.47007813 -19.80078125 79.00390625 C-20.29449219 78.61074219 -20.78820313 78.21757813 -21.296875 77.8125 C-21.296875 77.1525 -21.296875 76.4925 -21.296875 75.8125 C-25.751875 76.3075 -25.751875 76.3075 -30.296875 76.8125 C-31.33200747 74.7362343 -32.34953711 72.65118521 -33.359375 70.5625 C-33.92785156 69.40234375 -34.49632812 68.2421875 -35.08203125 67.046875 C-36.296875 63.8125 -36.296875 63.8125 -36.109375 61.515625 C-35.296875 59.8125 -35.296875 59.8125 -33.234375 57.8125 C-30.20053439 53.11494034 -30.98428959 48.25669588 -31.296875 42.8125 C-31.93625 42.503125 -32.575625 42.19375 -33.234375 41.875 C-35.296875 40.8125 -35.296875 40.8125 -36.296875 39.8125 C-35.97980237 33.89381086 -35.13901832 27.54694436 -31.296875 22.8125 C-28.98033306 22.20033397 -26.94216873 22.18753343 -24.55078125 22.18359375 C-21.57315138 21.69334273 -20.72712693 20.56748089 -18.859375 18.25 C-18.40691406 17.60933594 -17.95445313 16.96867187 -17.48828125 16.30859375 C-17.09511719 15.81488281 -16.70195312 15.32117187 -16.296875 14.8125 C-15.636875 14.8125 -14.976875 14.8125 -14.296875 14.8125 C-14.626875 11.8425 -14.956875 8.8725 -15.296875 5.8125 C-13.2206093 4.77736753 -11.13556021 3.75983789 -9.046875 2.75 C-7.88671875 2.18152344 -6.7265625 1.61304688 -5.53125 1.02734375 C-2.296875 -0.1875 -2.296875 -0.1875 0 0 Z M22.703125 2.8125 C22.31125 3.46347656 21.919375 4.11445312 21.515625 4.78515625 C19.703125 6.8125 19.703125 6.8125 16.015625 7.30859375 C14.57799293 7.30991998 13.14021122 7.28963494 11.703125 7.25 C10.97867188 7.25708984 10.25421875 7.26417969 9.5078125 7.27148438 C4.16434668 7.20740222 4.16434668 7.20740222 1.91015625 5.27734375 C1.51183594 4.79394531 1.11351562 4.31054688 0.703125 3.8125 C-4.29661497 4.00116943 -7.96246466 5.38100152 -12.296875 7.8125 C-12.1525 9.00875 -12.008125 10.205 -11.859375 11.4375 C-11.8345672 14.24078158 -11.95448467 15.40720331 -13.78515625 17.57421875 C-15.01526655 18.5853032 -16.27693523 19.55949798 -17.5703125 20.48828125 C-19.57254089 21.87646836 -19.57254089 21.87646836 -21.296875 24.8125 C-23.215 24.874375 -23.215 24.874375 -25.171875 24.9375 C-27.32988007 25.0219588 -27.32988007 25.0219588 -29.296875 25.8125 C-32.2973616 29.88222077 -33.296875 33.8096118 -33.296875 38.8125 C-32.32234375 39.43511719 -32.32234375 39.43511719 -31.328125 40.0703125 C-29.296875 41.8125 -29.296875 41.8125 -28.765625 45.4296875 C-28.75501364 46.84895689 -28.76619441 48.26852258 -28.796875 49.6875 C-28.78140625 50.39519531 -28.7659375 51.10289063 -28.75 51.83203125 C-28.78685738 56.78013504 -29.8360098 59.31043402 -33.296875 62.8125 C-32.00650589 66.74845001 -30.63211975 70.37420186 -28.296875 73.8125 C-25.84830819 74.67951921 -23.95938777 74.6904803 -21.375 74.65625 C-19.296875 74.8125 -19.296875 74.8125 -16.984375 77.1875 C-16.4275 78.05375 -15.870625 78.92 -15.296875 79.8125 C-14.575 80.245625 -13.853125 80.67875 -13.109375 81.125 C-11.296875 82.8125 -11.296875 82.8125 -11.109375 86.75 C-11.0517567 88.8769251 -11.0517567 88.8769251 -10.296875 90.8125 C-6.22550979 93.812016 -2.30057559 94.8125 2.703125 94.8125 C3.32574219 93.83796875 3.32574219 93.83796875 3.9609375 92.84375 C5.703125 90.8125 5.703125 90.8125 9.3203125 90.28125 C10.73958189 90.27063864 12.15914758 90.28181941 13.578125 90.3125 C14.28582031 90.29703125 14.99351563 90.2815625 15.72265625 90.265625 C20.67076004 90.30248238 23.20105902 91.3516348 26.703125 94.8125 C30.63907501 93.52213089 34.26482686 92.14774475 37.703125 89.8125 C38.57014421 87.36393319 38.5811053 85.47501277 38.546875 82.890625 C38.703125 80.8125 38.703125 80.8125 41.078125 78.5 C41.944375 77.943125 42.810625 77.38625 43.703125 76.8125 C44.13625 76.090625 44.569375 75.36875 45.015625 74.625 C46.703125 72.8125 46.703125 72.8125 50.640625 72.625 C52.7675501 72.5673817 52.7675501 72.5673817 54.703125 71.8125 C57.702641 67.74113479 58.703125 63.81620059 58.703125 58.8125 C57.72859375 58.19181641 57.72859375 58.19181641 56.734375 57.55859375 C54.703125 55.8125 54.703125 55.8125 54.171875 52.16015625 C54.16126491 50.73177226 54.1724408 49.30309379 54.203125 47.875 C54.18765625 47.15892578 54.1721875 46.44285156 54.15625 45.70507812 C54.18325901 42.0622379 54.41009776 40.17371243 56.734375 37.30859375 C57.3840625 36.81488281 58.03375 36.32117187 58.703125 35.8125 C58.07976897 33.79858051 57.40284473 31.80117713 56.703125 29.8125 C56.3525 28.719375 56.001875 27.62625 55.640625 26.5 C54.03958098 23.63997826 54.03958098 23.63997826 51.6484375 23.390625 C50.05015726 23.29630026 48.45109784 23.21441386 46.8515625 23.14453125 C44.703125 22.8125 44.703125 22.8125 42.390625 20.4375 C41.83375 19.57125 41.276875 18.705 40.703125 17.8125 C39.6203125 17.1628125 39.6203125 17.1628125 38.515625 16.5 C35.58127268 13.76801681 35.9593708 10.72024841 35.703125 6.8125 C34.10162614 6.13944982 32.49681471 5.47427773 30.890625 4.8125 C29.99730469 4.44125 29.10398438 4.07 28.18359375 3.6875 C25.6699817 2.64616763 25.6699817 2.64616763 22.703125 2.8125 Z " fill="#284468" transform="translate(37.296875,1.1875)"/>
<path d="M0 0 C0.99 0 1.98 0 3 0 C2.67 1.0725 2.34 2.145 2 3.25 C0.8282249 6.99731601 0.8282249 6.99731601 1 11 C4.40614946 10.97873538 4.40614946 10.97873538 8 10 C10.01041003 7.06550592 10.01041003 7.06550592 11 4 C14.94311163 4.56071771 16.89439727 6.44218852 19.75 9.125 C23.58944776 12.70810481 27.50189731 16.11317867 31.6015625 19.39453125 C33 21 33 21 33 25 C29.66135596 24.42437172 28.30897368 23.40936384 26 21 C25.01 20.67 24.02 20.34 23 20 C24.65 21.65 26.3 23.3 28 25 C27.505 26.485 27.505 26.485 27 28 C23.64404172 27.40072174 21.62198774 26.15377564 19 24 C19.495 24.598125 19.99 25.19625 20.5 25.8125 C22 28 22 28 22 31 C21.21625 30.835 20.4325 30.67 19.625 30.5 C17.11791961 29.9376293 17.11791961 29.9376293 15 30 C15.66 31.32 16.32 32.64 17 34 C13 34 13 34 10 32 C9.34 33.32 8.68 34.64 8 36 C7.01 35.67 6.02 35.34 5 35 C5 34.01 5 33.02 5 32 C3.68 32 2.36 32 1 32 C1 30.68 1 29.36 1 28 C-0.32 28.33 -1.64 28.66 -3 29 C-2.67 27.02 -2.34 25.04 -2 23 C-2.61875 23.495 -3.2375 23.99 -3.875 24.5 C-6 26 -6 26 -8 26 C-7.47557578 22.2241456 -6.67345333 19.77627845 -4 17 C-3.01 17 -2.02 17 -1 17 C-0.67 17.66 -0.34 18.32 0 19 C0 18.01 0 17.02 0 16 C-2.31 16 -4.62 16 -7 16 C-6.40165275 11.85701333 -4.99335715 8.81805623 -2.9375 5.1875 C-2.11572266 3.72376953 -2.11572266 3.72376953 -1.27734375 2.23046875 C-0.85582031 1.49441406 -0.43429688 0.75835937 0 0 Z " fill="#F3D0B2" transform="translate(37,36)"/>
<path d="M0 0 C8.47208389 6.07714851 14.21578555 14.00365396 16.3125 24.3125 C17.39939137 34.48269784 15.34337623 43.49394306 9.48046875 51.95703125 C2.65613649 60.07354477 -5.8985869 65.43758099 -16.5390625 66.6328125 C-27.08659913 67.04163175 -35.60291801 63.9995919 -43.68359375 57.234375 C-50.75560337 50.45186285 -54.99228948 43.06126951 -55.25830078 33.19458008 C-55.22263459 22.15379491 -54.00223967 14.25673507 -46.37890625 5.73046875 C-33.32472116 -6.87567878 -15.74968868 -9.78026353 0 0 Z M-45.40625 9.3828125 C-51.03564406 17.30259727 -53.97557317 25.54949086 -52.6875 35.3125 C-50.3158918 45.29301786 -45.43492726 53.24629956 -36.6875 58.75 C-28.67210025 63.10777004 -20.88093028 64.77131926 -11.91796875 62.66015625 C-1.864957 59.38413983 5.09437626 54.03641735 10.16015625 44.71875 C14.11336218 36.46391999 14.57499745 28.41898358 11.75 19.75 C7.7710007 9.93421079 1.83508397 3.87282836 -7.6875 -0.6875 C-21.05829556 -5.94031254 -36.26712313 -1.62568123 -45.40625 9.3828125 Z " fill="#2B4A6A" transform="translate(69.6875,19.6875)"/>
<path d="M0 0 C1.14984375 0.02578125 2.2996875 0.0515625 3.484375 0.078125 C7.23518167 1.06166986 7.56334408 1.20995552 9.46875 4.2734375 C10.17211859 5.62728983 10.84864934 6.9953675 11.5 8.375 C12.03753906 9.40367188 12.03753906 9.40367188 12.5859375 10.453125 C13.49053612 12.25530985 14.25538159 14.12604367 15 16 C14.67 16.99 14.34 17.98 14 19 C9.39616712 18.15468787 7.09646616 15.36207594 4 12.0625 C-0.37748449 7.17566272 -0.37748449 7.17566272 -6 4 C-8.15732132 3.91431497 -8.15732132 3.91431497 -10 5 C-10.33 5.825 -10.66 6.65 -11 7.5 C-11.495 8.7375 -11.495 8.7375 -12 10 C-14.125 10.8125 -14.125 10.8125 -16 11 C-15.54842977 6.14562001 -14.40802387 3.50825987 -11 0 C-7.13177869 -1.2894071 -3.93072995 -0.5935666 0 0 Z " fill="#F4D6D3" transform="translate(56,34)"/>
<path d="M0 0 C1.32 0.33 2.64 0.66 4 1 C3.77183594 1.51949219 3.54367188 2.03898437 3.30859375 2.57421875 C1.9907893 5.77122417 1 8.32623333 1 11.8125 C1.83544411 14.24834954 1.83544411 14.24834954 4.51953125 15.24609375 C7 17 7 17 7.69921875 19.890625 C7.66369378 30.07445043 7.66369378 30.07445043 4 34.3125 C2.3125 35.92578125 2.3125 35.92578125 1 37 C1.56666546 38.46489049 2.15404228 39.92178003 2.75 41.375 C3.07484375 42.18710938 3.3996875 42.99921875 3.734375 43.8359375 C5.19483944 46.33315139 6.33869601 46.98244259 9 48 C6.36 48 3.72 48 1 48 C-0.65 44.04 -2.3 40.08 -4 36 C-2.68 34.68 -1.36 33.36 0 32 C0.4001108 29.14921058 0.56127115 26.77384366 0.5 23.9375 C0.51546875 23.21755859 0.5309375 22.49761719 0.546875 21.75585938 C0.5771456 19.38417573 0.5771456 19.38417573 0 16 C-1.87111235 13.9613635 -1.87111235 13.9613635 -4 13 C-3.50269348 8.02693484 -2.44697666 4.36200187 0 0 Z " fill="#4AA386" transform="translate(8,27)"/>
<path d="M0 0 C0.99 0 1.98 0 3 0 C3.33 0.66 3.66 1.32 4 2 C5.64363134 2.72159424 7.31050386 3.39351421 9 4 C9 4.99 9 5.98 9 7 C9.99 7.33 10.98 7.66 12 8 C12.33333333 9.33333333 12.66666667 10.66666667 13 12 C13.99 12.33 14.98 12.66 16 13 C16 13.66 16 14.32 16 15 C15.34 15 14.68 15 14 15 C13.34 16.32 12.68 17.64 12 19 C11.01 18.67 10.02 18.34 9 18 C9 17.01 9 16.02 9 15 C7.68 15 6.36 15 5 15 C5 13.68 5 12.36 5 11 C3.68 11.33 2.36 11.66 1 12 C1.33 10.02 1.66 8.04 2 6 C1.38125 6.495 0.7625 6.99 0.125 7.5 C-2 9 -2 9 -4 9 C-3.47557578 5.2241456 -2.67345333 2.77627845 0 0 Z " fill="#4A5A77" transform="translate(33,53)"/>
<path d="M0 0 C2.475 0.99 2.475 0.99 5 2 C3.48968084 7.26122171 1.09625809 11.67232586 -1.625 16.375 C-2.04523437 17.11105469 -2.46546875 17.84710938 -2.8984375 18.60546875 C-3.92752764 20.4063765 -4.96310756 22.20357318 -6 24 C-7.32 23.34 -8.64 22.68 -10 22 C-8.4719611 16.90117545 -6.28963144 12.34334341 -3.875 7.625 C-3.50246094 6.88894531 -3.12992188 6.15289062 -2.74609375 5.39453125 C-1.8343878 3.59449642 -0.91770068 1.79698598 0 0 Z " fill="#5BA1E4" transform="translate(32,29)"/>
<path d="M0 0 C1.32 0 2.64 0 4 0 C5.5094588 3.09965403 7.00590667 6.20541403 8.5 9.3125 C9.14388672 10.63411133 9.14388672 10.63411133 9.80078125 11.98242188 C10.20683594 12.82998047 10.61289063 13.67753906 11.03125 14.55078125 C11.40830078 15.33106689 11.78535156 16.11135254 12.17382812 16.9152832 C13 19 13 19 13 22 C11.68 22.33 10.36 22.66 9 23 C7.69964229 20.65028386 6.40970531 18.29575663 5.125 15.9375 C4.76019531 15.28072266 4.39539063 14.62394531 4.01953125 13.94726562 C1.71453531 9.6935004 0.1610836 5.69933309 -1 1 C-0.67 0.67 -0.34 0.34 0 0 Z " fill="#DD6E85" transform="translate(65,29)"/>
<path d="M0 0 C8.42924323 0.88130368 13.95895097 8.82471494 19 15 C15.46936161 14.42704553 13.91099482 13.22229897 11.5 10.625 C8.03703339 6.97442483 8.03703339 6.97442483 4 4 C3.01 4 2.02 4 1 4 C0.649375 4.969375 0.29875 5.93875 -0.0625 6.9375 C-2 10 -2 10 -5.6875 10.875 C-6.780625 10.91625 -7.87375 10.9575 -9 11 C-8.25 9.0625 -8.25 9.0625 -7 7 C-6.34 6.855625 -5.68 6.71125 -5 6.5625 C-4.01 6.2840625 -4.01 6.2840625 -3 6 C-1.76709799 3.54295238 -1.76709799 3.54295238 -1 1 C-0.67 0.67 -0.34 0.34 0 0 Z " fill="#394E70" transform="translate(47,37)"/>
<path d="M0 0 C0.103125 0.639375 0.20625 1.27875 0.3125 1.9375 C0.539375 2.618125 0.76625 3.29875 1 4 C1.99 4.33 2.98 4.66 4 5 C4 5.66 4 6.32 4 7 C3.34 7 2.68 7 2 7 C1.34 8.32 0.68 9.64 0 11 C-0.99 10.67 -1.98 10.34 -3 10 C-3 9.01 -3 8.02 -3 7 C-4.32 7 -5.64 7 -7 7 C-6.61402985 4.20171644 -6.19863427 3.1794116 -4.0625 1.25 C-2 0 -2 0 0 0 Z " fill="#3D5070" transform="translate(45,61)"/>
<path d="M0 0 C0.99 0 1.98 0 3 0 C3.9640592 7.59196617 3.9640592 7.59196617 1.21875 11.6015625 C-0.7841985 13.8231427 -2.82545479 15.94680218 -5 18 C-6.32 17.67 -7.64 17.34 -9 17 C-4.375 11.25 -4.375 11.25 -1 9 C-0.6743294 7.05430321 -0.6743294 7.05430321 -0.875 4.9375 C-0.936875 2.9884375 -0.936875 2.9884375 -1 1 C-0.67 0.67 -0.34 0.34 0 0 Z " fill="#4AA385" transform="translate(26,8)"/>
<path d="M0 0 C5.15258925 0.92839446 8.83508519 3.90821728 12 8 C12.65284669 11.12080499 12.51167924 13.86596466 12 17 C10.68 16.67 9.36 16.34 8 16 C7.9690625 14.205625 7.9690625 14.205625 7.9375 12.375 C7.50323815 8.54806744 6.4060537 7.04293487 3.4375 4.625 C2.47650391 3.93277344 2.47650391 3.93277344 1.49609375 3.2265625 C1.00238281 2.82179688 0.50867188 2.41703125 0 2 C0 1.34 0 0.68 0 0 Z " fill="#4AA385" transform="translate(19,76)"/>
<path d="M0 0 C1.98 0 3.96 0 6 0 C5.67 0.66 5.34 1.32 5 2 C4.01 1.67 3.02 1.34 2 1 C1.773125 1.78375 1.54625 2.5675 1.3125 3.375 C-0.40660933 8.12301625 -2.68084721 12.52102552 -5 17 C-6.2109375 15.421875 -6.2109375 15.421875 -7 13 C-5.98613427 10.5453777 -4.97276745 8.50453746 -3.625 6.25 C-3.28210938 5.64800781 -2.93921875 5.04601563 -2.5859375 4.42578125 C-1.73822182 2.94227881 -0.87094495 1.46998513 0 0 Z " fill="#324C71" transform="translate(35,35)"/>
<path d="M0 0 C0.99 0.33 1.98 0.66 3 1 C3 1.66 3 2.32 3 3 C2.01 3.495 2.01 3.495 1 4 C0.608125 4.99 0.21625 5.98 -0.1875 7 C-0.785625 7.99 -1.38375 8.98 -2 10 C-5.6875 10.875 -5.6875 10.875 -9 11 C-8.25 9.0625 -8.25 9.0625 -7 7 C-6.34 6.855625 -5.68 6.71125 -5 6.5625 C-4.01 6.2840625 -4.01 6.2840625 -3 6 C-1.76709799 3.54295238 -1.76709799 3.54295238 -1 1 C-0.67 0.67 -0.34 0.34 0 0 Z " fill="#53607B" transform="translate(47,37)"/>
<path d="M0 0 C2.0894988 3.1342482 3.56445886 6.26109446 5.125 9.6875 C5.66382812 10.86699219 6.20265625 12.04648437 6.7578125 13.26171875 C7.16773437 14.16535156 7.57765625 15.06898437 8 16 C7.01 16 6.02 16 5 16 C3.96455826 14.09118566 2.94709915 12.17260796 1.9375 10.25 C1.36902344 9.18265625 0.80054687 8.1153125 0.21484375 7.015625 C-1.01044806 3.97406463 -1.25348607 2.95106435 0 0 Z " fill="#3B4A6D" transform="translate(65,34)"/>
<path d="M0 0 C0.99 0 1.98 0 3 0 C2.42676569 3.86933162 0.61046448 6.15222057 -2 9 C-2.66 9 -3.32 9 -4 9 C-3.47557578 5.2241456 -2.67345333 2.77627845 0 0 Z " fill="#E0BCB8" transform="translate(33,53)"/>
<path d="M0 0 C0.99 0.33 1.98 0.66 3 1 C1.515 4.465 1.515 4.465 0 8 C0.99 8.33 1.98 8.66 3 9 C1.35 9 -0.3 9 -2 9 C-1.125 2.25 -1.125 2.25 0 0 Z " fill="#3C5070" transform="translate(39,38)"/>
<path d="M0 0 C1.98 0 3.96 0 6 0 C5.67 0.66 5.34 1.32 5 2 C4.01 1.67 3.02 1.34 2 1 C1.34 2.98 0.68 4.96 0 7 C-0.99 7 -1.98 7 -3 7 C-1.125 2.25 -1.125 2.25 0 0 Z " fill="#425777" transform="translate(35,35)"/>
<path d="M0 0 C0.66 0 1.32 0 2 0 C1.75 2.375 1.75 2.375 1 5 C-1.0625 6.3125 -1.0625 6.3125 -3 7 C-2.25 2.25 -2.25 2.25 0 0 Z " fill="#F0D3D1" transform="translate(37,58)"/>
<path d="M0 0 C-0.33 0.99 -0.66 1.98 -1 3 C-2.65 3.33 -4.3 3.66 -6 4 C-6 2.68 -6 1.36 -6 0 C-3.50907189 -1.24546405 -2.58919267 -0.7767578 0 0 Z " fill="#3E5172" transform="translate(41,56)"/>
<path d="M0 0 C0.66 0.33 1.32 0.66 2 1 C1.34 2.65 0.68 4.3 0 6 C-0.99 6 -1.98 6 -3 6 C-2.42655063 3.13275314 -2.1385485 2.1385485 0 0 Z " fill="#E4BEB9" transform="translate(41,62)"/>
<path d="M0 0 C0.99 0 1.98 0 3 0 C2.67 1.32 2.34 2.64 2 4 C0.68 4 -0.64 4 -2 4 C-1.34 2.68 -0.68 1.36 0 0 Z " fill="#C9B7BD" transform="translate(44,67)"/>
<path d="M0 0 C3.36720387 1.39332574 4.9859524 2.9789286 7 6 C4 6 4 6 1.8125 4.125 C0 2 0 2 0 0 Z " fill="#415371" transform="translate(52,47)"/>
</svg>
