<?xml version="1.0" encoding="UTF-8"?>
<svg version="1.1" xmlns="http://www.w3.org/2000/svg" width="100" height="100">
<path d="M0 0 C3.3 0 6.6 0 10 0 C10.495 4.455 10.495 4.455 11 9 C13.31 9.33 15.62 9.66 18 10 C18.433125 9.071875 18.433125 9.071875 18.875 8.125 C20 6 20 6 22 4 C25.84177074 4.30329769 28.09427672 5.52475424 31 8 C30.34 10.97 29.68 13.94 29 17 C30.49958728 18.79679557 30.49958728 18.79679557 33 20 C35.83163803 19.65955497 38.25986036 18.86771089 41 18 C45.01834862 23.35779817 45.01834862 23.35779817 44.9375 26.1875 C43.87138104 28.24866332 42.81187911 29.55049671 41 31 C40.34 31 39.68 31 39 31 C39.495 34.465 39.495 34.465 40 38 C42.97 38.33 45.94 38.66 49 39 C49 42.3 49 45.6 49 49 C44.545 49.495 44.545 49.495 40 50 C39.67 52.31 39.34 54.62 39 57 C39.61875 57.28875 40.2375 57.5775 40.875 57.875 C43 59 43 59 45 61 C44.69670231 64.84177074 43.47524576 67.09427672 41 70 C38.03 69.34 35.06 68.68 32 68 C30.20320443 69.49958728 30.20320443 69.49958728 29 72 C29.34044503 74.83163803 30.13228911 77.25986036 31 80 C25.64220183 84.01834862 25.64220183 84.01834862 22.8125 83.9375 C20.75133668 82.87138104 19.44950329 81.81187911 18 80 C18 79.34 18 78.68 18 78 C14.535 78.495 14.535 78.495 11 79 C10.67 81.97 10.34 84.94 10 88 C6.7 88 3.4 88 0 88 C-0.495 83.545 -0.495 83.545 -1 79 C-3.31 78.67 -5.62 78.34 -8 78 C-8.28875 78.61875 -8.5775 79.2375 -8.875 79.875 C-10 82 -10 82 -12 84 C-15.84177074 83.69670231 -18.09427672 82.47524576 -21 80 C-20.34 77.03 -19.68 74.06 -19 71 C-20.49958728 69.20320443 -20.49958728 69.20320443 -23 68 C-25.83163803 68.34044503 -28.25986036 69.13228911 -31 70 C-35.01834862 64.64220183 -35.01834862 64.64220183 -34.9375 61.8125 C-33.87138104 59.75133668 -32.81187911 58.44950329 -31 57 C-30.34 57 -29.68 57 -29 57 C-29.33 54.69 -29.66 52.38 -30 50 C-32.97 49.67 -35.94 49.34 -39 49 C-39 45.7 -39 42.4 -39 39 C-34.545 38.505 -34.545 38.505 -30 38 C-29.67 35.69 -29.34 33.38 -29 31 C-29.928125 30.566875 -29.928125 30.566875 -30.875 30.125 C-33 29 -33 29 -35 27 C-34.69670231 23.15822926 -33.47524576 20.90572328 -31 18 C-26.545 18.99 -26.545 18.99 -22 20 C-20.20320443 18.50041272 -20.20320443 18.50041272 -19 16 C-19.34044503 13.16836197 -20.13228911 10.74013964 -21 8 C-15.64220183 3.98165138 -15.64220183 3.98165138 -12.8125 4.0625 C-10.75133668 5.12861896 -9.44950329 6.18812089 -8 8 C-8 8.66 -8 9.32 -8 10 C-4.535 9.505 -4.535 9.505 -1 9 C-0.67 6.03 -0.34 3.06 0 0 Z M10 22 C9.89158049 23.91541138 9.81421921 25.83259773 9.75 27.75 C9.70359375 28.81734375 9.6571875 29.8846875 9.609375 30.984375 C10.09107298 34.7030834 11.27616026 35.54905914 14 38 C14.80078125 40 14.80078125 40 15.3125 42 C16.42569802 45.29654219 17.48770421 46.73177606 20.5 48.5 C23.82492476 50.19695965 23.82492476 50.19695965 27 50 C27.44970656 42.50489073 27.69835375 36.17261725 23 30 C19.18402023 25.86063211 15.55066536 23.35382082 10 22 Z M-10.79296875 27.6484375 C-15.44996866 32.91487197 -17.28186089 37.17532928 -17.125 44.3125 C-17.10695313 45.38113281 -17.08890625 46.44976562 -17.0703125 47.55078125 C-17.04710938 48.35902344 -17.02390625 49.16726562 -17 50 C-12.42663026 49.20159816 -9.60101409 48.05303369 -6 45 C-5.02453637 42.99240679 -4.34397269 41.04904605 -3.73828125 38.90234375 C-3 37 -3 37 -1.4296875 35.640625 C0.73919979 33.15173795 0.29154853 31.03800431 0.1875 27.8125 C0.16042969 26.72582031 0.13335937 25.63914062 0.10546875 24.51953125 C0.05326172 23.27236328 0.05326172 23.27236328 0 22 C-3.77812293 22 -8.14774151 25.21644209 -10.79296875 27.6484375 Z M-6.75 55.4375 C-7.54921875 55.91058594 -8.3484375 56.38367187 -9.171875 56.87109375 C-9.77515625 57.24363281 -10.3784375 57.61617187 -11 58 C-9.26647781 62.08493347 -7.4342505 63.42103431 -3.4765625 65.234375 C2.84541284 67.18880271 9.59116301 67.0145944 15.625 64.25 C18.60649775 62.66489993 19.68603239 61.09628011 21 58 C15.13821424 54.46334847 10.8736702 52.23367944 4.0078125 53.703125 C2 54 2 54 0.0390625 53.39453125 C-2.89410339 52.82700298 -4.23673212 53.92214731 -6.75 55.4375 Z " fill="#5F7C8B" transform="translate(45,6)"/>
<path d="M0 0 C6.45636808 3.97314959 9.50038899 9.93477295 12 17 C13.54800552 24.99802852 11.74994112 31.32510598 7.83984375 38.36328125 C5.11127723 42.27364728 2.13243682 44.68616013 -2 47 C-3.60875 47.928125 -3.60875 47.928125 -5.25 48.875 C-13.11956964 51.23587089 -19.8701282 50.92147572 -27.375 47.5 C-32.72952337 44.5252648 -36.02153058 41.31944188 -39 36 C-39.61875 34.9275 -40.2375 33.855 -40.875 32.75 C-43.23587089 24.88043036 -42.92147572 18.1298718 -39.5 10.625 C-36.52673229 5.27311813 -33.32051068 1.97322656 -28 -1 C-26.3603125 -1.928125 -26.3603125 -1.928125 -24.6875 -2.875 C-15.83997093 -5.57424616 -8.08713124 -4.29316843 0 0 Z M-10 1 C-10.10841951 2.91541138 -10.18578079 4.83259773 -10.25 6.75 C-10.29640625 7.81734375 -10.3428125 8.8846875 -10.390625 9.984375 C-9.90892702 13.7030834 -8.72383974 14.54905914 -6 17 C-5.19921875 19 -5.19921875 19 -4.6875 21 C-3.57430198 24.29654219 -2.51229579 25.73177606 0.5 27.5 C3.82492476 29.19695965 3.82492476 29.19695965 7 29 C7.44970656 21.50489073 7.69835375 15.17261725 3 9 C-0.81597977 4.86063211 -4.44933464 2.35382082 -10 1 Z M-30.79296875 6.6484375 C-35.44996866 11.91487197 -37.28186089 16.17532928 -37.125 23.3125 C-37.10695313 24.38113281 -37.08890625 25.44976562 -37.0703125 26.55078125 C-37.04710937 27.35902344 -37.02390625 28.16726562 -37 29 C-32.42663026 28.20159816 -29.60101409 27.05303369 -26 24 C-25.02453637 21.99240679 -24.34397269 20.04904605 -23.73828125 17.90234375 C-23 16 -23 16 -21.4296875 14.640625 C-19.26080021 12.15173795 -19.70845147 10.03800431 -19.8125 6.8125 C-19.83957031 5.72582031 -19.86664063 4.63914062 -19.89453125 3.51953125 C-19.94673828 2.27236328 -19.94673828 2.27236328 -20 1 C-23.77812293 1 -28.14774151 4.21644209 -30.79296875 6.6484375 Z M-26.75 34.4375 C-27.54921875 34.91058594 -28.3484375 35.38367187 -29.171875 35.87109375 C-29.77515625 36.24363281 -30.3784375 36.61617187 -31 37 C-29.26647781 41.08493347 -27.4342505 42.42103431 -23.4765625 44.234375 C-17.15458716 46.18880271 -10.40883699 46.0145944 -4.375 43.25 C-1.39350225 41.66489993 -0.31396761 40.09628011 1 37 C-4.86178576 33.46334847 -9.1263298 31.23367944 -15.9921875 32.703125 C-18 33 -18 33 -19.9609375 32.39453125 C-22.89410339 31.82700298 -24.23673212 32.92214731 -26.75 34.4375 Z " fill="#455A64" transform="translate(65,27)"/>
</svg>
