<?xml version="1.0" encoding="UTF-8"?>
<svg version="1.1" xmlns="http://www.w3.org/2000/svg" width="100" height="100">
<path d="M0 0 C2 1.8125 2 1.8125 4 6.8125 C9.61 6.8125 15.22 6.8125 21 6.8125 C21.495 9.2875 21.495 9.2875 22 11.8125 C23.8135987 12.98141599 23.8135987 12.98141599 26 13.8125 C29.81210514 16.64796103 33.36370701 19.5800333 34.69946289 24.26660156 C34.92214968 27.02427145 34.90226485 29.67363892 34.78125 32.4375 C34.76993042 33.42500244 34.75861084 34.41250488 34.74694824 35.42993164 C34.70244562 38.55949514 34.60213611 41.68434077 34.5 44.8125 C34.45983908 46.94394387 34.4233429 49.07546014 34.390625 51.20703125 C34.30279936 56.4104422 34.16923435 61.61113408 34 66.8125 C34.639375 66.956875 35.27875 67.10125 35.9375 67.25 C38 67.8125 38 67.8125 39 68.8125 C39 70.8125 39 72.8125 39 74.8125 C39.33 75.4725 39.66 76.1325 40 76.8125 C8.32 76.8125 -23.36 76.8125 -56 76.8125 C-55.505 75.8225 -55.505 75.8225 -55 74.8125 C-55.020625 73.8225 -55.04125 72.8325 -55.0625 71.8125 C-55 68.8125 -55 68.8125 -53 66.8125 C-52.01 66.8125 -51.02 66.8125 -50 66.8125 C-50.05236816 65.50168457 -50.10473633 64.19086914 -50.15869141 62.84033203 C-50.34079267 57.93950692 -50.45487818 53.03897491 -50.54931641 48.13574219 C-50.5993606 46.02097159 -50.66742293 43.90654275 -50.75439453 41.79296875 C-51.49661157 23.28120263 -51.49661157 23.28120263 -47.79980469 18.13574219 C-45.31809932 15.60402764 -43.0598407 13.59397913 -40 11.8125 C-39.34 11.8125 -38.68 11.8125 -38 11.8125 C-38 10.1625 -38 8.5125 -38 6.8125 C-32.06 6.8125 -26.12 6.8125 -20 6.8125 C-19.34 5.1625 -18.68 3.5125 -18 1.8125 C-13.08388427 -2.64272988 -5.89125851 -2.33195649 0 0 Z " fill="#514F75" transform="translate(58,12.1875)"/>
<path d="M0 0 C5.28 0 10.56 0 16 0 C16 7.875 16 7.875 12 12 C13.65 10.68 15.3 9.36 17 8 C17.70125 8.66 18.4025 9.32 19.125 10 C22.52460766 12.36494446 23.94587851 12.67568691 28 12 C30.95118716 10.63926358 30.95118716 10.63926358 33 8 C33.7094525 5.26652123 33.85759646 2.84807084 34 0 C38.95 0 43.9 0 49 0 C49.25 7.625 49.25 7.625 47 11 C47.66 10.67 48.32 10.34 49 10 C50.67147005 10.9964533 52.34142571 11.99935914 53.953125 13.08984375 C56.54038837 14.40630025 56.54038837 14.40630025 62 14 C61.67 21.26 61.34 28.52 61 36 C54.07 36 47.14 36 40 36 C39.67 37.32 39.34 38.64 39 40 C38.01 40 37.02 40 36 40 C36 32.41 36 24.82 36 17 C28.74 17 21.48 17 14 17 C14 25.91 14 34.82 14 44 C4.1 44 -5.8 44 -16 44 C-16 32.45 -16 20.9 -16 9 C-15.67 9.66 -15.34 10.32 -15 11 C-11.47005387 12.17664871 -8.70544587 12.19850603 -5 12 C-1.83051301 10.34412478 -1.83051301 10.34412478 -1.26953125 7.6171875 C-1.11871094 6.71226563 -0.96789063 5.80734375 -0.8125 4.875 C-0.544375 3.26625 -0.27625 1.6575 0 0 Z " fill="#F8C68D" transform="translate(25,36)"/>
<path d="M0 0 C0.33 0 0.66 0 1 0 C1.99 3.96 1.99 3.96 3 8 C4.19625 8.226875 5.3925 8.45375 6.625 8.6875 C7.29789062 8.81511719 7.97078125 8.94273438 8.6640625 9.07421875 C11.76907337 9.13869346 11.76907337 9.13869346 17 6 C17 18.54 17 31.08 17 44 C18.65 44 20.3 44 22 44 C23.785612 45.785612 23 48.59156925 23 51 C23.33 51.66 23.66 52.32 24 53 C-7.68 53 -39.36 53 -72 53 C-71.67 52.34 -71.34 51.68 -71 51 C-71 49.989375 -71 48.97875 -71 47.9375 C-71 45 -71 45 -70 44 C-67.40640678 43.91148471 -64.83960309 43.88474055 -62.24609375 43.90234375 C-61.47064713 43.9037587 -60.6952005 43.90517365 -59.89625549 43.90663147 C-57.40996506 43.91224655 -54.9237634 43.92480154 -52.4375 43.9375 C-50.75586067 43.94251306 -49.07421994 43.9470763 -47.39257812 43.95117188 C-43.26165671 43.96137168 -39.13092818 43.98094395 -35 44 C-35 35.09 -35 26.18 -35 17 C-27.74 17 -20.48 17 -13 17 C-13 24.59 -13 32.18 -13 40 C-12.01 40 -11.02 40 -10 40 C-9.67 33.73 -9.34 27.46 -9 21 C-8.67 21 -8.34 21 -8 21 C-8 25.95 -8 30.9 -8 36 C-1.4 36 5.2 36 12 36 C12 29.07 12 22.14 12 15 C9.36 14.67 6.72 14.34 4 14 C1.1875 12.4375 1.1875 12.4375 -1 11 C-1.99 11 -2.98 11 -4 11 C-3.525625 10.67 -3.05125 10.34 -2.5625 10 C-0.14208385 6.90186733 -0.31801083 3.87973208 0 0 Z " fill="#68708F" transform="translate(74,36)"/>
<path d="M0 0 C0.0825 0.61875 0.165 1.2375 0.25 1.875 C1.24767729 4.70175233 2.35577729 4.70695164 5 6 C8.81210514 8.83546103 12.36370701 11.7675333 13.69946289 16.45410156 C13.92214968 19.21177145 13.90226485 21.86113892 13.78125 24.625 C13.76993042 25.61250244 13.75861084 26.60000488 13.74694824 27.61743164 C13.70244562 30.74699514 13.60213611 33.87184077 13.5 37 C13.45983908 39.13144387 13.4233429 41.26296014 13.390625 43.39453125 C13.30279936 48.5979422 13.16923435 53.79863408 13 59 C14.485 59.495 14.485 59.495 16 60 C14.68 60 13.36 60 12 60 C11.67 47.79 11.34 35.58 11 23 C9.35 23.99 7.7 24.98 6 26 C2.97293683 26.29997923 1.03854704 25.7471837 -2 25 C-4.56946839 22.00228688 -4 20.14292711 -4 16 C-9.28 16 -14.56 16 -20 16 C-20 18.64 -20 21.28 -20 24 C-22.88243189 27.29420787 -24.74148444 28.76884408 -29.0625 29.5625 C-32.63722388 28.87797841 -34.37732418 27.46840077 -37 25 C-37.680625 25.66 -38.36125 26.32 -39.0625 27 C-42.64457375 29.43885872 -44.75519536 29.33292585 -49 29 C-49 28.67 -49 28.34 -49 28 C-45.97265625 27.36523438 -45.97265625 27.36523438 -42.9453125 26.73046875 C-40.62953451 26.07691162 -40.62953451 26.07691162 -39 23 C-38.67 20.69 -38.34 18.38 -38 16 C-42.95 16 -47.9 16 -53 16 C-53 15.67 -53 15.34 -53 15 C-47.72 15 -42.44 15 -37 15 C-36.67 12.69 -36.34 10.38 -36 8 C-35.67 6.68 -35.34 5.36 -35 4 C-31.04 4 -27.08 4 -23 4 C-21.48940272 8.0597302 -21 10.54610667 -21 15 C-16.05 14.67 -11.1 14.34 -6 14 C-6.66 12.906875 -7.32 11.81375 -8 10.6875 C-9.58464929 8.06292462 -10 7.1743622 -10 4 C-6.7 4 -3.4 4 0 4 C0 2.68 0 1.36 0 0 Z " fill="#625E80" transform="translate(79,20)"/>
<path d="M0 0 C19.14 0 38.28 0 58 0 C58 1.32 58 2.64 58 4 C54.7 4 51.4 4 48 4 C50.475 9.445 50.475 9.445 53 15 C47.72 15 42.44 15 37 15 C35 8 35 8 35 4 C31.04 4 27.08 4 23 4 C22.7834375 5.3303125 22.7834375 5.3303125 22.5625 6.6875 C22.09049787 9.46706808 21.55292178 12.23539112 21 15 C15.72 15 10.44 15 5 15 C6.65 11.37 8.3 7.74 10 4 C6.7 4 3.4 4 0 4 C0 2.68 0 1.36 0 0 Z " fill="#7681A1" transform="translate(21,20)"/>
<path d="M0 0 C6.6 0 13.2 0 20 0 C20 8.58 20 17.16 20 26 C13.4 26 6.8 26 0 26 C0 17.42 0 8.84 0 0 Z " fill="#CF9A6D" transform="translate(40,54)"/>
<path d="M0 0 C0.33 0 0.66 0 1 0 C1.66 2.64 2.32 5.28 3 8 C4.794375 8.3403125 4.794375 8.3403125 6.625 8.6875 C7.63433594 8.87892578 7.63433594 8.87892578 8.6640625 9.07421875 C11.76907337 9.13869346 11.76907337 9.13869346 17 6 C17 18.54 17 31.08 17 44 C7.1 44 -2.8 44 -13 44 C-13 42.68 -13 41.36 -13 40 C-12.01 40 -11.02 40 -10 40 C-9.67 33.73 -9.34 27.46 -9 21 C-8.67 21 -8.34 21 -8 21 C-8 25.95 -8 30.9 -8 36 C-1.4 36 5.2 36 12 36 C12 29.07 12 22.14 12 15 C9.36 14.67 6.72 14.34 4 14 C1.1875 12.4375 1.1875 12.4375 -1 11 C-1.99 11 -2.98 11 -4 11 C-3.525625 10.67 -3.05125 10.34 -2.5625 10 C-0.14208385 6.90186733 -0.31801083 3.87973208 0 0 Z " fill="#EDBD87" transform="translate(74,36)"/>
<path d="M0 0 C0.83265381 0.00523682 1.66530762 0.01047363 2.52319336 0.01586914 C3.42231445 0.0190918 4.32143555 0.02231445 5.24780273 0.02563477 C6.66609375 0.03820313 6.66609375 0.03820313 8.11303711 0.05102539 C9.06243164 0.05553711 10.01182617 0.06004883 10.98999023 0.06469727 C13.34356776 0.07652429 15.69702188 0.09300514 18.05053711 0.11352539 C19.59839871 3.20924859 18.88235737 6.37856937 18.61303711 9.73852539 C18.42741211 12.17227539 18.24178711 14.60602539 18.05053711 17.11352539 C11.45053711 17.11352539 4.85053711 17.11352539 -1.94946289 17.11352539 C-2.13508789 14.49415039 -2.32071289 11.87477539 -2.51196289 9.17602539 C-2.57327393 8.34981689 -2.63458496 7.5236084 -2.69775391 6.67236328 C-2.821014 4.82161873 -2.88706589 2.96732017 -2.94946289 1.11352539 C-1.94946289 0.11352539 -1.94946289 0.11352539 0 0 Z " fill="#99A5B7" transform="translate(67.949462890625,54.886474609375)"/>
<path d="M0 0 C6.6 0 13.2 0 20 0 C21.5478616 3.0957232 20.83182026 6.26504398 20.5625 9.625 C20.376875 12.05875 20.19125 14.4925 20 17 C13.4 17 6.8 17 0 17 C0 11.39 0 5.78 0 0 Z " fill="#9AA6B7" transform="translate(14,55)"/>
<path d="M0 0 C0.33 0 0.66 0 1 0 C1 2.64 1 5.28 1 8 C10.24 8 19.48 8 29 8 C29.33 7.01 29.66 6.02 30 5 C30 5.99 30 6.98 30 8 C40.89 8 51.78 8 63 8 C63 6.68 63 5.36 63 4 C61.68 3.67 60.36 3.34 59 3 C59 2.34 59 1.68 59 1 C63.6811945 0.83274676 68.36255101 0.67215136 73.04418945 0.51782227 C74.63800256 0.46433206 76.23175485 0.40899745 77.82543945 0.35180664 C80.11135742 0.27009058 82.39740946 0.19493103 84.68359375 0.12109375 C85.40026718 0.09405869 86.11694061 0.06702362 86.85533142 0.03916931 C88.56947767 -0.01297644 90.28510176 -0.01185628 92 0 C93.785612 1.785612 93 4.59156925 93 7 C93.495 7.99 93.495 7.99 94 9 C62.32 9 30.64 9 -2 9 C-1.67 8.34 -1.34 7.68 -1 7 C-1 5.989375 -1 4.97875 -1 3.9375 C-1 1 -1 1 0 0 Z " fill="#7A84A1" transform="translate(4,80)"/>
<path d="M0 0 C10.56 0 21.12 0 32 0 C32 0.66 32 1.32 32 2 C31.01 2.66 30.02 3.32 29 4 C28.67 4.99 28.34 5.98 28 7 C18.76 7 9.52 7 0 7 C0 4.69 0 2.38 0 0 Z " fill="#7B85A1" transform="translate(5,81)"/>
<path d="M0 0 C5.28 0 10.56 0 16 0 C15.50655214 9.49887133 15.50655214 9.49887133 13.17578125 11.8046875 C10.02126352 13.53769006 7.5350426 13.32136751 4 13 C1 11 1 11 0 8 C0 5.36 0 2.72 0 0 Z " fill="#FC4B3C" transform="translate(9,36)"/>
<path d="M0 0 C4.95 0 9.9 0 15 0 C15.48372093 7.25581395 15.48372093 7.25581395 13.375 10.5 C10.25991849 12.4674199 8.62829011 12.5923739 5 12 C2.125 10.5 2.125 10.5 0 8 C-0.42242213 5.19811145 -0.23816991 2.8580389 0 0 Z " fill="#F1FBFE" transform="translate(59,36)"/>
<path d="M0 0 C4.95 0 9.9 0 15 0 C15 7 15 7 12.875 9.9375 C10 12 10 12 6.9375 12.5625 C4 12 4 12 1.625 10.5 C-0.73613198 6.86748926 -0.2854378 4.28156703 0 0 Z " fill="#ECF9FE" transform="translate(26,36)"/>
<path d="M0 0 C3.96 0 7.92 0 12 0 C13 4 13 4 13 11 C8.05 11 3.1 11 -2 11 C-1 4 -1 4 0 0 Z " fill="#F04B3F" transform="translate(44,24)"/>
<path d="M0 0 C5.20411454 -0.78791267 9.32112767 -1.20878808 13.734375 1.96875 C20 8.27428344 20 8.27428344 20 10 C17.5821288 10.10826289 15.16912444 10.18739789 12.75 10.25 C11.72712891 10.30027344 11.72712891 10.30027344 10.68359375 10.3515625 C7.23525893 10.41852046 5.36488209 10.27132258 2.5625 8.1875 C0.6293697 5.48111758 0.29816474 3.27981213 0 0 Z " fill="#F44C3F" transform="translate(70,25)"/>
<path d="M0 0 C0.99386719 0.02707031 1.98773437 0.05414062 3.01171875 0.08203125 C4.15060547 0.13423828 4.15060547 0.13423828 5.3125 0.1875 C5.01433526 3.46731213 4.6831303 5.66861758 2.75 8.375 C-0.5742536 10.84688088 -3.47314531 10.63234541 -7.4375 10.4375 C-8.13488281 10.41945313 -8.83226562 10.40140625 -9.55078125 10.3828125 C-11.26361539 10.33588554 -12.97573824 10.26414605 -14.6875 10.1875 C-13.75159496 9.0819811 -12.81370142 7.97814547 -11.875 6.875 C-11.35292969 6.26011719 -10.83085937 5.64523438 -10.29296875 5.01171875 C-9.76316406 4.40972656 -9.23335937 3.80773437 -8.6875 3.1875 C-8.2440625 2.6203125 -7.800625 2.053125 -7.34375 1.46875 C-4.91588003 -0.40941356 -3.01783274 -0.10651174 0 0 Z " fill="#F44B3E" transform="translate(24.6875,24.8125)"/>
<path d="M0 0 C5.28 0 10.56 0 16 0 C16 6 16 6 15 7.8125 C11.17739635 10.08217092 6.88469721 10.33827899 2.5625 9.5625 C-0.10435939 6.89564061 0.2366008 3.66731237 0 0 Z " fill="#FC4C3C" transform="translate(75,36)"/>
<path d="M0 0 C5.28 0 10.56 0 16 0 C15 7 15 7 12.875 9 C9.19974309 10.27835023 6.76027054 9.85138201 3 9 C2.34 8.67 1.68 8.34 1 8 C0.40644386 5.35139573 0.25790731 2.70802678 0 0 Z " fill="#FE4B3B" transform="translate(42,36)"/>
<path d="M0 0 C3.80177972 -0.54794334 7.22268404 -0.78758851 11 0 C13.76145814 2.63095445 15.44679683 5.53314568 17 9 C17 9.33 17 9.66 17 10 C11.72 10 6.44 10 1 10 C0.67 6.7 0.34 3.4 0 0 Z " fill="#EFF8FC" transform="translate(57,25)"/>
<path d="M0 0 C1.51400391 0.01740234 1.51400391 0.01740234 3.05859375 0.03515625 C4.07050781 0.04417969 5.08242188 0.05320312 6.125 0.0625 C7.29869141 0.07990234 7.29869141 0.07990234 8.49609375 0.09765625 C8.16609375 3.39765625 7.83609375 6.69765625 7.49609375 10.09765625 C2.21609375 10.09765625 -3.06390625 10.09765625 -8.50390625 10.09765625 C-3.02204888 0.11786462 -3.02204888 0.11786462 0 0 Z " fill="#EFF8FC" transform="translate(34.50390625,24.90234375)"/>
<path d="M0 0 C0.33 0 0.66 0 1 0 C1 2.64 1 5.28 1 8 C10.24 8 19.48 8 29 8 C29.33 7.01 29.66 6.02 30 5 C30 5.99 30 6.98 30 8 C50.13 8 70.26 8 91 8 C91 7.01 91 6.02 91 5 C88.36 5 85.72 5 83 5 C83 4.67 83 4.34 83 4 C85.64 4 88.28 4 91 4 C91.33 2.68 91.66 1.36 92 0 C93.785612 1.785612 93 4.59156925 93 7 C93.495 7.99 93.495 7.99 94 9 C62.32 9 30.64 9 -2 9 C-1.67 8.34 -1.34 7.68 -1 7 C-1 5.989375 -1 4.97875 -1 3.9375 C-1 1 -1 1 0 0 Z " fill="#41527E" transform="translate(4,80)"/>
<path d="M0 0 C3.0625 2.4375 3.0625 2.4375 5 5 C5 5.66 5 6.32 5 7 C-2.26 7 -9.52 7 -17 7 C-13.08694552 -0.82610897 -8.31238296 -2.16908067 0 0 Z " fill="#E34940" transform="translate(56,13)"/>
<path d="M0 0 C0.66 0.33 1.32 0.66 2 1 C1.67 5.95 1.34 10.9 1 16 C7.6 16 14.2 16 21 16 C21 11.05 21 6.1 21 1 C21.33 1 21.66 1 22 1 C22.1938211 3.97888126 22.38035102 6.95790246 22.5625 9.9375 C22.61857422 10.78763672 22.67464844 11.63777344 22.73242188 12.51367188 C22.78076172 13.32255859 22.82910156 14.13144531 22.87890625 14.96484375 C22.9260376 15.7137085 22.97316895 16.46257324 23.02172852 17.23413086 C23 19 23 19 22 20 C20.36527118 20.08700342 18.72685945 20.10701063 17.08984375 20.09765625 C16.10048828 20.09443359 15.11113281 20.09121094 14.09179688 20.08789062 C13.05087891 20.07951172 12.00996094 20.07113281 10.9375 20.0625 C9.89271484 20.05798828 8.84792969 20.05347656 7.77148438 20.04882812 C5.1809334 20.03699913 2.59049441 20.02051689 0 20 C-1.19799449 15.85340627 -0.8896192 12.00630953 -0.5625 7.75 C-0.51029297 7.00492188 -0.45808594 6.25984375 -0.40429688 5.4921875 C-0.2751783 3.66105139 -0.13834886 1.83046187 0 0 Z " fill="#727892" transform="translate(13,56)"/>
<path d="M0 0 C0.33 0 0.66 0 1 0 C1 4.95 1 9.9 1 15 C7.6 15 14.2 15 21 15 C21 10.05 21 5.1 21 0 C21.33 0 21.66 0 22 0 C22.1938211 2.97888126 22.38035102 5.95790246 22.5625 8.9375 C22.61857422 9.78763672 22.67464844 10.63777344 22.73242188 11.51367188 C22.78076172 12.32255859 22.82910156 13.13144531 22.87890625 13.96484375 C22.9260376 14.7137085 22.97316895 15.46257324 23.02172852 16.23413086 C23 18 23 18 22 19 C20.36527118 19.08700342 18.72685945 19.10701063 17.08984375 19.09765625 C16.10048828 19.09443359 15.11113281 19.09121094 14.09179688 19.08789062 C13.05087891 19.07951172 12.00996094 19.07113281 10.9375 19.0625 C9.89271484 19.05798828 8.84792969 19.05347656 7.77148438 19.04882812 C5.1809334 19.03699913 2.59049441 19.02051689 0 19 C-1.14665967 15.00020398 -0.89996471 11.35388115 -0.5625 7.25 C-0.48418945 6.20392578 -0.48418945 6.20392578 -0.40429688 5.13671875 C-0.27525928 3.42403797 -0.13840386 1.71194934 0 0 Z " fill="#707791" transform="translate(65,57)"/>
<path d="M0 0 C4.62 0 9.24 0 14 0 C14 2.64 14 5.28 14 8 C9.38 8 4.76 8 0 8 C0 5.36 0 2.72 0 0 Z " fill="#FAC993" transform="translate(43,69)"/>
<path d="M0 0 C4.62 0 9.24 0 14 0 C14 2.64 14 5.28 14 8 C9.38 8 4.76 8 0 8 C0 5.36 0 2.72 0 0 Z " fill="#FFCD93" transform="translate(43,57)"/>
<path d="M0 0 C10.56 0 21.12 0 32 0 C32 0.99 32 1.98 32 3 C21.44 3 10.88 3 0 3 C0 2.01 0 1.02 0 0 Z " fill="#A8B1C3" transform="translate(34,85)"/>
<path d="M0 0 C7.92 0 15.84 0 24 0 C24 0.99 24 1.98 24 3 C16.08 3 8.16 3 0 3 C0 2.01 0 1.02 0 0 Z " fill="#A1AABF" transform="translate(38,81)"/>
<path d="M0 0 C0.33 0 0.66 0 1 0 C1.66 2.64 2.32 5.28 3 8 C8.83394389 9.10643764 11.76579213 9.27137992 17 6 C16.39816251 8.02045442 15.72693904 10.02111039 15 12 C9.83425119 14.5828744 4.19700934 12.5990798 -1 11 C-1.99 11 -2.98 11 -4 11 C-3.525625 10.67 -3.05125 10.34 -2.5625 10 C-0.14208385 6.90186733 -0.31801083 3.87973208 0 0 Z " fill="#B9777E" transform="translate(74,36)"/>
<path d="M0 0 C2.97 0 5.94 0 9 0 C9 2.31 9 4.62 9 7 C6.03 7 3.06 7 0 7 C0 4.69 0 2.38 0 0 Z " fill="#E2F6FD" transform="translate(77,65)"/>
<path d="M0 0 C2.97 0 5.94 0 9 0 C9 2.31 9 4.62 9 7 C6.03 7 3.06 7 0 7 C0 4.69 0 2.38 0 0 Z " fill="#F0FAFE" transform="translate(66,65)"/>
<path d="M0 0 C2.97 0 5.94 0 9 0 C9 2.31 9 4.62 9 7 C6.03 7 3.06 7 0 7 C0 4.69 0 2.38 0 0 Z " fill="#E2F7FE" transform="translate(25,65)"/>
<path d="M0 0 C2.97 0 5.94 0 9 0 C9 2.31 9 4.62 9 7 C6.03 7 3.06 7 0 7 C0 4.69 0 2.38 0 0 Z " fill="#F0F9FD" transform="translate(14,65)"/>
<path d="M0 0 C2.97 0 5.94 0 9 0 C9 2.31 9 4.62 9 7 C6.03 7 3.06 7 0 7 C0 4.69 0 2.38 0 0 Z " fill="#D9F0FA" transform="translate(77,57)"/>
<path d="M0 0 C2.97 0 5.94 0 9 0 C9 2.31 9 4.62 9 7 C6.03 7 3.06 7 0 7 C0 4.69 0 2.38 0 0 Z " fill="#D5F1FC" transform="translate(66,57)"/>
<path d="M0 0 C2.97 0 5.94 0 9 0 C9 2.31 9 4.62 9 7 C6.03 7 3.06 7 0 7 C0 4.69 0 2.38 0 0 Z " fill="#D9F0FA" transform="translate(25,57)"/>
<path d="M0 0 C2.97 0 5.94 0 9 0 C9 2.31 9 4.62 9 7 C6.03 7 3.06 7 0 7 C0 4.69 0 2.38 0 0 Z " fill="#D4F0FB" transform="translate(14,57)"/>
<path d="M0 0 C0.33 0.99 0.66 1.98 1 3 C2.41433206 3.2236337 3.83167618 3.42826476 5.25 3.625 C6.03890625 3.74101563 6.8278125 3.85703125 7.640625 3.9765625 C10.37109687 4.00368639 11.7061813 3.44098867 14 2 C14.66 1.34 15.32 0.68 16 0 C15.67842796 2.97454134 15.37860258 4.59335278 13.3125 6.8125 C10.24756099 8.3863876 8.40910465 8.48701495 5 8 C2.125 6.25 2.125 6.25 0 4 C0 2.68 0 1.36 0 0 Z " fill="#C1606C" transform="translate(42,41)"/>
<path d="M0 0 C0.61875 0.515625 1.2375 1.03125 1.875 1.5625 C6.38101042 3.63526479 10.20627283 2.77258127 15 2 C13.25 5.875 13.25 5.875 11 7 C4.52941176 7.35294118 4.52941176 7.35294118 1 5 C0.3125 2.375 0.3125 2.375 0 0 Z " fill="#AA606F" transform="translate(9,42)"/>
<path d="M0 0 C0.33 0 0.66 0 1 0 C1.103125 1.258125 1.20625 2.51625 1.3125 3.8125 C1.7261187 7.26743263 2.26538436 8.74096969 5 11 C5 11.99 5 12.98 5 14 C4.0925 13.62875 3.185 13.2575 2.25 12.875 C-0.88097015 11.69640701 -0.88097015 11.69640701 -3.375 12.875 C-3.91125 13.24625 -4.4475 13.6175 -5 14 C-5 13.34 -5 12.68 -5 12 C-4.01 11.34 -3.02 10.68 -2 10 C-1.20201782 7.58392583 -1.20201782 7.58392583 -0.8125 4.875 C-0.65394531 3.96492188 -0.49539062 3.05484375 -0.33203125 2.1171875 C-0.22246094 1.41851562 -0.11289062 0.71984375 0 0 Z " fill="#BCA494" transform="translate(25,36)"/>
<path d="M0 0 C0.66 0.33 1.32 0.66 2 1 C3.53668865 1.22467831 5.07968054 1.40796805 6.625 1.5625 C7.44226562 1.64628906 8.25953125 1.73007813 9.1015625 1.81640625 C9.72804688 1.87699219 10.35453125 1.93757812 11 2 C11 2.66 11 3.32 11 4 C6.05 4.33 1.1 4.66 -4 5 C-2.68 3.35 -1.36 1.7 0 0 Z " fill="#D24A48" transform="translate(44,13)"/>
<path d="M0 0 C1.98 0 3.96 0 6 0 C6 1.98 6 3.96 6 6 C4.68 6 3.36 6 2 6 C1.34 4.02 0.68 2.04 0 0 Z " fill="#F0F9FD" transform="translate(80,57)"/>
<path d="M0 0 C1.98 0 3.96 0 6 0 C6 1.98 6 3.96 6 6 C4.68 6 3.36 6 2 6 C1.34 4.02 0.68 2.04 0 0 Z " fill="#F1FAFD" transform="translate(28,57)"/>
<path d="M0 0 C0.33 0.66 0.66 1.32 1 2 C3.34907875 2.68931344 3.34907875 2.68931344 6.0625 3.125 C6.98160156 3.29257812 7.90070312 3.46015625 8.84765625 3.6328125 C9.91306641 3.81457031 9.91306641 3.81457031 11 4 C10.67 4.66 10.34 5.32 10 6 C7.6859378 6.73075648 5.35171131 7.40138258 3 8 C0.4345406 5.4345406 0.45953913 3.52313332 0 0 Z " fill="#DDB488" transform="translate(9,45)"/>
<path d="M0 0 C1.65 0 3.3 0 5 0 C5 2.31 5 4.62 5 7 C4.01 6.67 3.02 6.34 2 6 C0.8125 2.9375 0.8125 2.9375 0 0 Z " fill="#D4F4FF" transform="translate(70,65)"/>
<path d="M0 0 C1.65 0 3.3 0 5 0 C5 2.31 5 4.62 5 7 C4.01 6.67 3.02 6.34 2 6 C0.8125 2.9375 0.8125 2.9375 0 0 Z " fill="#D4F4FF" transform="translate(18,65)"/>
<path d="M0 0 C0.804375 0.495 0.804375 0.495 1.625 1 C5.75373677 2.73841548 9.78275157 2.2976149 14 1 C12.875 3 12.875 3 11 5 C8.125 5.5625 8.125 5.5625 5 5 C2.125 2.5 2.125 2.5 0 0 Z " fill="#D1EFFB" transform="translate(59,43)"/>
<path d="M0 0 C0.66 0 1.32 0 2 0 C2.99 2.31 3.98 4.62 5 7 C3.35 7 1.7 7 0 7 C0 4.69 0 2.38 0 0 Z " fill="#D5F4FF" transform="translate(77,65)"/>
<path d="M0 0 C0.66 0 1.32 0 2 0 C2.99 2.31 3.98 4.62 5 7 C3.35 7 1.7 7 0 7 C0 4.69 0 2.38 0 0 Z " fill="#D5F4FF" transform="translate(25,65)"/>
<path d="M0 0 C0.721875 0.474375 1.44375 0.94875 2.1875 1.4375 C4.89475226 2.94152903 6.96194275 3.56599182 10 4 C10 4.66 10 5.32 10 6 C7.03 5.67 4.06 5.34 1 5 C0.67 3.35 0.34 1.7 0 0 Z " fill="#E56569" transform="translate(9,42)"/>
<path d="M0 0 C0.66 0.33 1.32 0.66 2 1 C2 2.98 2 4.96 2 7 C1.01 7.495 1.01 7.495 0 8 C0 7.01 0 6.02 0 5 C-2.64 5 -5.28 5 -8 5 C-8 4.67 -8 4.34 -8 4 C-5.36 4 -2.72 4 0 4 C0 2.68 0 1.36 0 0 Z " fill="#485474" transform="translate(95,80)"/>
</svg>
