<svg width="595" height="279" viewBox="0 0 595 279" fill="none" xmlns="http://www.w3.org/2000/svg">
<path d="M246.701 197.124C243.634 199.258 243.501 199.391 239.367 235.124C236.034 264.191 236.034 263.124 240.567 263.124C246.167 263.124 248.701 260.591 250.567 253.124L252.167 246.458H258.167H264.034L265.234 252.458C265.767 255.791 267.501 259.524 269.101 260.724C271.901 263.258 279.501 264.058 279.501 261.791C279.501 255.924 272.567 200.991 271.501 199.124C269.767 195.791 267.234 195.124 257.634 195.124C252.567 195.124 248.301 195.924 246.701 197.124ZM262.034 220.458C263.367 232.858 263.367 234.591 261.501 235.924C259.234 237.524 254.701 236.991 253.367 234.991C252.301 233.124 255.634 208.058 257.234 206.058C259.501 203.258 260.301 205.791 262.034 220.458Z" fill="#55A8C2"/>
<path d="M303.501 229.124V263.124H320.167C336.567 263.124 336.834 263.124 336.834 260.058C336.834 254.591 334.701 253.124 325.901 252.458L317.501 251.791L317.101 225.791C316.834 201.124 316.701 199.658 314.034 197.391C312.434 196.191 309.501 195.124 307.367 195.124H303.501V229.124Z" fill="#55A8C2"/>
<path d="M360.834 197.791C358.567 200.058 358.167 202.191 358.167 213.791C358.167 230.324 359.634 232.458 370.701 232.458C374.701 232.458 379.501 232.991 381.501 233.791C384.834 234.991 384.967 235.524 384.567 243.391L384.167 251.791L377.901 252.191C371.634 252.591 371.501 252.458 371.501 248.724C371.501 243.258 368.701 240.324 363.501 240.058L358.834 239.791L358.434 248.724C357.901 262.058 359.367 263.124 378.167 263.124C397.767 263.124 398.167 262.858 398.167 244.058C398.167 226.191 397.767 225.658 383.367 223.791L372.167 222.458L371.767 214.058L371.367 205.791H378.167C384.701 205.791 384.834 205.924 384.834 209.791C384.834 212.058 386.034 214.991 387.501 216.458C388.967 217.924 391.901 219.124 394.167 219.124H398.167V209.258C398.167 195.791 397.101 195.124 377.901 195.124C365.234 195.124 363.234 195.391 360.834 197.791Z" fill="#55A8C2"/>
<path d="M431.501 197.524C428.701 199.791 428.167 202.724 424.967 230.991C422.967 247.924 421.634 262.191 422.034 262.458C422.301 262.858 424.167 263.124 426.167 263.124C430.701 263.124 435.501 258.058 435.501 252.991C435.501 247.924 436.701 246.458 441.234 245.258C447.767 243.658 449.767 245.258 450.567 252.058C451.367 259.391 454.967 263.124 461.101 263.124C465.234 263.124 465.234 263.124 464.434 256.724C464.034 253.258 462.301 239.124 460.701 225.258C457.101 194.991 457.234 195.124 443.634 195.124C436.701 195.124 433.767 195.791 431.501 197.524ZM445.234 207.791C445.767 208.858 446.434 215.791 446.967 223.124L447.901 236.591L443.367 236.191C437.634 235.658 437.234 233.524 439.634 217.391C441.234 206.458 443.367 202.724 445.234 207.791Z" fill="#55A8C2"/>
<path d="M491.767 197.258C488.834 199.258 488.834 199.791 488.834 228.991C488.834 264.058 488.434 263.124 502.301 263.124C509.367 263.124 511.101 263.524 512.567 265.791C513.767 267.791 515.634 268.458 520.301 268.458C525.501 268.458 526.301 268.191 525.634 266.058C525.101 264.724 525.767 261.658 526.967 259.391C528.701 255.791 528.967 250.991 528.301 226.858C527.767 201.924 527.367 198.324 525.367 196.858C521.767 194.191 495.634 194.458 491.767 197.258ZM513.901 207.391C516.301 209.791 516.167 249.791 513.767 249.791C512.834 249.791 511.501 249.258 510.834 248.591C510.034 247.924 508.034 247.124 506.167 246.858C502.834 246.458 502.834 246.458 502.167 229.124C501.367 208.058 501.901 205.791 507.901 205.791C510.301 205.791 512.967 206.458 513.901 207.391Z" fill="#55A8C2"/>
<path d="M554.167 229.124V263.124H558.567C565.501 263.124 567.501 259.924 567.501 248.591C567.501 241.124 567.901 238.858 569.634 238.191C572.301 237.258 573.367 238.858 576.967 249.391C580.034 258.724 584.434 263.124 590.301 263.124C592.434 263.124 594.167 262.724 594.167 262.058C594.167 261.524 592.567 256.458 590.567 250.858L586.967 240.591L590.567 237.791C594.167 234.991 594.167 234.858 594.167 217.658C594.167 194.591 594.701 195.124 571.501 195.124H554.167V229.124ZM580.567 217.391C580.967 228.058 580.834 228.458 577.634 229.258C575.901 229.658 572.967 229.791 571.367 229.524C568.434 229.124 568.167 228.458 567.767 219.258C567.234 206.191 567.634 205.524 574.434 206.058L580.167 206.458L580.567 217.391Z" fill="#55A8C2"/>
<path d="M226.931 1.77277C208.665 4.57277 170.931 13.6394 150.531 20.3061C133.198 25.9061 118.398 32.3061 107.331 38.8394C104.665 40.4394 101.998 41.2394 101.465 40.8394C99.8645 39.1061 102.131 33.6394 107.198 27.1061L112.131 20.5728L102.798 25.6394C81.3312 37.5061 71.0645 46.5728 66.7979 57.9061C64.7979 63.1061 64.6645 65.1061 65.9979 72.3061C67.8645 82.3061 67.9979 89.1061 66.3979 91.6394C64.9312 93.9061 64.3979 92.1728 62.1312 79.2394C59.8645 65.9061 61.1979 54.3061 65.5979 47.6394C67.4645 44.5728 68.9312 41.9061 68.5312 41.6394C67.4645 40.5728 49.9979 51.1061 45.4645 55.6394C38.1312 62.9728 37.3312 68.1728 40.9312 83.5061C44.1312 97.2394 45.8645 119.106 44.3979 126.973C43.1979 133.239 40.2645 136.173 36.9312 134.439C31.9979 131.773 23.1979 133.106 12.9312 138.173C4.39786 142.439 2.66453 143.773 1.19786 148.039C-0.935472 153.506 -0.135472 160.439 2.93119 164.573C4.66453 166.973 4.79786 166.839 5.73119 162.706C6.66453 158.173 9.46453 157.239 14.3979 159.773C18.1312 161.906 22.9312 172.439 24.7979 182.973C26.7979 194.706 31.0645 202.839 39.3312 211.106C55.5979 227.373 82.7979 237.106 106.265 235.373L116.931 234.573L123.198 240.039C130.398 246.306 145.065 256.039 145.865 255.239C146.265 254.973 143.998 252.173 141.065 249.106C135.731 243.639 133.331 238.973 134.798 237.506C135.198 236.973 139.065 239.773 143.198 243.506C159.331 258.039 184.131 278.439 185.465 278.439C186.265 278.439 183.331 274.839 178.931 270.439C169.865 261.239 169.865 258.306 179.065 265.906C182.398 268.706 186.798 272.306 188.798 273.773C191.998 276.306 191.998 276.039 187.998 271.106C182.931 264.573 163.465 245.639 156.665 240.573C150.531 236.039 150.265 234.439 155.731 234.439C160.398 234.439 159.865 232.439 154.931 231.239C150.665 230.173 138.265 222.573 138.265 220.973C138.265 220.439 145.865 219.906 155.331 220.039C177.065 220.173 203.865 217.106 205.598 214.439C205.998 213.773 198.398 210.839 188.798 207.639C170.265 201.773 168.798 199.773 182.531 199.773C191.331 199.773 210.131 196.439 212.131 194.439C213.065 193.506 204.798 193.106 186.798 193.106C154.398 193.106 133.998 191.906 135.198 190.039C135.731 189.106 149.865 188.973 176.265 189.506C198.531 189.906 218.665 189.773 221.065 189.106C223.598 188.573 227.331 187.639 229.598 187.106C235.465 185.773 231.731 184.306 217.198 182.439C208.131 181.106 198.398 180.973 181.865 181.773C169.198 182.439 153.198 182.973 146.265 183.106C135.865 183.373 132.131 184.039 125.198 186.973C116.398 190.706 97.5979 192.973 88.7979 191.239C83.5979 190.306 73.4645 182.706 75.1979 180.973C75.7312 180.439 79.1979 180.839 82.7979 182.039C88.5312 183.906 91.3312 184.039 104.131 182.706C119.331 181.106 139.998 175.906 142.798 173.106C143.865 171.906 143.598 171.639 141.598 172.306C136.398 173.773 117.465 176.973 108.265 177.773C94.2645 179.106 74.9312 175.506 68.5312 170.306L65.0645 167.639L67.8645 160.706C75.5979 141.639 76.1312 138.439 76.1312 105.906L76.2645 75.5061L78.9312 83.2394C81.1979 90.0394 81.4645 94.8394 81.5979 117.106C81.5979 140.439 81.3312 144.039 78.6645 152.573C76.9312 157.773 75.5979 162.573 75.5979 163.106C75.5979 165.373 108.265 162.573 121.198 159.239C133.065 156.173 158.131 145.906 156.798 144.573C156.398 144.173 150.798 144.839 144.265 145.773C137.598 146.839 123.598 148.573 112.931 149.639C102.265 150.839 91.5979 152.039 89.3312 152.573C85.5979 153.239 84.9312 152.973 84.9312 150.706C84.9312 147.239 87.5979 145.106 93.4645 144.173C96.6645 143.639 100.131 141.506 103.865 137.906C107.731 134.173 112.798 131.106 119.598 128.573C133.598 123.239 159.465 111.639 160.265 110.439C160.665 109.773 158.131 110.173 154.665 111.239C151.198 112.306 140.931 114.706 131.731 116.573C114.931 120.039 93.4645 126.706 91.0645 129.106C88.9312 131.239 87.5979 130.706 87.5979 127.773C87.5979 124.306 93.7312 118.439 97.3312 118.439C98.6645 118.439 101.731 116.439 104.131 114.039C110.931 106.839 115.465 104.439 132.265 99.2394C149.731 93.9061 163.331 88.1728 173.465 81.9061C180.798 77.5061 179.998 75.7728 172.131 79.1061C169.331 80.3061 154.931 84.4394 139.998 88.5728C109.198 96.8394 104.131 98.8394 95.0645 105.773L88.5312 110.706L89.4645 106.839C89.9979 104.839 92.3979 100.973 94.9312 98.4394C97.4645 95.9061 101.331 91.5061 103.598 88.8394C107.331 84.4394 109.865 83.2394 125.331 78.3061C147.331 71.2394 159.731 66.3061 182.265 55.6394C209.598 42.5728 204.531 43.5061 147.598 61.7728C113.198 72.7061 106.665 76.3061 97.5979 88.4394C95.7312 91.1061 95.7312 90.9728 95.5979 87.7728C95.5979 83.1061 99.7312 76.9728 106.265 71.6394C109.465 69.1061 114.665 64.5728 118.131 61.6394C126.398 54.1728 132.131 51.5061 150.265 46.4394C170.265 40.9728 192.531 33.1061 211.598 24.8394C223.731 19.6394 228.798 16.5728 235.998 10.3061C240.931 5.77277 244.931 1.63944 244.931 0.972772C244.931 -0.493895 241.998 -0.360561 226.931 1.77277ZM21.4645 150.839C26.1312 154.573 26.9312 154.839 30.7979 153.239C39.4645 149.773 38.9312 148.973 38.9312 164.706C39.0645 172.573 39.3312 182.439 39.7312 186.573C40.5312 194.839 45.5979 204.839 50.6645 208.439C53.3312 210.306 53.5979 210.306 53.9979 208.439C54.3979 206.973 56.5312 208.173 61.8645 213.106C71.4645 221.906 72.7979 221.906 70.3979 213.373C69.0645 208.706 70.3979 207.773 74.1312 210.839C77.1979 213.373 91.1979 218.439 95.3312 218.439C100.798 218.439 113.198 222.039 114.398 224.039C115.065 224.973 115.598 226.839 115.598 228.039C115.598 231.773 94.1312 231.373 78.6645 227.373C50.2645 219.906 32.1312 202.706 29.5979 180.439C29.0645 176.039 27.1979 169.639 25.4645 166.173C21.4645 158.306 21.4645 156.706 25.3312 157.773C27.5979 158.573 27.8645 158.306 26.7979 157.106C24.6645 154.973 10.1312 153.106 7.33119 154.706C3.86453 156.439 4.13119 151.773 7.73119 147.906C11.0645 144.439 13.9979 144.973 21.4645 150.839ZM141.331 201.239C153.731 202.706 182.531 209.639 186.265 212.039C188.931 213.773 167.198 212.173 154.265 209.639C141.598 207.373 123.465 201.106 124.398 199.506C124.798 198.839 125.998 198.573 127.065 198.973C128.131 199.373 134.531 200.439 141.331 201.239Z" fill="#55A8C2"/>
</svg>
