<svg version="1.1" id="Layer_1" xmlns="http://www.w3.org/2000/svg" xmlns:xlink="http://www.w3.org/1999/xlink" x="0px" y="0px"
	 width="100%" viewBox="0 0 288 480" enable-background="new 0 0 288 480" xml:space="preserve">
<path fill="#000000" opacity="1.000000" stroke="none" 
	d="
M123.000000,481.000000 
	C83.166672,481.000000 43.833214,480.957947 4.500290,481.083923 
	C1.516881,481.093475 0.917251,480.481873 0.918985,477.499969 
	C1.010700,319.833374 1.010692,162.166748 0.919016,4.500154 
	C0.917282,1.518642 1.517551,0.915079 4.499979,0.918253 
	C98.166519,1.017938 191.833206,1.017921 285.499756,0.918312 
	C288.481445,0.915141 289.082764,1.517635 289.081024,4.499887 
	C288.989288,162.166473 288.989288,319.833130 289.080933,477.499695 
	C289.082672,480.480835 288.483551,481.089264 285.500061,481.082977 
	C231.500229,480.969086 177.500076,481.000000 123.000000,481.000000 
z"/>
<path fill="#D4A10F" opacity="1.000000" stroke="none" 
	d="
M114.823586,302.652527 
	C111.820686,303.278778 110.076927,302.096466 109.955063,298.310425 
	C109.342964,279.293549 109.929321,260.423737 117.044083,242.429504 
	C122.545486,228.515656 128.478668,214.772644 133.988907,200.862183 
	C139.456161,187.060272 144.802185,173.155563 144.953033,158.012451 
	C145.046219,148.658966 140.895966,140.299973 137.863739,131.742798 
	C133.041458,118.133965 133.695145,105.023636 141.187805,92.654602 
	C143.808380,88.328514 143.776108,85.008385 141.394424,80.573647 
	C136.216660,70.932579 133.875977,60.292362 134.143784,49.420780 
	C134.391846,39.351288 135.236191,29.179333 142.015182,20.715776 
	C144.665802,17.406498 148.105789,15.242746 151.656189,13.218963 
	C152.689758,12.629811 154.342056,12.543158 155.268143,13.896167 
	C156.094040,15.102831 155.159027,16.264933 154.412582,16.792690 
	C140.961960,26.302647 142.008453,39.057060 145.833542,52.781540 
	C149.580963,66.227463 158.089981,76.772285 166.168732,87.564789 
	C175.386002,99.878258 185.215363,111.723686 194.628281,123.896255 
	C207.543350,140.597702 220.174957,157.487198 231.613983,175.210907 
	C248.897339,201.989807 264.626038,229.580444 274.135010,260.301086 
	C280.371643,280.449738 283.535492,301.010498 281.852936,322.000092 
	C280.423401,339.833405 276.215759,357.017548 265.543396,372.041870 
	C254.223755,387.977386 239.025452,397.219818 219.713364,400.054962 
	C206.311035,402.022522 193.211578,401.390106 180.313141,397.030029 
	C177.234924,395.989502 175.675537,394.532104 175.933655,391.034027 
	C176.308533,385.953430 177.524902,381.050842 178.369003,376.067505 
	C179.126724,371.594086 182.114716,371.342529 185.328552,372.187195 
	C197.313171,375.337006 208.937927,374.283112 220.527618,370.189453 
	C238.941071,363.685608 250.588394,350.138824 258.804108,333.287872 
	C266.305359,317.902283 267.090027,301.209747 265.824005,284.561615 
	C265.047516,274.350952 261.408386,264.604156 257.557037,255.078766 
	C245.718689,225.799622 228.373062,199.800415 209.992447,174.346283 
	C199.472305,159.777588 188.442230,145.608826 177.607605,131.288681 
	C168.349304,119.051979 158.611847,107.177826 149.091263,95.139389 
	C139.781952,104.981300 142.308533,118.984322 151.347733,129.863785 
	C160.751678,141.182220 171.262604,151.498779 180.938522,162.557861 
	C193.435791,176.841583 204.874008,191.854645 209.466125,210.879776 
	C211.585403,219.659988 211.558716,228.450180 209.955109,237.354675 
	C212.838837,237.479446 214.097305,235.347549 215.670959,233.807068 
	C219.718826,229.844467 223.734543,225.847183 227.685562,221.788269 
	C229.489868,219.934677 230.357910,219.195572 231.296722,222.622513 
	C234.832764,235.530182 237.529648,248.547485 239.141022,261.863770 
	C240.263611,271.140747 240.251770,280.175446 238.032074,289.217896 
	C235.810043,298.269928 230.986404,306.019745 225.267822,313.135590 
	C214.382095,326.681061 202.191010,339.077545 189.975662,351.400055 
	C179.006821,362.465179 174.897949,376.014038 172.861938,390.957794 
	C170.304138,409.731323 169.126328,428.669403 165.181229,447.295898 
	C161.360580,465.334747 145.220734,472.537445 128.791260,467.437195 
	C113.883972,462.809418 104.376808,452.095093 96.362862,439.649475 
	C93.462173,435.144714 91.379974,430.120178 88.758675,425.425262 
	C87.450607,423.082458 87.898628,421.707672 90.396759,420.906433 
	C92.521072,420.225006 94.460632,416.985687 96.742920,421.121063 
	C100.398712,427.745117 104.771980,433.903900 110.492470,438.989990 
	C117.451645,445.177429 125.351784,448.497559 134.385361,444.691101 
	C142.081512,441.448181 145.628433,433.975372 147.775284,426.667572 
	C151.872406,412.721130 152.933472,398.128357 154.963730,383.762665 
	C157.840317,363.408325 163.535553,344.565826 178.214554,328.991486 
	C188.593216,317.979767 199.676102,307.680176 209.878418,296.529297 
	C218.741852,286.841766 226.634003,276.457001 229.427231,263.151611 
	C229.560486,262.516876 229.928558,261.911224 229.962723,261.279877 
	C230.043442,259.788116 229.988632,258.289062 229.988632,256.294952 
	C222.409576,262.231567 215.128128,267.886627 207.900925,273.610199 
	C201.218689,278.902222 194.098648,283.751740 189.797363,291.487610 
	C189.240646,292.488892 187.806320,294.078827 187.049210,291.801300 
	C184.006287,282.647827 178.773087,273.870636 181.969376,263.548676 
	C183.275833,259.329681 186.217056,256.150513 188.792572,252.874725 
	C201.848434,236.268997 202.509888,216.752335 190.098770,199.465256 
	C182.202682,188.467056 173.459122,178.272705 164.070312,168.579575 
	C161.430054,165.853714 158.624573,163.294556 156.497803,160.091644 
	C155.919373,159.220551 155.136169,157.854584 153.821167,158.257446 
	C152.317215,158.718170 153.071732,160.250076 153.037994,161.287354 
	C152.935150,164.450302 152.912643,167.621536 153.014938,170.784500 
	C153.560013,187.637314 149.452530,203.500992 143.033539,218.917648 
	C137.459991,232.303772 129.850143,244.766479 125.140167,258.538391 
	C121.749687,268.452087 118.544907,278.409546 119.007103,289.092682 
	C119.227531,294.187775 118.323166,298.865936 114.823586,302.652527 
z"/>
<path fill="#D4A10F" opacity="1.000000" stroke="none" 
	d="
M109.626160,150.740143 
	C109.867973,152.795898 110.625130,154.678284 109.015244,156.648773 
	C106.655853,158.282806 105.486748,160.375778 104.227188,162.812439 
	C104.060631,163.095062 104.028366,163.028351 104.061737,163.044464 
	C102.118645,164.407883 99.397507,163.676453 97.278290,165.618103 
	C90.144638,166.932556 85.501366,163.557816 82.589378,157.912842 
	C80.755852,154.358521 80.604599,145.806244 85.565536,142.107071 
	C87.848831,140.988632 89.625923,139.712006 91.743233,138.369797 
	C95.579163,137.894287 99.156708,137.659271 103.304024,139.155182 
	C101.016747,134.221970 98.451424,130.415741 99.720184,124.970398 
	C101.249146,118.408325 105.409752,115.428658 111.018196,114.206871 
	C116.785568,112.950455 121.728867,114.983429 125.565468,119.919525 
	C129.341690,124.777954 130.434357,130.542740 131.886612,136.161255 
	C134.261230,145.348145 133.419434,154.928482 133.609711,164.219894 
	C133.882721,177.551437 130.629532,190.630035 125.078644,203.076080 
	C117.119049,220.922836 108.192863,238.317673 100.779602,256.424744 
	C93.912666,273.197449 88.462479,290.362122 85.079590,308.127838 
	C82.214111,323.176270 80.440285,338.396637 81.027985,353.771118 
	C81.429016,364.262024 82.595573,374.687805 84.518661,385.016785 
	C84.959183,387.382874 82.044411,391.730255 79.799881,391.963928 
	C78.031578,392.148071 78.161934,390.968719 77.964287,389.771515 
	C77.035950,384.148315 75.681709,378.576996 75.072388,372.923279 
	C73.584045,359.113342 72.486435,345.266541 72.995499,331.346619 
	C73.757744,310.503998 76.702034,290.073822 82.831734,270.033295 
	C88.760529,250.649597 96.757507,232.205139 105.426926,213.947571 
	C111.917625,200.278320 118.835258,186.757507 123.427925,172.243134 
	C123.850929,170.906296 123.947113,169.764328 123.816528,168.173737 
	C109.403580,185.390915 89.680847,195.234421 72.169800,207.963287 
	C54.972015,220.464478 39.060780,234.172501 28.922119,253.395142 
	C20.671976,269.037170 19.075253,285.864594 20.056528,303.135834 
	C20.154673,304.863281 20.883242,306.554932 21.379911,308.500946 
	C24.357254,304.661133 25.399475,299.966522 27.855196,295.955017 
	C33.116302,287.360809 46.809029,286.945648 52.841370,293.202454 
	C62.468887,303.188171 66.987549,315.246918 69.074730,328.626160 
	C69.920105,334.045135 69.917259,339.234375 69.167206,344.719055 
	C67.137817,359.558624 56.292347,362.961761 43.461945,358.164825 
	C37.956951,356.106659 34.633526,351.054077 28.826616,348.146271 
	C29.470234,366.459442 32.626350,383.312256 47.662270,394.871552 
	C56.443657,401.622498 68.332329,401.981659 80.119102,394.241028 
	C89.819794,387.870361 93.643295,377.518402 97.023048,366.997650 
	C102.234444,350.775269 103.313362,333.744110 106.941505,317.212250 
	C108.156700,311.675140 111.001305,307.298706 115.111610,303.129761 
	C115.262772,302.790802 115.173828,302.868195 115.138008,302.908936 
	C117.180779,303.276184 117.960350,301.485229 119.071426,300.383911 
	C126.210594,293.307404 134.494217,287.380341 140.440262,279.096680 
	C141.180908,278.064789 142.310303,277.311951 143.670090,276.048309 
	C145.786682,285.318756 147.359421,294.084290 146.983185,303.105438 
	C146.890152,305.335968 145.794052,307.483765 144.448761,308.840393 
	C138.973785,314.361450 133.970749,320.387146 127.681732,325.079590 
	C119.928864,330.864319 115.375618,338.132111 114.860970,348.268311 
	C114.015411,364.921936 111.583900,381.436493 105.954453,397.236328 
	C102.020180,408.278412 96.352921,418.262360 83.661392,421.040375 
	C70.370659,423.949524 57.896610,422.128448 47.288681,412.777130 
	C31.838518,399.157166 23.702328,381.801483 20.926603,361.595581 
	C19.895041,354.086334 18.796148,346.604004 19.028513,339.016022 
	C19.234156,332.300690 17.296824,326.003021 14.848514,320.002777 
	C8.479570,304.393921 6.715873,288.096100 8.188744,271.636536 
	C9.693511,254.820496 15.856914,239.474640 26.430897,225.999237 
	C39.056469,209.909286 55.807251,199.100906 72.859833,188.511902 
	C87.113800,179.660736 102.278770,172.075836 114.387962,160.089859 
	C120.586487,153.954376 123.363480,147.788483 123.855171,139.394302 
	C120.967224,140.565475 118.285576,141.883728 115.463203,142.735886 
	C112.333069,143.680908 109.570061,141.364929 106.270729,141.212418 
	C106.807823,142.303131 107.294151,143.290741 107.909836,144.587723 
	C108.916252,146.654984 107.646103,148.943512 109.626160,150.740143 
z"/>
<path fill="#D4A10F" opacity="1.000000" stroke="none" 
	d="
M130.738098,332.397614 
	C137.511139,341.634094 145.147171,349.579132 153.891907,356.391785 
	C157.514893,359.214294 156.441238,362.747406 155.854095,366.068237 
	C155.041306,370.665405 153.638611,375.158295 152.220123,380.754761 
	C146.184113,374.515442 140.108231,369.120117 135.164856,362.540833 
	C130.062561,355.750061 126.247772,348.193359 122.019905,340.885498 
	C119.341438,336.255768 121.344849,331.830475 126.376953,329.818787 
	C129.053604,328.748749 129.111649,331.463959 130.738098,332.397614 
z"/>
<path fill="#D4A10F" opacity="1.000000" stroke="none" 
	d="
M113.238586,423.265930 
	C117.276375,418.488281 121.511749,414.257263 124.679184,409.338501 
	C126.517891,406.483154 127.948395,407.067261 129.653259,408.372375 
	C133.814362,411.557800 137.778580,415.000305 141.825821,418.334747 
	C143.095352,419.380676 143.118423,420.238007 141.968704,421.602478 
	C137.762939,426.593872 133.712158,431.716888 129.653275,436.830231 
	C128.552704,438.216705 127.545593,438.052032 126.321083,437.063293 
	C121.751152,433.373352 117.133057,429.742676 112.588486,426.022003 
	C111.515831,425.143829 112.227333,424.260803 113.238586,423.265930 
z"/>
<path fill="#D4A10F" opacity="1.000000" stroke="none" 
	d="
M126.257553,380.342255 
	C129.096100,376.902710 131.754471,374.262207 135.006134,379.441650 
	C135.223007,379.787079 135.900650,379.809326 136.293350,380.083160 
	C147.244614,387.719452 147.422409,389.377930 138.344009,399.154266 
	C137.667786,399.882507 136.897400,400.525757 136.244720,401.273041 
	C130.527466,407.819366 130.559433,407.795441 124.049034,401.587433 
	C122.401749,400.016693 120.586121,398.600830 118.735855,397.269440 
	C115.554398,394.980103 115.843994,392.785156 118.339119,390.074188 
	C121.085693,387.089966 123.498466,383.798523 126.257553,380.342255 
z"/>
<path fill="#D4A10F" opacity="1.000000" stroke="none" 
	d="
M220.007996,332.022827 
	C220.941437,329.650177 221.801910,328.485901 224.352859,330.003876 
	C228.547913,332.500214 232.945526,334.695190 237.400558,336.699799 
	C239.763489,337.763092 240.201477,338.784821 239.033035,341.109100 
	C236.407974,346.330872 233.359390,351.358185 231.507812,356.953735 
	C230.652191,359.539459 228.900833,359.428589 226.842194,358.389435 
	C221.643051,355.764984 216.423431,353.181091 211.250488,350.600159 
	C214.192215,344.430328 217.061981,338.411438 220.007996,332.022827 
z"/>
<path fill="#D4A10F" opacity="1.000000" stroke="none" 
	d="
M155.410599,314.775208 
	C152.427200,313.658691 153.753296,311.634644 154.326553,310.408478 
	C156.945969,304.805542 159.942764,299.379425 162.577850,293.783295 
	C163.508759,291.806305 164.274551,292.074127 165.863617,292.925781 
	C170.449799,295.383759 175.122604,297.685577 179.814774,299.937500 
	C181.598099,300.793396 182.356491,301.467590 181.177292,303.620575 
	C178.288330,308.895264 175.601669,314.293213 173.111298,319.767883 
	C172.039490,322.124054 170.952530,322.015808 168.974075,321.040497 
	C164.619583,318.893951 160.155579,316.969604 155.410599,314.775208 
z"/>
<path fill="#D4A10F" opacity="1.000000" stroke="none" 
	d="
M171.725098,236.774994 
	C165.248413,244.245682 159.056061,251.491287 152.775375,258.659515 
	C151.972519,259.575806 151.152924,261.361969 149.719315,260.691772 
	C148.474594,260.109894 148.199936,258.423035 147.960098,256.914154 
	C147.209915,252.194580 149.368088,248.543182 152.257034,245.317337 
	C159.637589,237.076096 167.202362,229.000092 174.654099,220.822144 
	C176.312241,219.002411 177.797729,217.026108 179.382507,215.138535 
	C180.923462,213.303192 181.890411,214.175552 182.412933,215.928741 
	C183.478348,219.503601 183.734985,223.130997 181.207520,226.197571 
	C178.273865,229.757004 175.069199,233.093048 171.725098,236.774994 
z"/>
<path fill="#D4A10F" opacity="1.000000" stroke="none" 
	d="
M66.344864,264.196838 
	C64.137421,268.390625 61.124912,270.965424 56.664581,269.732849 
	C52.327934,268.534454 50.956139,265.061035 50.926483,260.561951 
	C50.830452,245.994629 59.049515,236.648407 70.145424,229.004837 
	C71.149010,228.313507 72.587067,227.123962 73.639450,228.515533 
	C74.809875,230.063156 73.328056,231.204910 72.256241,232.234741 
	C67.029434,237.256958 62.037590,242.470001 58.548725,248.922180 
	C57.604870,250.667709 56.875702,252.391357 56.944378,254.496719 
	C57.020721,256.837280 58.062691,258.381927 60.160206,258.887238 
	C62.484562,259.447205 63.898956,258.441437 64.141350,255.803986 
	C64.236771,254.765808 65.130257,253.770905 65.758430,252.821198 
	C66.269371,252.048737 67.121262,251.947342 67.981369,252.089630 
	C69.146767,252.282379 68.907181,253.243103 68.990555,254.013992 
	C69.377960,257.596069 68.020744,260.757294 66.344864,264.196838 
z"/>
<path fill="#D4A10F" opacity="1.000000" stroke="none" 
	d="
M187.694565,428.273071 
	C185.659561,423.974426 183.675323,420.073120 182.766495,415.699402 
	C182.484283,414.341309 181.674774,413.153503 183.280228,412.394440 
	C185.188599,411.492126 186.295380,413.358185 186.622787,414.414673 
	C187.604568,417.582581 189.312531,420.353821 190.710831,423.292053 
	C191.724640,425.422272 193.002594,427.794952 195.434052,427.828979 
	C198.180496,427.867462 198.930466,425.542511 199.148621,422.932587 
	C199.288147,421.263275 200.392502,420.988983 201.865417,422.300415 
	C204.343903,424.507141 207.299484,433.804352 205.711487,436.440948 
	C203.894562,439.457611 201.462540,441.225433 197.465729,439.201599 
	C192.802261,436.840210 189.814346,433.275787 187.694565,428.273071 
z"/>
<path fill="#D4A10F" opacity="1.000000" stroke="none" 
	d="
M97.375931,165.902145 
	C98.044571,162.542068 100.800491,163.099350 103.688705,163.050354 
	C102.762436,165.734283 99.933128,165.146133 97.375931,165.902145 
z"/>
<path fill="#D4A10F" opacity="1.000000" stroke="none" 
	d="
M104.366562,162.958313 
	C104.272118,160.316788 104.787636,157.744400 108.481461,157.042603 
	C108.272789,159.530609 106.419601,161.138199 104.366562,162.958313 
z"/>
<path fill="#D4A10F" opacity="1.000000" stroke="none" 
	d="
M109.902245,150.626297 
	C106.671432,150.098999 107.244576,147.855911 107.964005,145.242188 
	C109.296494,146.460922 109.740318,148.318192 109.902245,150.626297 
z"/>
<path fill="#D4A10F" opacity="1.000000" stroke="none" 
	d="
M91.649826,138.099396 
	C90.919281,140.450653 89.038269,141.580780 86.243668,141.933456 
	C87.103836,139.840317 89.020515,138.686523 91.649826,138.099396 
z"/>
<path fill="#000000" opacity="1.000000" stroke="none" 
	d="
M42.180634,335.954559 
	C41.478497,335.763885 41.204250,335.537109 40.891758,335.453796 
	C29.772594,332.490509 28.857906,329.141602 36.874733,320.642212 
	C38.016899,319.431305 39.151440,318.194824 40.419323,317.123871 
	C46.980110,311.582153 55.525421,314.220886 57.762730,322.442047 
	C58.710526,325.924774 53.117653,333.367310 48.325455,334.817871 
	C46.466412,335.380615 44.505299,335.606201 42.180634,335.954559 
z"/>
</svg>