<svg version="1.1" id="Layer_1" xmlns="http://www.w3.org/2000/svg" xmlns:xlink="http://www.w3.org/1999/xlink" x="0px" y="0px"
	 width="100%" viewBox="0 0 512 512" enable-background="new 0 0 512 512" xml:space="preserve">
<path fill="#FFFFFF" opacity="1.000000" stroke="none" 
	d="
M287.000000,513.000000 
	C191.356552,513.000000 96.213104,513.000000 1.034826,513.000000 
	C1.034826,342.398193 1.034826,171.796371 1.034826,1.097280 
	C171.560135,1.097280 342.120331,1.097280 512.840271,1.097280 
	C512.840271,171.666550 512.840271,342.333252 512.840271,513.000000 
	C437.796356,513.000000 362.648163,513.000000 287.000000,513.000000 
M11.987870,423.904022 
	C11.992198,435.218658 12.463684,446.556732 11.897906,457.842804 
	C10.900161,477.745667 25.455229,497.350739 47.462944,501.900208 
	C52.625000,501.868500 57.787060,501.836792 63.882164,501.959747 
	C87.937279,501.913452 111.992386,501.867157 136.967667,501.962463 
	C142.630753,501.921021 148.293854,501.879578 154.892349,501.966339 
	C178.941132,501.929626 202.989929,501.892914 227.955582,501.977631 
	C232.289337,501.931183 236.623108,501.884766 241.892288,501.966614 
	C266.944031,501.918030 291.995789,501.869446 317.963867,501.962280 
	C322.630035,501.928009 327.296204,501.893768 332.897339,501.985168 
	C357.945038,501.939789 382.992706,501.894379 408.964813,501.976746 
	C439.882843,501.976746 470.800873,501.976746 501.674255,501.976746 
	C501.674255,338.326385 501.674255,175.306763 501.674255,12.324656 
	C338.328400,12.324656 175.308762,12.324656 11.999555,12.324656 
	C11.999555,14.624290 11.999554,16.601065 11.999554,18.577839 
	C11.999557,119.379669 11.997285,220.181503 12.003890,320.983337 
	C12.004414,328.979553 12.066403,336.975769 11.976971,345.906097 
	C12.037728,359.284546 12.098486,372.663025 12.025298,386.964935 
	C12.053799,398.966522 12.082300,410.968140 11.987870,423.904022 
z"/>
<path fill="#ED7420" opacity="1.000000" stroke="none" 
	d="
M62.949116,501.805084 
	C57.787060,501.836792 52.625000,501.868500 47.167976,501.175293 
	C46.873013,468.780548 46.873013,437.110657 46.873013,404.660553 
	C39.072620,409.056610 32.351238,412.996857 25.482311,416.660492 
	C21.138988,418.977020 16.575518,420.880798 12.110799,422.969727 
	C12.082300,410.968140 12.053799,398.966522 12.439207,386.442108 
	C63.408199,360.858887 113.964767,335.801514 164.516907,310.735168 
	C173.126007,306.466339 173.153000,306.413940 179.861252,313.341370 
	C188.886307,322.661316 197.953003,331.944275 206.816757,341.416321 
	C223.614105,359.366425 240.305237,377.416229 256.971771,395.488007 
	C259.369904,398.088318 261.684662,398.384216 264.946869,397.086365 
	C305.365448,381.006226 345.835876,365.056335 386.266876,349.007263 
	C387.669312,348.450562 388.799988,347.209320 390.445557,346.192139 
	C394.884033,344.865723 398.934326,343.634308 402.993134,342.812714 
	C407.939728,353.425262 412.877808,363.627960 418.146179,374.513092 
	C419.177979,373.168884 419.529755,372.811127 419.765747,372.388641 
	C431.020233,352.240295 442.316284,332.114807 453.473297,311.912537 
	C456.181976,307.007843 458.429199,301.848358 460.931580,296.351318 
	C460.974548,263.046906 460.974548,230.197205 460.974548,196.788376 
	C454.672302,199.457504 449.113495,202.034683 443.385406,204.154510 
	C439.923248,205.435776 438.763824,207.265701 438.784302,211.064148 
	C438.927765,237.685638 438.777954,264.308685 438.336456,290.940918 
	C433.313721,289.962952 428.676453,288.975311 423.928131,287.530396 
	C423.817047,262.860199 423.817047,238.647278 423.817047,213.718170 
	C417.056335,216.595413 411.332916,219.215591 405.464508,221.455841 
	C402.220154,222.694336 401.058289,224.444794 401.089111,228.035660 
	C401.237762,245.353317 401.048615,262.673859 400.588776,279.988922 
	C394.590973,278.304504 388.983673,276.624542 383.289886,274.486694 
	C383.203369,253.100449 383.203369,232.172089 383.203369,211.485580 
	C382.286713,211.116119 381.992950,210.894943 381.698242,210.893738 
	C369.875153,210.845078 358.051636,210.743851 346.228943,210.805176 
	C334.130707,210.867935 324.255646,217.578552 320.062531,228.901413 
	C315.028290,242.495621 316.292053,255.692230 323.449646,268.308838 
	C324.287415,269.785614 325.157471,271.244080 326.160065,272.964111 
	C288.441162,272.964111 251.553879,272.964111 214.182220,272.964111 
	C214.182220,247.547333 214.182220,222.491058 214.182220,196.826691 
	C208.074371,199.415192 202.671860,201.945236 197.090469,203.986160 
	C193.328934,205.361633 191.897202,207.287399 191.939011,211.536560 
	C192.160202,234.016144 191.979935,256.499664 191.596832,278.961456 
	C189.163193,277.112579 187.092590,275.259338 184.974854,273.461609 
	C182.014801,270.948853 179.019592,268.477509 175.950684,265.527191 
	C175.861969,242.162766 175.861969,219.259613 175.861969,196.149734 
	C166.130722,196.149734 156.831879,196.057220 147.535477,196.169067 
	C128.399109,196.399261 114.352013,210.749893 114.329796,229.984741 
	C114.315956,241.974243 114.327225,253.963760 114.327217,265.953278 
	C114.327209,270.075958 114.327209,274.198639 114.327209,278.883728 
	C112.193947,278.883728 110.576820,278.882446 108.959694,278.883972 
	C99.634613,278.892761 90.308197,278.805176 80.984756,278.933441 
	C65.871124,279.141296 56.454453,286.587433 53.931900,301.587372 
	C52.593220,309.547577 53.111950,317.820099 52.429115,325.969971 
	C50.546738,326.589874 48.966301,327.071808 47.518009,327.812195 
	C37.251633,333.060730 27.028898,338.394928 16.745083,343.608795 
	C15.330036,344.326263 13.654678,344.530273 12.099826,344.971985 
	C12.066403,336.975769 12.004414,328.979553 12.003890,320.983337 
	C11.997285,220.181503 11.999557,119.379669 11.999554,18.577839 
	C11.999554,16.601065 11.999555,14.624290 11.999555,12.324656 
	C175.308762,12.324656 338.328400,12.324656 501.674255,12.324656 
	C501.674255,175.306763 501.674255,338.326385 501.674255,501.976746 
	C470.800873,501.976746 439.882843,501.976746 408.485657,501.454712 
	C408.001068,466.616272 407.811584,432.298004 408.148560,397.984924 
	C408.214386,391.280914 405.577667,386.322815 402.192841,381.229553 
	C401.457092,381.438354 400.970001,381.533600 400.515442,381.711761 
	C379.028198,390.131958 357.564270,398.612274 336.038483,406.932648 
	C332.549164,408.281372 331.956421,410.564362 331.965210,413.903839 
	C332.042450,443.222168 331.982025,472.540924 331.962372,501.859528 
	C327.296204,501.893768 322.630035,501.928009 317.496185,501.435181 
	C317.028503,472.806152 317.028503,444.704193 317.028503,416.120117 
	C314.929321,416.701874 313.482300,416.984100 312.122864,417.498016 
	C298.295868,422.725433 284.119965,427.223907 270.802521,433.532471 
	C262.801361,437.322754 258.177216,434.971527 252.960846,429.611938 
	C249.596802,426.155518 245.585953,423.328583 240.956863,419.460754 
	C240.956863,447.898804 240.956863,474.868561 240.956863,501.838348 
	C236.623108,501.884766 232.289337,501.931183 227.477829,501.458374 
	C226.994156,469.951538 226.916412,438.963531 227.070297,407.976715 
	C227.090240,403.956909 225.873077,401.168121 223.013214,398.412354 
	C207.912033,383.861053 193.015549,369.097626 177.986740,354.470795 
	C168.016647,344.767365 171.969543,345.512146 159.369827,351.222717 
	C155.325165,353.055908 153.863144,355.324982 153.880386,359.895599 
	C154.058975,407.209198 153.970886,454.523804 153.956940,501.838135 
	C148.293854,501.879578 142.630753,501.921021 136.498062,501.435303 
	C136.028458,454.429535 136.028458,407.950928 136.028458,360.683746 
	C133.351837,361.938477 131.706955,362.656311 130.108994,363.466675 
	C109.197121,374.071747 88.329170,384.764709 67.346260,395.227173 
	C64.060501,396.865509 62.865295,398.727753 62.881641,402.437439 
	C63.027615,435.559448 62.956390,468.682404 62.949116,501.805084 
M360.584900,176.949631 
	C360.584900,183.032990 360.584900,189.116348 360.584900,195.183578 
	C368.436493,195.183578 375.516663,195.183578 382.602661,195.183578 
	C382.602661,187.774872 382.602661,180.699203 382.602661,173.149780 
	C375.866974,173.149780 369.418884,173.045776 362.982941,173.277939 
	C362.153961,173.307831 361.387787,175.080551 360.584900,176.949631 
M353.005035,192.183136 
	C353.005035,185.951096 353.005035,179.719055 353.005035,173.485443 
	C345.290009,173.485443 338.256195,173.485443 331.141296,173.485443 
	C331.141296,180.889389 331.141296,187.950958 331.141296,195.487076 
	C337.824890,195.487076 344.262207,195.568939 350.691681,195.382034 
	C351.482788,195.359039 352.232147,193.900391 353.005035,192.183136 
M450.858612,182.070114 
	C449.743530,180.537903 447.559174,178.899429 447.699066,177.491943 
	C448.294678,171.498932 453.789124,174.892639 457.050659,173.177429 
	C457.050659,171.257278 457.050659,169.231995 457.050659,167.234131 
	C444.671478,166.392761 439.897766,170.707840 440.847961,181.567017 
	C436.062256,182.512375 437.649719,185.838058 437.930847,188.786057 
	C445.411194,188.786057 452.634766,188.786057 459.865479,188.786057 
	C459.865479,186.515106 459.865479,184.585495 459.865479,182.124588 
	C457.001617,182.124588 454.386688,182.124588 450.858612,182.070114 
z"/>
<path fill="#F1904E" opacity="1.000000" stroke="none" 
	d="
M390.057343,346.287170 
	C388.799988,347.209320 387.669312,348.450562 386.266876,349.007263 
	C345.835876,365.056335 305.365448,381.006226 264.946869,397.086365 
	C261.684662,398.384216 259.369904,398.088318 256.971771,395.488007 
	C240.305237,377.416229 223.614105,359.366425 206.816757,341.416321 
	C197.953003,331.944275 188.886307,322.661316 179.861252,313.341370 
	C173.153000,306.413940 173.126007,306.466339 164.516907,310.735168 
	C113.964767,335.801514 63.408199,360.858887 12.506179,385.980377 
	C12.098486,372.663025 12.037728,359.284546 12.038397,345.439026 
	C13.654678,344.530273 15.330036,344.326263 16.745083,343.608795 
	C27.028898,338.394928 37.251633,333.060730 47.518009,327.812195 
	C48.966301,327.071808 50.546738,326.589874 52.509491,326.432098 
	C52.967937,330.201935 52.845028,333.537598 53.076958,336.848450 
	C53.152279,337.923706 53.924244,339.560425 54.771790,339.873627 
	C60.954567,342.158661 67.237854,344.171753 74.573845,346.634827 
	C74.573845,335.142487 74.573845,324.546967 74.941193,313.861511 
	C79.608276,311.639893 83.970634,309.623932 88.188965,307.341766 
	C91.909935,305.328705 95.470169,303.018524 99.557419,300.750732 
	C114.319603,300.681976 128.626038,300.768433 142.931778,300.701904 
	C155.167786,300.644958 165.302139,295.929504 170.942902,284.907867 
	C173.853180,279.221405 174.415939,272.333496 176.039413,265.988464 
	C179.019592,268.477509 182.014801,270.948853 184.974854,273.461609 
	C187.092590,275.259338 189.163193,277.112579 191.664459,279.426819 
	C192.074081,285.593781 192.074081,291.275055 192.074081,297.467773 
	C198.614197,297.467773 204.353668,297.467773 210.142670,297.776764 
	C229.806137,318.225037 249.391083,338.392853 269.127991,358.410889 
	C270.021729,359.317352 272.547485,359.497925 273.873779,358.951080 
	C282.320465,355.468475 290.647675,351.695496 299.006805,348.001373 
	C318.763824,339.270294 338.528717,330.556854 358.266052,321.781525 
	C367.791016,317.546722 377.261017,313.188354 387.097748,308.731079 
	C385.661682,304.664337 384.350067,300.950043 383.078125,296.753662 
	C383.204010,289.162598 383.290222,282.053589 383.376404,274.944611 
	C388.983673,276.624542 394.590973,278.304504 400.663361,280.453217 
	C401.138000,291.373230 401.162445,301.824493 401.151703,312.275726 
	C401.144623,319.162628 399.333038,321.844696 392.733246,323.941376 
	C389.457336,324.982086 385.997375,325.443298 382.474335,326.198029 
	C382.474335,333.103912 382.474335,339.836884 382.474335,346.998413 
	C385.206268,346.742157 387.631805,346.514679 390.057343,346.287170 
z"/>
<path fill="#F1904D" opacity="1.000000" stroke="none" 
	d="
M154.424652,501.902222 
	C153.970886,454.523804 154.058975,407.209198 153.880386,359.895599 
	C153.863144,355.324982 155.325165,353.055908 159.369827,351.222717 
	C171.969543,345.512146 168.016647,344.767365 177.986740,354.470795 
	C193.015549,369.097626 207.912033,383.861053 223.013214,398.412354 
	C225.873077,401.168121 227.090240,403.956909 227.070297,407.976715 
	C226.916412,438.963531 226.994156,469.951538 227.019394,501.397705 
	C202.989929,501.892914 178.941132,501.929626 154.424652,501.902222 
z"/>
<path fill="#F1904D" opacity="1.000000" stroke="none" 
	d="
M63.415642,501.882416 
	C62.956390,468.682404 63.027615,435.559448 62.881641,402.437439 
	C62.865295,398.727753 64.060501,396.865509 67.346260,395.227173 
	C88.329170,384.764709 109.197121,374.071747 130.108994,363.466675 
	C131.706955,362.656311 133.351837,361.938477 136.028458,360.683746 
	C136.028458,407.950928 136.028458,454.429535 136.037979,501.364502 
	C111.992386,501.867157 87.937279,501.913452 63.415642,501.882416 
z"/>
<path fill="#F1904D" opacity="1.000000" stroke="none" 
	d="
M332.429871,501.922363 
	C331.982025,472.540924 332.042450,443.222168 331.965210,413.903839 
	C331.956421,410.564362 332.549164,408.281372 336.038483,406.932648 
	C357.564270,398.612274 379.028198,390.131958 400.515442,381.711761 
	C400.970001,381.533600 401.457092,381.438354 402.192841,381.229553 
	C405.577667,386.322815 408.214386,391.280914 408.148560,397.984924 
	C407.811584,432.298004 408.001068,466.616272 408.023438,501.390869 
	C382.992706,501.894379 357.945038,501.939789 332.429871,501.922363 
z"/>
<path fill="#F1904D" opacity="1.000000" stroke="none" 
	d="
M241.424576,501.902466 
	C240.956863,474.868561 240.956863,447.898804 240.956863,419.460754 
	C245.585953,423.328583 249.596802,426.155518 252.960846,429.611938 
	C258.177216,434.971527 262.801361,437.322754 270.802521,433.532471 
	C284.119965,427.223907 298.295868,422.725433 312.122864,417.498016 
	C313.482300,416.984100 314.929321,416.701874 317.028503,416.120117 
	C317.028503,444.704193 317.028503,472.806152 317.038025,501.364502 
	C291.995789,501.869446 266.944031,501.918030 241.424576,501.902466 
z"/>
<path fill="#F1904D" opacity="1.000000" stroke="none" 
	d="
M12.049334,423.436890 
	C16.575518,420.880798 21.138988,418.977020 25.482311,416.660492 
	C32.351238,412.996857 39.072620,409.056610 46.873013,404.660553 
	C46.873013,437.110657 46.873013,468.780548 46.801651,500.948547 
	C25.455229,497.350739 10.900161,477.745667 11.897906,457.842804 
	C12.463684,446.556732 11.992198,435.218658 12.049334,423.436890 
z"/>
<path fill="#FFFEFD" opacity="1.000000" stroke="none" 
	d="
M383.289917,274.486694 
	C383.290222,282.053589 383.204010,289.162598 382.606873,296.772980 
	C330.075867,297.274780 278.055817,297.269684 226.035736,297.283997 
	C220.721527,297.285461 215.407333,297.403717 210.093140,297.467773 
	C204.353668,297.467773 198.614197,297.467773 192.074081,297.467773 
	C192.074081,291.275055 192.074081,285.593781 192.006470,279.447205 
	C191.979935,256.499664 192.160202,234.016144 191.939011,211.536560 
	C191.897202,207.287399 193.328934,205.361633 197.090469,203.986160 
	C202.671860,201.945236 208.074371,199.415192 214.182220,196.826691 
	C214.182220,222.491058 214.182220,247.547333 214.182220,272.964111 
	C251.553879,272.964111 288.441162,272.964111 326.160065,272.964111 
	C325.157471,271.244080 324.287415,269.785614 323.449646,268.308838 
	C316.292053,255.692230 315.028290,242.495621 320.062531,228.901413 
	C324.255646,217.578552 334.130707,210.867935 346.228943,210.805176 
	C358.051636,210.743851 369.875153,210.845078 381.698242,210.893738 
	C381.992950,210.894943 382.286713,211.116119 383.203369,211.485580 
	C383.203369,232.172089 383.203369,253.100449 383.289917,274.486694 
M362.936432,268.130615 
	C362.936432,256.363953 362.936432,244.597275 362.936432,232.215836 
	C357.988739,232.215836 353.507507,231.833206 349.120758,232.313629 
	C343.751862,232.901581 340.516663,236.484818 339.975800,241.353348 
	C338.550415,254.183380 347.562897,267.457275 360.015442,270.606598 
	C360.803986,270.806000 361.950073,269.591522 362.936432,268.130615 
z"/>
<path fill="#FFFDFC" opacity="1.000000" stroke="none" 
	d="
M74.573845,313.951447 
	C74.573845,324.546967 74.573845,335.142487 74.573845,346.634827 
	C67.237854,344.171753 60.954567,342.158661 54.771790,339.873627 
	C53.924244,339.560425 53.152279,337.923706 53.076958,336.848450 
	C52.845028,333.537598 52.967937,330.201935 52.872597,326.413757 
	C53.111950,317.820099 52.593220,309.547577 53.931900,301.587372 
	C56.454453,286.587433 65.871124,279.141296 80.984756,278.933441 
	C90.308197,278.805176 99.634613,278.892761 108.959694,278.883972 
	C110.576820,278.882446 112.193947,278.883728 114.327209,278.883728 
	C114.327209,274.198639 114.327209,270.075958 114.327217,265.953278 
	C114.327225,253.963760 114.315956,241.974243 114.329796,229.984741 
	C114.352013,210.749893 128.399109,196.399261 147.535477,196.169067 
	C156.831879,196.057220 166.130722,196.149734 175.861969,196.149734 
	C175.861969,219.259613 175.861969,242.162766 175.950684,265.527191 
	C174.415939,272.333496 173.853180,279.221405 170.942902,284.907867 
	C165.302139,295.929504 155.167786,300.644958 142.931778,300.701904 
	C128.626038,300.768433 114.319603,300.681976 99.084793,300.679871 
	C95.033707,300.685425 91.911301,300.662933 88.788895,300.662476 
	C78.645355,300.660919 75.532768,303.574249 74.573845,313.951447 
M155.028885,263.210083 
	C155.028885,248.318115 155.028885,233.426163 155.028885,218.514496 
	C139.892441,219.148300 135.157639,224.038101 135.152771,238.209229 
	C135.149902,246.540619 135.152237,254.872009 135.152222,263.203400 
	C135.152222,268.472290 135.152222,273.741211 135.152222,278.825378 
	C146.171494,281.641357 153.756973,275.772644 155.028885,263.210083 
z"/>
<path fill="#FEFBF9" opacity="1.000000" stroke="none" 
	d="
M390.445557,346.192139 
	C387.631805,346.514679 385.206268,346.742157 382.474335,346.998413 
	C382.474335,339.836884 382.474335,333.103912 382.474335,326.198029 
	C385.997375,325.443298 389.457336,324.982086 392.733246,323.941376 
	C399.333038,321.844696 401.144623,319.162628 401.151703,312.275726 
	C401.162445,301.824493 401.138000,291.373230 401.053894,280.457672 
	C401.048615,262.673859 401.237762,245.353317 401.089111,228.035660 
	C401.058289,224.444794 402.220154,222.694336 405.464508,221.455841 
	C411.332916,219.215591 417.056335,216.595413 423.817047,213.718170 
	C423.817047,238.647278 423.817047,262.860199 423.813293,287.988617 
	C423.784882,296.715851 423.812317,304.528198 423.721832,312.339172 
	C423.619415,321.181305 421.064941,329.153198 414.157959,335.013397 
	C410.777252,337.881714 406.730103,339.964539 402.984589,342.402893 
	C398.934326,343.634308 394.884033,344.865723 390.445557,346.192139 
z"/>
<path fill="#FFFFFF" opacity="1.000000" stroke="none" 
	d="
M438.721954,290.931244 
	C438.777954,264.308685 438.927765,237.685638 438.784302,211.064148 
	C438.763824,207.265701 439.923248,205.435776 443.385406,204.154510 
	C449.113495,202.034683 454.672302,199.457504 460.974548,196.788376 
	C460.974548,230.197205 460.974548,263.046906 460.471558,296.385986 
	C453.047821,296.875336 446.127075,296.875336 439.148071,296.875336 
	C438.981201,294.547729 438.851562,292.739502 438.721954,290.931244 
z"/>
<path fill="#F1904D" opacity="1.000000" stroke="none" 
	d="
M438.336456,290.940918 
	C438.851562,292.739502 438.981201,294.547729 439.148071,296.875336 
	C446.127075,296.875336 453.047821,296.875336 460.428589,296.840668 
	C458.429199,301.848358 456.181976,307.007843 453.473297,311.912537 
	C442.316284,332.114807 431.020233,352.240295 419.765747,372.388641 
	C419.529755,372.811127 419.177979,373.168884 418.146179,374.513092 
	C412.877808,363.627960 407.939728,353.425262 402.993134,342.812714 
	C406.730103,339.964539 410.777252,337.881714 414.157959,335.013397 
	C421.064941,329.153198 423.619415,321.181305 423.721832,312.339172 
	C423.812317,304.528198 423.784882,296.715851 423.924377,288.445892 
	C428.676453,288.975311 433.313721,289.962952 438.336456,290.940918 
z"/>
<path fill="#FFFCFB" opacity="1.000000" stroke="none" 
	d="
M360.588684,176.497772 
	C361.387787,175.080551 362.153961,173.307831 362.982941,173.277939 
	C369.418884,173.045776 375.866974,173.149780 382.602661,173.149780 
	C382.602661,180.699203 382.602661,187.774872 382.602661,195.183578 
	C375.516663,195.183578 368.436493,195.183578 360.584900,195.183578 
	C360.584900,189.116348 360.584900,183.032990 360.588684,176.497772 
z"/>
<path fill="#FFFDFC" opacity="1.000000" stroke="none" 
	d="
M353.002930,192.645096 
	C352.232147,193.900391 351.482788,195.359039 350.691681,195.382034 
	C344.262207,195.568939 337.824890,195.487076 331.141296,195.487076 
	C331.141296,187.950958 331.141296,180.889389 331.141296,173.485443 
	C338.256195,173.485443 345.290009,173.485443 353.005035,173.485443 
	C353.005035,179.719055 353.005035,185.951096 353.002930,192.645096 
z"/>
<path fill="#FEFBF9" opacity="1.000000" stroke="none" 
	d="
M451.315186,182.097351 
	C454.386688,182.124588 457.001617,182.124588 459.865479,182.124588 
	C459.865479,184.585495 459.865479,186.515106 459.865479,188.786057 
	C452.634766,188.786057 445.411194,188.786057 437.930847,188.786057 
	C437.649719,185.838058 436.062256,182.512375 440.847961,181.567017 
	C439.897766,170.707840 444.671478,166.392761 457.050659,167.234131 
	C457.050659,169.231995 457.050659,171.257278 457.050659,173.177429 
	C453.789124,174.892639 448.294678,171.498932 447.699066,177.491943 
	C447.559174,178.899429 449.743530,180.537903 451.315186,182.097351 
z"/>
<path fill="#ED7420" opacity="1.000000" stroke="none" 
	d="
M210.142670,297.776733 
	C215.407333,297.403717 220.721527,297.285461 226.035736,297.283997 
	C278.055817,297.269684 330.075867,297.274780 382.567200,297.255066 
	C384.350067,300.950043 385.661682,304.664337 387.097748,308.731079 
	C377.261017,313.188354 367.791016,317.546722 358.266052,321.781525 
	C338.528717,330.556854 318.763824,339.270294 299.006805,348.001373 
	C290.647675,351.695496 282.320465,355.468475 273.873779,358.951080 
	C272.547485,359.497925 270.021729,359.317352 269.127991,358.410889 
	C249.391083,338.392853 229.806137,318.225037 210.142670,297.776733 
z"/>
<path fill="#ED7724" opacity="1.000000" stroke="none" 
	d="
M74.941193,313.861511 
	C75.532768,303.574249 78.645355,300.660919 88.788895,300.662476 
	C91.911301,300.662933 95.033707,300.685425 98.628746,300.768677 
	C95.470169,303.018524 91.909935,305.328705 88.188965,307.341766 
	C83.970634,309.623932 79.608276,311.639893 74.941193,313.861511 
z"/>
<path fill="#ED7724" opacity="1.000000" stroke="none" 
	d="
M362.933136,268.582703 
	C361.950073,269.591522 360.803986,270.806000 360.015442,270.606598 
	C347.562897,267.457275 338.550415,254.183380 339.975800,241.353348 
	C340.516663,236.484818 343.751862,232.901581 349.120758,232.313629 
	C353.507507,231.833206 357.988739,232.215836 362.936432,232.215836 
	C362.936432,244.597275 362.936432,256.363953 362.933136,268.582703 
z"/>
<path fill="#ED7724" opacity="1.000000" stroke="none" 
	d="
M155.019135,263.669250 
	C153.756973,275.772644 146.171494,281.641357 135.152222,278.825378 
	C135.152222,273.741211 135.152222,268.472290 135.152222,263.203400 
	C135.152237,254.872009 135.149902,246.540619 135.152771,238.209229 
	C135.157639,224.038101 139.892441,219.148300 155.028885,218.514496 
	C155.028885,233.426163 155.028885,248.318115 155.019135,263.669250 
z"/>
</svg>