<?xml version="1.0" standalone="no"?>
<!DOCTYPE svg PUBLIC "-//W3C//DTD SVG 20010904//EN"
 "http://www.w3.org/TR/2001/REC-SVG-20010904/DTD/svg10.dtd">
<svg version="1.0" xmlns="http://www.w3.org/2000/svg"
 width="250.000000pt" height="250.000000pt" viewBox="0 0 250.000000 250.000000"
 preserveAspectRatio="xMidYMid meet">

<g transform="translate(0.000000,250.000000) scale(0.100000,-0.100000)"
fill="#000000" stroke="none">
<path d="M0 1250 l0 -1250 1250 0 1250 0 0 1250 0 1250 -1250 0 -1250 0 0
-1250z m887 478 l83 -83 0 -159 0 -160 -37 -38 -37 -38 37 -38 37 -38 0 -159
0 -160 -82 -82 -83 -83 -197 0 -198 0 0 560 0 560 197 0 198 0 82 -82z m1125
5 l78 -78 0 -165 0 -166 -55 -54 c-30 -30 -55 -60 -55 -66 0 -7 29 -121 65
-255 36 -134 65 -247 65 -251 0 -5 -37 -8 -83 -8 l-83 0 -64 240 -63 240 -59
0 -58 0 0 -240 0 -240 -85 0 -85 0 0 560 0 560 202 0 203 0 77 -77z m-762
-583 l-140 -140 0 100 0 99 138 140 137 139 3 -99 3 -99 -141 -140z"/>
<path d="M580 1489 l0 -159 78 0 c75 0 79 1 110 33 31 32 32 35 32 129 l0 96
-36 31 c-34 30 -40 32 -110 30 l-74 -2 0 -158z"/>
<path d="M580 1010 l0 -160 75 0 c69 0 77 2 110 31 l35 31 0 97 c0 97 0 97
-33 129 -31 30 -37 32 -110 32 l-77 0 0 -160z"/>
<path d="M1700 1490 l0 -160 78 0 c75 0 79 1 110 33 31 32 32 35 32 128 0 94
0 95 -33 127 -31 30 -37 32 -110 32 l-77 0 0 -160z"/>
</g>
</svg>
