<svg width="1557" height="1569" viewBox="0 0 1557 1569" fill="none" xmlns="http://www.w3.org/2000/svg">
<path d="M1267.47 534.55C1267.7 550.813 1268.13 567.076 1268.13 583.339C1268.18 750.625 1268.03 917.911 1268.3 1085.2C1268.34 1111.63 1265.81 1136.68 1242.06 1155.57C1269.07 1160.98 1288.89 1153.68 1297.98 1131.24C1304.8 1114.4 1309.13 1095.51 1309.21 1077.51C1309.99 885.531 1309.68 693.544 1309.71 501.557C1309.72 429.59 1355.47 386.01 1430.88 386.001C1442.65 385.999 1454.42 386 1468.98 386C1468.98 392.354 1468.99 397.689 1468.99 403.025C1468.98 628.131 1469.04 853.238 1468.93 1078.34C1468.91 1130.22 1437.22 1170.69 1385.76 1185.07C1379.62 1186.79 1373.03 1187.88 1366.65 1187.89C1220.01 1188.04 1073.37 1188 926.723 1187.97C923.811 1187.97 920.9 1187.61 915.883 1187.27C915.591 1181.25 915.058 1175.34 915.056 1169.44C915.009 1031.91 914.963 894.373 915.045 756.839C915.083 691.47 959.566 649.243 1028.13 649.181C1041.63 649.169 1055.13 649.179 1071.07 649.179C1071.07 657.117 1071.07 663.63 1071.07 670.144C1071.07 806.555 1070.84 942.967 1071.25 1079.38C1071.34 1108.06 1069.8 1135.53 1042.81 1155.84C1072.92 1161.23 1089.87 1155.72 1098.81 1131.82C1106.95 1110.08 1112.48 1086.23 1112.68 1063.26C1113.91 922.363 1113.27 781.456 1113.31 640.554C1113.34 568.501 1156.28 527.582 1231.8 527.616C1243 527.622 1254.21 528.118 1265.66 529.909C1266.42 532.471 1266.94 533.51 1267.47 534.55Z" fill="#45BBFF"/>
<path d="M322.357 999.049C322.358 849.192 321.427 701.012 322.812 552.852C323.378 492.354 346.735 440.244 404.687 409.057C425.205 398.015 449.552 389.19 472.736 387.725C523.125 384.539 573.89 386.742 626.026 386.742C626.347 392.588 626.902 397.997 626.903 403.405C626.945 620.051 627.162 836.696 626.766 1053.34C626.675 1103.16 610.414 1146.9 562.394 1172.97C546.754 1181.46 527.047 1187.08 509.133 1187.24C376.998 1188.42 244.846 1187.88 112.699 1187.88C106.83 1187.88 100.96 1187.88 92.902 1187.88C92.5925 1181.27 92.0792 1175.38 92.0756 1169.49C92.0234 1084.74 91.9363 999.987 92.0738 915.238C92.176 852.286 141.03 806.219 207.533 806.036C218 806.007 228.467 806.032 240.706 806.032C240.706 923.691 240.706 1039.59 240.706 1156.69C288.209 1156.69 333.945 1156.69 379.682 1156.69C380.974 1155.68 382.265 1154.67 383.557 1153.67C380.538 1152.58 377.187 1151.98 374.55 1150.33C338.948 1128.17 323.43 1095.76 322.454 1056.29C321.996 1037.78 322.363 1019.25 322.357 999.049ZM406.995 1071.21C415.739 1111.07 438.843 1139.4 480.606 1156.36C480.606 933.686 480.606 714.02 480.606 493.075C475.575 494.181 471.52 494.544 467.912 495.947C428.203 511.386 404.263 545.941 404.224 588.686C404.088 741.35 404.121 894.014 404.241 1046.68C404.247 1053.91 405.703 1061.13 406.995 1071.21Z" fill="#45BAFF"/>
<path d="M844 951.283C843.717 1013.89 814.011 1054.47 758.927 1064.19C738.001 1067.88 715.763 1064.79 691.751 1064.79C691.55 1060.54 691.084 1055.21 691.079 1049.89C691.027 993.247 690.93 936.605 691.08 879.964C691.24 819.068 738.727 773.471 802.197 773.044C815.525 772.954 828.855 773.031 844 773.031C844 833.252 844 891.435 844 951.283Z" fill="#45BAFF"/>
<path d="M244 474.171C244 502.06 244 528.358 244 556C191.326 556 139.933 556 87 556C87 497.967 87 439.556 87 381.222C113.047 381.222 139.201 378.069 164.183 381.892C213.231 389.396 242.836 425.245 244 474.171Z" fill="#949494"/>
<path d="M245.999 628.068C246 676.914 246 724.095 246 773.119C200.294 772.572 154.217 782.595 118.249 746.52C101.33 729.55 91.8647 709.527 92.0015 685.721C92.1594 658.221 92.0382 630.72 92.0382 602C143.237 602 193.118 602 245.998 602C245.998 610.118 245.998 618.261 245.999 628.068Z" fill="#939393"/>
<path d="M699.518 1092.09C726.058 1092.02 750.912 1091.98 775.765 1092.01C826.99 1092.08 854.979 1118.74 854.999 1167.41C855.001 1173.5 854.999 1179.58 854.999 1187C819.025 1187 784.625 1189.64 750.858 1186.34C707.716 1182.12 679.092 1135.11 692.204 1095.37C692.697 1093.88 695.894 1093.2 699.518 1092.09Z" fill="#949494"/>
<path d="M1252 533C1251.36 532.94 1250.86 532.111 1251.03 531C1251.85 531.222 1252 531.726 1252 533Z" fill="#36B5FF"/>
</svg>
